{"glyphs":{"0":{"ha":965,"x_min":36,"x_max":928,"o":"m 482 -15 q 242 47 342 -15 q 89 226 142 110 q 36 505 36 342 q 89 784 36 667 q 242 963 142 901 q 482 1025 342 1025 q 723 963 623 1025 q 876 784 823 901 q 928 505 928 667 q 876 225 928 342 q 723 47 823 109 q 482 -15 623 -15 m 482 204 q 575 240 537 204 q 634 342 614 275 q 654 505 654 410 q 634 668 654 600 q 575 771 614 735 q 483 807 536 807 q 390 771 429 807 q 331 668 351 735 q 311 505 311 600 q 331 342 311 410 q 390 240 351 275 q 482 204 429 204 z "},"1":{"ha":598,"x_min":39,"x_max":538,"o":"m 538 1010 l 538 0 l 267 0 l 267 768 l 262 768 l 39 625 l 39 859 l 278 1010 l 538 1010 z "},"2":{"ha":886,"x_min":43,"x_max":833,"o":"m 58 0 l 58 197 l 436 506 q 498 559 469 532 q 545 617 527 586 q 563 689 563 649 q 547 753 563 726 q 503 796 531 781 q 436 811 474 811 q 367 794 397 811 q 320 743 336 777 q 303 661 303 709 l 43 661 q 92 856 43 774 q 228 981 140 937 q 437 1025 316 1025 q 641 987 553 1025 q 778 877 729 948 q 827 708 827 806 q 801 582 827 640 q 718 464 774 524 q 572 331 661 404 l 439 222 l 439 218 l 833 218 l 833 0 l 58 0 z "},"3":{"ha":905,"x_min":42,"x_max":869,"o":"m 452 -15 q 227 32 318 -15 q 89 157 136 79 q 42 330 42 235 l 311 330 q 329 261 311 290 q 378 216 346 232 q 452 200 410 200 q 521 214 491 200 q 568 253 551 228 q 585 309 585 277 q 566 366 585 342 q 513 404 547 391 q 433 418 479 418 l 332 418 l 332 608 l 433 608 q 507 621 475 608 q 557 657 539 633 q 574 712 574 680 q 559 767 574 743 q 516 805 543 791 q 454 819 490 819 q 387 804 416 819 q 341 764 357 789 q 324 703 324 738 l 61 703 q 109 869 61 796 q 246 984 157 942 q 454 1025 334 1025 q 652 989 566 1025 q 787 887 739 952 q 836 739 836 823 q 777 594 836 650 q 631 528 719 538 l 631 524 q 762 483 709 516 q 842 399 815 450 q 869 288 869 348 q 816 132 869 200 q 669 24 763 63 q 452 -15 576 -15 z "},"4":{"ha":966,"x_min":50,"x_max":920,"o":"m 50 178 l 50 391 l 459 1010 l 644 1010 l 644 744 l 541 744 l 311 393 l 311 389 l 920 389 l 920 178 l 50 178 m 542 0 l 542 243 l 545 337 l 545 1010 l 806 1010 l 806 0 l 542 0 z "},"5":{"ha":878,"x_min":35,"x_max":842,"o":"m 436 -15 q 231 26 319 -15 q 90 142 142 67 q 35 317 39 216 l 298 317 q 317 253 298 281 q 367 209 335 224 q 437 193 398 193 q 510 211 479 193 q 559 262 541 229 q 577 339 577 295 q 559 417 577 384 q 510 470 541 451 q 437 488 478 488 q 352 466 389 488 q 302 407 316 444 l 54 428 l 87 1010 l 779 1010 l 779 791 l 325 791 l 309 601 l 312 601 q 391 661 340 639 q 508 683 443 683 q 635 658 575 683 q 742 587 696 633 q 815 480 789 542 q 842 347 842 419 q 791 160 842 241 q 650 32 741 78 q 436 -15 559 -15 z "},"6":{"ha":915,"x_min":36,"x_max":878,"o":"m 474 -15 q 297 16 378 -15 q 158 111 217 47 q 68 270 100 174 q 36 494 36 366 q 66 715 36 616 q 154 883 97 813 q 293 989 212 952 q 475 1025 374 1025 q 672 983 587 1025 q 807 870 757 941 q 865 713 857 800 l 602 713 q 557 783 593 759 q 470 807 522 807 q 374 775 412 807 q 318 685 336 743 q 300 547 300 627 l 303 547 q 362 616 326 588 q 445 659 398 645 q 545 673 492 673 q 718 630 643 673 q 836 513 793 587 q 878 342 878 438 q 827 154 878 235 q 684 30 775 74 q 474 -15 593 -15 m 471 195 q 544 213 513 195 q 594 264 576 232 q 612 338 612 296 q 594 411 612 379 q 544 462 576 444 q 471 481 513 481 q 416 470 441 481 q 372 440 391 459 q 342 395 353 421 q 332 338 332 369 q 350 264 332 296 q 400 213 368 232 q 471 195 432 195 z "},"7":{"ha":814,"x_min":32,"x_max":782,"o":"m 101 0 l 497 783 l 497 785 l 32 785 l 32 1010 l 782 1010 l 782 791 l 383 0 l 101 0 z "},"8":{"ha":914,"x_min":36,"x_max":878,"o":"m 456 -15 q 237 22 332 -15 q 89 124 142 58 q 36 274 36 189 q 68 392 36 340 q 157 478 100 444 q 289 522 214 511 l 289 524 q 130 600 189 540 q 70 750 70 660 q 119 893 70 831 q 256 990 168 956 q 456 1025 343 1025 q 659 991 572 1025 q 795 894 747 956 q 844 750 844 832 q 784 600 844 660 q 625 524 724 541 l 625 522 q 757 478 700 511 q 846 392 814 444 q 878 274 878 340 q 824 124 878 189 q 676 22 771 58 q 456 -15 581 -15 m 456 174 q 526 190 495 174 q 573 234 556 205 q 591 297 591 262 q 573 359 591 332 q 526 402 556 387 q 456 418 496 418 q 388 402 418 418 q 341 359 358 387 q 323 297 323 332 q 341 233 323 261 q 388 190 358 205 q 456 174 418 174 m 456 612 q 519 625 492 612 q 561 664 546 639 q 576 720 576 688 q 561 778 576 753 q 519 815 546 802 q 456 829 492 829 q 395 815 421 829 q 353 778 368 802 q 338 720 338 753 q 353 664 338 688 q 395 626 368 640 q 456 612 421 612 z "},"9":{"ha":915,"x_min":36,"x_max":878,"o":"m 439 -16 q 243 26 328 -16 q 108 140 158 69 q 49 298 58 212 l 313 298 q 358 227 322 252 q 445 202 393 202 q 541 234 503 202 q 597 326 578 267 q 615 464 615 385 l 612 464 q 552 394 589 422 q 470 351 516 366 q 370 337 424 337 q 197 380 272 337 q 79 498 121 423 q 36 669 36 573 q 88 857 36 776 q 231 982 140 937 q 440 1027 322 1027 q 618 995 538 1027 q 756 900 698 964 q 846 741 814 837 q 878 517 878 645 q 848 296 878 394 q 760 127 818 197 q 622 21 703 58 q 439 -16 541 -16 m 443 530 q 499 541 473 530 q 543 570 524 551 q 572 615 562 589 q 583 673 583 642 q 565 746 583 714 q 515 797 547 779 q 443 816 484 816 q 371 797 403 816 q 320 746 338 779 q 302 673 302 714 q 320 599 302 631 q 370 548 338 567 q 443 530 402 530 z "},"\u0000":{"ha":814,"x_min":0,"x_max":0,"o":""},"A":{"ha":1080,"x_min":14,"x_max":1067,"o":"m 14 0 l 348 1010 l 725 1010 l 1067 0 l 752 0 l 637 392 q 566 650 600 519 q 500 915 532 780 l 570 915 q 507 650 539 780 q 437 392 474 519 l 321 0 l 14 0 m 262 178 l 262 390 l 819 390 l 819 178 l 262 178 z "},"Ä":{"ha":1080,"x_min":14,"x_max":1067,"o":"m 14 0 l 348 1010 l 725 1010 l 1067 0 l 752 0 l 637 392 q 566 650 600 519 q 500 915 532 780 l 570 915 q 507 650 539 780 q 437 392 474 519 l 321 0 l 14 0 m 262 178 l 262 390 l 819 390 l 819 178 l 262 178 m 697 1078 q 605 1113 642 1078 q 568 1200 568 1148 q 605 1287 568 1253 q 697 1322 642 1322 q 789 1287 752 1322 q 826 1200 826 1253 q 789 1113 826 1147 q 697 1078 752 1078 m 381 1078 q 290 1113 326 1078 q 253 1200 253 1148 q 290 1287 253 1253 q 381 1322 326 1322 q 473 1287 437 1322 q 510 1200 510 1253 q 473 1113 510 1147 q 381 1078 437 1078 z "},"Ã":{"ha":1080,"x_min":14,"x_max":1067,"o":"m 14 0 l 348 1010 l 725 1010 l 1067 0 l 752 0 l 637 392 q 566 650 600 519 q 500 915 532 780 l 570 915 q 507 650 539 780 q 437 392 474 519 l 321 0 l 14 0 m 262 178 l 262 390 l 819 390 l 819 178 l 262 178 m 640 1100 q 574 1112 601 1100 q 528 1141 547 1124 q 492 1169 509 1157 q 456 1181 475 1181 q 419 1162 433 1181 q 405 1105 406 1143 l 271 1105 q 321 1265 273 1213 q 439 1317 369 1317 q 504 1305 477 1317 q 551 1278 531 1293 q 588 1250 571 1262 q 622 1238 604 1238 q 662 1258 650 1238 q 675 1313 674 1278 l 808 1313 q 758 1154 806 1208 q 640 1100 709 1100 z "},"À":{"ha":1080,"x_min":14,"x_max":1067,"o":"m 14 0 l 348 1010 l 725 1010 l 1067 0 l 752 0 l 637 392 q 566 650 600 519 q 500 915 532 780 l 570 915 q 507 650 539 780 q 437 392 474 519 l 321 0 l 14 0 m 262 178 l 262 390 l 819 390 l 819 178 l 262 178 m 458 1099 l 277 1320 l 519 1320 l 637 1099 l 458 1099 z "},"Á":{"ha":1080,"x_min":14,"x_max":1067,"o":"m 14 0 l 348 1010 l 725 1010 l 1067 0 l 752 0 l 637 392 q 566 650 600 519 q 500 915 532 780 l 570 915 q 507 650 539 780 q 437 392 474 519 l 321 0 l 14 0 m 262 178 l 262 390 l 819 390 l 819 178 l 262 178 m 441 1099 l 559 1320 l 801 1320 l 620 1099 l 441 1099 z "},"Â":{"ha":1080,"x_min":14,"x_max":1067,"o":"m 14 0 l 348 1010 l 725 1010 l 1067 0 l 752 0 l 637 392 q 566 650 600 519 q 500 915 532 780 l 570 915 q 507 650 539 780 q 437 392 474 519 l 321 0 l 14 0 m 262 178 l 262 390 l 819 390 l 819 178 l 262 178 m 450 1099 l 243 1099 l 243 1101 l 439 1320 l 635 1320 l 835 1101 l 835 1099 l 627 1099 l 537 1209 l 450 1099 z "},"Å":{"ha":1080,"x_min":14,"x_max":1067,"o":"m 14 0 l 348 1010 l 725 1010 l 1067 0 l 752 0 l 637 392 q 566 650 600 519 q 500 915 532 780 l 570 915 q 507 650 539 780 q 437 392 474 519 l 321 0 l 14 0 m 262 178 l 262 390 l 819 390 l 819 178 l 262 178 m 539 1059 q 443 1080 484 1059 q 378 1138 401 1101 q 355 1221 355 1175 q 378 1306 355 1269 q 443 1364 401 1343 q 539 1385 484 1385 q 636 1364 595 1385 q 701 1306 677 1343 q 724 1221 724 1269 q 701 1138 724 1175 q 636 1080 677 1101 q 539 1059 595 1059 m 539 1155 q 589 1173 570 1155 q 608 1221 608 1192 q 589 1270 608 1251 q 539 1288 570 1288 q 489 1270 508 1288 q 470 1222 470 1251 q 489 1174 470 1192 q 539 1155 508 1155 z "},"Ǻ":{"ha":1080,"x_min":14,"x_max":1067,"o":"m 14 0 l 348 1010 l 725 1010 l 1067 0 l 752 0 l 637 392 q 566 650 600 519 q 500 915 532 780 l 570 915 q 507 650 539 780 q 437 392 474 519 l 321 0 l 14 0 m 262 178 l 262 390 l 819 390 l 819 178 l 262 178 m 460 1405 l 559 1561 l 768 1561 l 621 1405 l 460 1405 m 539 1057 q 443 1076 484 1057 q 378 1131 401 1096 q 355 1211 355 1166 q 378 1292 355 1257 q 443 1347 401 1326 q 539 1367 484 1367 q 636 1347 595 1367 q 701 1292 677 1326 q 724 1211 724 1257 q 701 1132 724 1166 q 636 1077 677 1097 q 539 1057 595 1057 m 539 1148 q 589 1165 570 1148 q 608 1211 608 1183 q 589 1257 608 1240 q 539 1274 570 1274 q 489 1257 508 1274 q 470 1211 470 1240 q 489 1165 470 1183 q 539 1148 508 1148 z "},"":{"ha":1080,"x_min":14,"x_max":1078,"o":"m 14 0 l 348 1010 l 725 1010 l 1067 0 l 752 0 l 637 392 q 566 650 600 519 q 500 915 532 780 l 570 915 q 507 650 539 780 q 437 392 474 519 l 321 0 l 14 0 m 262 178 l 262 390 l 819 390 l 819 178 l 262 178 m 539 1059 q 443 1080 484 1059 q 378 1138 401 1101 q 355 1221 355 1175 q 378 1306 355 1269 q 443 1364 401 1343 q 539 1385 484 1385 q 636 1364 595 1385 q 701 1306 677 1343 q 724 1221 724 1269 q 701 1138 724 1175 q 636 1080 677 1101 q 539 1059 595 1059 m 539 1155 q 589 1173 570 1155 q 608 1221 608 1192 q 589 1270 608 1251 q 539 1288 570 1288 q 489 1270 508 1288 q 470 1222 470 1251 q 489 1174 470 1192 q 539 1155 508 1155 m 926 -286 q 764 -247 825 -286 q 703 -134 703 -207 q 724 -54 703 -90 q 777 12 745 -18 l 1067 0 q 989 -45 1010 -23 q 968 -94 968 -67 q 980 -126 968 -115 q 1016 -137 992 -137 q 1037 -135 1027 -137 q 1057 -131 1046 -134 l 1078 -271 q 1005 -282 1050 -278 q 926 -286 959 -286 z "},"Ā":{"ha":1080,"x_min":14,"x_max":1067,"o":"m 14 0 l 348 1010 l 725 1010 l 1067 0 l 752 0 l 637 392 q 566 650 600 519 q 500 915 532 780 l 570 915 q 507 650 539 780 q 437 392 474 519 l 321 0 l 14 0 m 262 178 l 262 390 l 819 390 l 819 178 l 262 178 m 743 1278 l 743 1121 l 336 1121 l 336 1278 l 743 1278 z "},"Ă":{"ha":1080,"x_min":14,"x_max":1067,"o":"m 14 0 l 348 1010 l 725 1010 l 1067 0 l 752 0 l 637 392 q 566 650 600 519 q 500 915 532 780 l 570 915 q 507 650 539 780 q 437 392 474 519 l 321 0 l 14 0 m 262 178 l 262 390 l 819 390 l 819 178 l 262 178 m 539 1088 q 403 1118 463 1088 q 308 1200 343 1148 q 273 1314 273 1251 l 420 1314 q 454 1246 420 1274 q 539 1219 488 1219 q 624 1246 590 1219 q 657 1314 657 1274 l 805 1314 q 770 1200 805 1251 q 675 1118 735 1148 q 539 1088 615 1088 z "},"Ą":{"ha":1080,"x_min":14,"x_max":1078,"o":"m 14 0 l 348 1010 l 725 1010 l 1067 0 l 752 0 l 637 392 q 566 650 600 519 q 500 915 532 780 l 570 915 q 507 650 539 780 q 437 392 474 519 l 321 0 l 14 0 m 262 178 l 262 390 l 819 390 l 819 178 l 262 178 m 926 -286 q 764 -247 825 -286 q 703 -134 703 -207 q 724 -54 703 -90 q 777 12 745 -18 l 1067 0 q 989 -45 1010 -23 q 968 -94 968 -67 q 980 -126 968 -115 q 1016 -137 992 -137 q 1037 -135 1027 -137 q 1057 -131 1046 -134 l 1078 -271 q 1005 -282 1050 -278 q 926 -286 959 -286 z "},"Ǎ":{"ha":1080,"x_min":14,"x_max":1067,"o":"m 14 0 l 348 1010 l 725 1010 l 1067 0 l 752 0 l 637 392 q 566 650 600 519 q 500 915 532 780 l 570 915 q 507 650 539 780 q 437 392 474 519 l 321 0 l 14 0 m 262 178 l 262 390 l 819 390 l 819 178 l 262 178 m 450 1320 l 537 1210 l 627 1320 l 835 1320 l 835 1318 l 635 1099 l 439 1099 l 243 1318 l 243 1320 l 450 1320 z "},"Ǟ":{"ha":1080,"x_min":14,"x_max":1067,"o":"m 14 0 l 348 1010 l 725 1010 l 1067 0 l 752 0 l 637 392 q 566 650 600 519 q 500 915 532 780 l 570 915 q 507 650 539 780 q 437 392 474 519 l 321 0 l 14 0 m 262 178 l 262 390 l 819 390 l 819 178 l 262 178 m 691 1070 q 599 1105 636 1070 q 562 1193 562 1141 q 599 1280 562 1245 q 691 1315 636 1315 q 783 1280 746 1315 q 820 1193 820 1245 q 783 1105 820 1140 q 691 1070 746 1070 m 375 1070 q 283 1105 320 1070 q 247 1193 247 1141 q 283 1280 247 1245 q 375 1315 320 1315 q 467 1280 431 1315 q 504 1193 504 1245 q 467 1105 504 1140 q 375 1070 431 1070 m 743 1516 l 743 1382 l 336 1382 l 336 1516 l 743 1516 z "},"Ǡ":{"ha":1080,"x_min":14,"x_max":1067,"o":"m 14 0 l 348 1010 l 725 1010 l 1067 0 l 752 0 l 637 392 q 566 650 600 519 q 500 915 532 780 l 570 915 q 507 650 539 780 q 437 392 474 519 l 321 0 l 14 0 m 262 178 l 262 390 l 819 390 l 819 178 l 262 178 m 539 1063 q 439 1100 479 1063 q 399 1192 399 1137 q 439 1283 399 1246 q 538 1319 479 1319 q 639 1283 599 1319 q 679 1192 679 1247 q 639 1100 679 1137 q 539 1063 599 1063 m 743 1516 l 743 1382 l 336 1382 l 336 1516 l 743 1516 z "},"Ȁ":{"ha":1080,"x_min":14,"x_max":1067,"o":"m 14 0 l 348 1010 l 725 1010 l 1067 0 l 752 0 l 637 392 q 566 650 600 519 q 500 915 532 780 l 570 915 q 507 650 539 780 q 437 392 474 519 l 321 0 l 14 0 m 262 178 l 262 390 l 819 390 l 819 178 l 262 178 m 593 1099 l 466 1320 l 687 1320 l 772 1099 l 593 1099 m 333 1099 l 140 1320 l 384 1320 l 517 1099 l 333 1099 z "},"Ȃ":{"ha":1080,"x_min":14,"x_max":1067,"o":"m 14 0 l 348 1010 l 725 1010 l 1067 0 l 752 0 l 637 392 q 566 650 600 519 q 500 915 532 780 l 570 915 q 507 650 539 780 q 437 392 474 519 l 321 0 l 14 0 m 262 178 l 262 390 l 819 390 l 819 178 l 262 178 m 539 1325 q 675 1295 615 1325 q 770 1214 734 1265 q 805 1099 805 1163 l 656 1099 q 623 1168 656 1141 q 538 1195 590 1195 q 454 1168 488 1195 q 420 1099 420 1141 l 273 1099 q 308 1214 273 1163 q 403 1295 342 1265 q 539 1325 463 1325 z "},"Ȧ":{"ha":1080,"x_min":14,"x_max":1067,"o":"m 14 0 l 348 1010 l 725 1010 l 1067 0 l 752 0 l 637 392 q 566 650 600 519 q 500 915 532 780 l 570 915 q 507 650 539 780 q 437 392 474 519 l 321 0 l 14 0 m 262 178 l 262 390 l 819 390 l 819 178 l 262 178 m 539 1071 q 439 1107 479 1071 q 399 1199 399 1144 q 439 1290 399 1254 q 538 1326 479 1326 q 639 1290 599 1326 q 679 1199 679 1254 q 639 1107 679 1144 q 539 1071 599 1071 z "},"Ḁ":{"ha":1080,"x_min":14,"x_max":1067,"o":"m 14 0 l 348 1010 l 725 1010 l 1067 0 l 752 0 l 637 392 q 566 650 600 519 q 500 915 532 780 l 570 915 q 507 650 539 780 q 437 392 474 519 l 321 0 l 14 0 m 262 178 l 262 390 l 819 390 l 819 178 l 262 178 m 539 -353 q 449 -332 489 -353 q 385 -276 408 -311 q 362 -195 362 -240 q 385 -115 362 -151 q 449 -58 408 -79 q 539 -38 489 -38 q 630 -59 590 -38 q 693 -115 670 -79 q 717 -195 717 -151 q 693 -276 717 -240 q 630 -332 670 -311 q 539 -353 590 -353 m 539 -260 q 587 -242 568 -260 q 606 -195 606 -223 q 587 -149 606 -168 q 539 -131 568 -131 q 491 -149 511 -131 q 472 -195 472 -168 q 491 -242 472 -223 q 539 -260 511 -260 z "},"Ạ":{"ha":1080,"x_min":14,"x_max":1067,"o":"m 14 0 l 348 1010 l 725 1010 l 1067 0 l 752 0 l 637 392 q 566 650 600 519 q 500 915 532 780 l 570 915 q 507 650 539 780 q 437 392 474 519 l 321 0 l 14 0 m 262 178 l 262 390 l 819 390 l 819 178 l 262 178 m 539 -333 q 439 -296 479 -333 q 399 -205 399 -260 q 439 -114 399 -150 q 538 -77 479 -77 q 639 -114 599 -77 q 679 -205 679 -150 q 639 -296 679 -260 q 539 -333 599 -333 z "},"Ả":{"ha":1080,"x_min":14,"x_max":1067,"o":"m 14 0 l 348 1010 l 725 1010 l 1067 0 l 752 0 l 637 392 q 566 650 600 519 q 500 915 532 780 l 570 915 q 507 650 539 780 q 437 392 474 519 l 321 0 l 14 0 m 262 178 l 262 390 l 819 390 l 819 178 l 262 178 m 609 1099 l 458 1099 l 511 1185 q 511 1188 512 1187 q 508 1190 511 1190 l 391 1190 l 391 1320 l 513 1320 q 621 1302 583 1320 q 670 1256 659 1284 q 674 1196 682 1227 q 643 1139 665 1164 l 609 1099 z "},"Ấ":{"ha":1080,"x_min":14,"x_max":1067,"o":"m 14 0 l 348 1010 l 725 1010 l 1067 0 l 752 0 l 637 392 q 566 650 600 519 q 500 915 532 780 l 570 915 q 507 650 539 780 q 437 392 474 519 l 321 0 l 14 0 m 262 178 l 262 390 l 819 390 l 819 178 l 262 178 m 450 1090 l 243 1090 l 243 1093 l 439 1312 l 635 1312 l 835 1093 l 835 1090 l 627 1090 l 537 1201 l 450 1090 m 636 1346 l 730 1535 l 924 1535 l 779 1346 l 636 1346 z "},"Ầ":{"ha":1080,"x_min":14,"x_max":1067,"o":"m 14 0 l 348 1010 l 725 1010 l 1067 0 l 752 0 l 637 392 q 566 650 600 519 q 500 915 532 780 l 570 915 q 507 650 539 780 q 437 392 474 519 l 321 0 l 14 0 m 262 178 l 262 390 l 819 390 l 819 178 l 262 178 m 450 1090 l 243 1090 l 243 1093 l 439 1312 l 635 1312 l 835 1093 l 835 1090 l 627 1090 l 537 1201 l 450 1090 m 708 1346 l 563 1535 l 757 1535 l 851 1346 l 708 1346 z "},"Ẩ":{"ha":1080,"x_min":14,"x_max":1067,"o":"m 14 0 l 348 1010 l 725 1010 l 1067 0 l 752 0 l 637 392 q 566 650 600 519 q 500 915 532 780 l 570 915 q 507 650 539 780 q 437 392 474 519 l 321 0 l 14 0 m 262 178 l 262 390 l 819 390 l 819 178 l 262 178 m 450 1090 l 243 1090 l 243 1093 l 439 1312 l 635 1312 l 835 1093 l 835 1090 l 627 1090 l 537 1201 l 450 1090 m 760 1346 l 640 1346 l 682 1419 q 682 1422 683 1421 q 680 1423 682 1423 l 586 1423 l 586 1535 l 684 1535 q 788 1508 759 1535 q 815 1446 818 1482 q 788 1380 812 1409 l 760 1346 z "},"Ẫ":{"ha":1080,"x_min":14,"x_max":1067,"o":"m 14 0 l 348 1010 l 725 1010 l 1067 0 l 752 0 l 637 392 q 566 650 600 519 q 500 915 532 780 l 570 915 q 507 650 539 780 q 437 392 474 519 l 321 0 l 14 0 m 262 178 l 262 390 l 819 390 l 819 178 l 262 178 m 450 1090 l 243 1090 l 243 1093 l 439 1312 l 635 1312 l 835 1093 l 835 1090 l 627 1090 l 537 1201 l 450 1090 m 640 1352 q 574 1363 601 1352 q 528 1388 547 1374 q 492 1413 509 1402 q 456 1423 475 1423 q 419 1407 433 1423 q 405 1357 406 1390 l 271 1357 q 320 1496 272 1451 q 438 1541 369 1541 q 504 1531 477 1541 q 551 1507 531 1520 q 588 1483 571 1493 q 622 1473 604 1473 q 662 1490 650 1473 q 675 1537 674 1507 l 808 1537 q 758 1399 806 1447 q 640 1352 709 1352 z "},"Ậ":{"ha":1080,"x_min":14,"x_max":1067,"o":"m 14 0 l 348 1010 l 725 1010 l 1067 0 l 752 0 l 637 392 q 566 650 600 519 q 500 915 532 780 l 570 915 q 507 650 539 780 q 437 392 474 519 l 321 0 l 14 0 m 262 178 l 262 390 l 819 390 l 819 178 l 262 178 m 450 1099 l 243 1099 l 243 1101 l 439 1320 l 635 1320 l 835 1101 l 835 1099 l 627 1099 l 537 1209 l 450 1099 m 539 -333 q 439 -296 479 -333 q 399 -205 399 -260 q 439 -114 399 -150 q 538 -77 479 -77 q 639 -114 599 -77 q 679 -205 679 -150 q 639 -296 679 -260 q 539 -333 599 -333 z "},"Ắ":{"ha":1080,"x_min":14,"x_max":1067,"o":"m 14 0 l 348 1010 l 725 1010 l 1067 0 l 752 0 l 637 392 q 566 650 600 519 q 500 915 532 780 l 570 915 q 507 650 539 780 q 437 392 474 519 l 321 0 l 14 0 m 262 178 l 262 390 l 819 390 l 819 178 l 262 178 m 539 1080 q 403 1110 463 1080 q 308 1192 343 1140 q 273 1306 273 1243 l 420 1306 q 454 1238 420 1265 q 539 1211 488 1211 q 624 1238 590 1211 q 657 1306 657 1265 l 805 1306 q 770 1192 805 1243 q 675 1110 735 1140 q 539 1080 615 1080 m 466 1346 l 560 1535 l 754 1535 l 609 1346 l 466 1346 z "},"Ằ":{"ha":1080,"x_min":14,"x_max":1067,"o":"m 14 0 l 348 1010 l 725 1010 l 1067 0 l 752 0 l 637 392 q 566 650 600 519 q 500 915 532 780 l 570 915 q 507 650 539 780 q 437 392 474 519 l 321 0 l 14 0 m 262 178 l 262 390 l 819 390 l 819 178 l 262 178 m 539 1080 q 403 1110 463 1080 q 308 1192 343 1140 q 273 1306 273 1243 l 421 1306 q 455 1238 421 1265 q 539 1211 488 1211 q 625 1238 591 1211 q 659 1306 659 1265 l 805 1306 q 770 1192 805 1243 q 675 1110 735 1140 q 539 1080 615 1080 m 612 1346 l 469 1346 l 324 1535 l 518 1535 l 612 1346 z "},"Ẳ":{"ha":1080,"x_min":14,"x_max":1067,"o":"m 14 0 l 348 1010 l 725 1010 l 1067 0 l 752 0 l 637 392 q 566 650 600 519 q 500 915 532 780 l 570 915 q 507 650 539 780 q 437 392 474 519 l 321 0 l 14 0 m 262 178 l 262 390 l 819 390 l 819 178 l 262 178 m 539 1080 q 403 1110 463 1080 q 308 1192 343 1140 q 273 1306 273 1243 l 420 1306 q 454 1238 420 1265 q 539 1211 488 1211 q 624 1238 590 1211 q 657 1306 657 1265 l 805 1306 q 770 1192 805 1243 q 675 1110 735 1140 q 539 1080 615 1080 m 595 1346 l 475 1346 l 517 1419 q 517 1422 517 1421 q 515 1423 517 1423 l 421 1423 l 421 1535 l 519 1535 q 623 1508 594 1535 q 649 1446 652 1482 q 623 1380 646 1409 l 595 1346 z "},"Ẵ":{"ha":1080,"x_min":14,"x_max":1067,"o":"m 14 0 l 348 1010 l 725 1010 l 1067 0 l 752 0 l 637 392 q 566 650 600 519 q 500 915 532 780 l 570 915 q 507 650 539 780 q 437 392 474 519 l 321 0 l 14 0 m 262 178 l 262 390 l 819 390 l 819 178 l 262 178 m 535 1085 q 400 1115 459 1085 q 309 1197 342 1145 q 275 1312 275 1249 l 414 1312 q 449 1243 414 1271 q 535 1216 484 1216 q 621 1243 586 1216 q 655 1312 655 1271 l 803 1312 q 767 1197 803 1249 q 671 1115 732 1145 q 535 1085 611 1085 m 646 1353 q 581 1364 608 1353 q 535 1389 554 1375 q 499 1413 515 1402 q 463 1423 482 1423 q 426 1407 439 1423 q 412 1358 413 1390 l 277 1358 q 328 1496 279 1451 q 446 1541 376 1541 q 511 1531 484 1541 q 558 1507 538 1521 q 594 1483 578 1493 q 629 1473 611 1473 q 669 1490 657 1473 q 682 1538 681 1507 l 814 1538 q 764 1400 813 1447 q 646 1353 715 1353 z "},"Ặ":{"ha":1080,"x_min":14,"x_max":1067,"o":"m 14 0 l 348 1010 l 725 1010 l 1067 0 l 752 0 l 637 392 q 566 650 600 519 q 500 915 532 780 l 570 915 q 507 650 539 780 q 437 392 474 519 l 321 0 l 14 0 m 262 178 l 262 390 l 819 390 l 819 178 l 262 178 m 539 1088 q 403 1118 463 1088 q 308 1200 343 1148 q 273 1314 273 1251 l 420 1314 q 454 1246 420 1274 q 539 1219 488 1219 q 624 1246 590 1219 q 657 1314 657 1274 l 805 1314 q 770 1200 805 1251 q 675 1118 735 1148 q 539 1088 615 1088 m 539 -333 q 439 -296 479 -333 q 399 -205 399 -260 q 439 -114 399 -150 q 538 -77 479 -77 q 639 -114 599 -77 q 679 -205 679 -150 q 639 -296 679 -260 q 539 -333 599 -333 z "},"Α":{"ha":1080,"x_min":14,"x_max":1067,"o":"m 14 0 l 348 1010 l 725 1010 l 1067 0 l 752 0 l 637 392 q 566 650 600 519 q 500 915 532 780 l 570 915 q 507 650 539 780 q 437 392 474 519 l 321 0 l 14 0 m 262 178 l 262 390 l 819 390 l 819 178 l 262 178 z "},"Ά":{"ha":1080,"x_min":-15,"x_max":1067,"o":"m 14 0 l 348 1010 l 725 1010 l 1067 0 l 752 0 l 637 392 q 566 650 600 519 q 500 915 532 780 l 570 915 q 507 650 539 780 q 437 392 474 519 l 321 0 l 14 0 m 262 178 l 262 390 l 819 390 l 819 178 l 262 178 m -14 789 l 7 1010 l 235 1010 l 138 789 l -14 789 z "},"Ἀ":{"ha":1107,"x_min":32,"x_max":1094,"o":"m 41 0 l 375 1010 l 752 1010 l 1094 0 l 779 0 l 664 392 q 593 650 627 519 q 528 915 559 780 l 597 915 q 534 650 566 780 q 464 392 501 519 l 349 0 l 41 0 m 290 178 l 290 390 l 846 390 l 846 178 l 290 178 m 60 774 l 52 774 l 52 839 l 66 839 q 118 847 101 839 q 135 874 135 856 q 120 900 135 891 q 76 908 106 908 l 32 908 l 32 1021 l 60 1021 q 203 986 152 1021 q 255 894 255 951 q 203 806 255 838 q 60 774 151 774 z "},"Ἁ":{"ha":1123,"x_min":32,"x_max":1109,"o":"m 56 0 l 391 1010 l 768 1010 l 1109 0 l 795 0 l 680 392 q 608 650 642 519 q 543 915 574 780 l 613 915 q 549 650 582 780 q 479 392 517 519 l 364 0 l 56 0 m 305 178 l 305 390 l 861 390 l 861 178 l 305 178 m 227 766 q 84 798 136 766 q 32 886 32 829 q 83 978 32 943 q 227 1013 135 1013 l 255 1013 l 255 900 l 211 900 q 167 891 182 900 q 152 866 152 883 q 169 839 152 848 q 220 831 186 831 l 235 831 l 235 766 l 227 766 z "},"Ἂ":{"ha":1364,"x_min":32,"x_max":1351,"o":"m 298 0 l 632 1010 l 1009 1010 l 1351 0 l 1036 0 l 921 392 q 850 650 884 519 q 785 915 816 780 l 854 915 q 791 650 823 780 q 721 392 758 519 l 606 0 l 298 0 m 547 178 l 547 390 l 1103 390 l 1103 178 l 547 178 m 60 766 l 52 766 l 52 831 l 66 831 q 118 839 101 831 q 135 866 135 848 q 120 891 135 883 q 76 900 106 900 l 32 900 l 32 1013 l 60 1013 q 203 978 152 1013 q 255 886 255 943 q 203 798 255 829 q 60 766 151 766 m 476 772 l 346 772 l 262 1010 l 457 1010 l 476 772 z "},"Ἃ":{"ha":1405,"x_min":32,"x_max":1392,"o":"m 338 0 l 673 1010 l 1050 1010 l 1392 0 l 1077 0 l 962 392 q 890 650 924 519 q 825 915 857 780 l 895 915 q 831 650 864 780 q 762 392 799 519 l 646 0 l 338 0 m 587 178 l 587 390 l 1143 390 l 1143 178 l 587 178 m 227 766 q 84 798 136 766 q 32 886 32 829 q 83 978 32 943 q 227 1013 135 1013 l 255 1013 l 255 900 l 211 900 q 167 891 182 900 q 152 866 152 883 q 169 839 152 848 q 220 831 186 831 l 235 831 l 235 766 l 227 766 m 505 772 l 375 772 l 292 1010 l 486 1010 l 505 772 z "},"Ἄ":{"ha":1375,"x_min":32,"x_max":1362,"o":"m 309 0 l 643 1010 l 1020 1010 l 1362 0 l 1047 0 l 932 392 q 861 650 895 519 q 795 915 827 780 l 865 915 q 802 650 834 780 q 732 392 769 519 l 616 0 l 309 0 m 557 178 l 557 390 l 1114 390 l 1114 178 l 557 178 m 60 766 l 52 766 l 52 831 l 66 831 q 118 839 101 831 q 135 866 135 848 q 120 891 135 883 q 76 900 106 900 l 32 900 l 32 1013 l 60 1013 q 203 978 152 1013 q 255 886 255 943 q 203 798 255 829 q 60 766 151 766 m 320 772 l 338 1010 l 534 1010 l 450 772 l 320 772 z "},"Ἅ":{"ha":1405,"x_min":32,"x_max":1391,"o":"m 338 0 l 673 1010 l 1050 1010 l 1392 0 l 1077 0 l 962 392 q 890 650 924 519 q 825 915 857 780 l 895 915 q 831 650 864 780 q 762 392 799 519 l 646 0 l 338 0 m 587 178 l 587 390 l 1143 390 l 1143 178 l 587 178 m 227 766 q 84 798 136 766 q 32 886 32 829 q 83 978 32 943 q 227 1013 135 1013 l 255 1013 l 255 900 l 211 900 q 167 891 182 900 q 152 866 152 883 q 169 839 152 848 q 220 831 186 831 l 235 831 l 235 766 l 227 766 m 345 772 l 363 1010 l 557 1010 l 474 772 l 345 772 z "},"Ἆ":{"ha":1251,"x_min":32,"x_max":1237,"o":"m 184 0 l 519 1010 l 896 1010 l 1238 0 l 923 0 l 808 392 q 736 650 770 519 q 671 915 703 780 l 741 915 q 677 650 710 780 q 608 392 645 519 l 492 0 l 184 0 m 433 178 l 433 390 l 989 390 l 989 178 l 433 178 m 203 777 l 194 777 l 194 842 l 209 842 q 260 850 243 842 q 277 877 277 859 q 262 902 277 894 q 218 911 248 911 l 174 911 l 174 1023 l 203 1023 q 346 988 294 1023 q 397 897 397 954 q 346 809 397 840 q 203 777 294 777 m 380 1077 q 319 1088 344 1077 q 275 1113 294 1099 q 241 1139 257 1128 q 208 1150 225 1150 q 173 1133 185 1150 q 159 1082 160 1115 l 32 1082 q 79 1225 34 1178 q 191 1272 125 1272 q 252 1261 227 1272 q 297 1237 278 1251 q 332 1212 316 1223 q 364 1201 347 1201 q 402 1219 391 1201 q 414 1268 413 1236 l 539 1268 q 492 1125 538 1174 q 380 1077 446 1077 z "},"Ἇ":{"ha":1274,"x_min":32,"x_max":1260,"o":"m 208 0 l 542 1010 l 919 1010 l 1261 0 l 946 0 l 831 392 q 760 650 793 519 q 694 915 726 780 l 764 915 q 701 650 733 780 q 631 392 668 519 l 515 0 l 208 0 m 456 178 l 456 390 l 1013 390 l 1013 178 l 456 178 m 369 764 q 226 796 278 764 q 174 884 174 827 q 226 976 174 941 q 369 1010 277 1010 l 397 1010 l 397 898 l 353 898 q 309 889 323 898 q 294 864 294 881 q 311 838 294 846 q 363 829 328 829 l 378 829 l 378 764 l 369 764 m 380 1064 q 319 1075 344 1064 q 275 1100 294 1086 q 241 1126 257 1115 q 208 1137 225 1137 q 173 1120 185 1137 q 159 1069 160 1102 l 32 1069 q 79 1212 34 1165 q 191 1259 125 1259 q 252 1249 227 1259 q 297 1224 278 1238 q 332 1199 316 1210 q 364 1188 347 1188 q 402 1206 391 1188 q 414 1255 413 1223 l 539 1255 q 492 1113 538 1161 q 380 1064 446 1064 z "},"Ᾰ":{"ha":1080,"x_min":14,"x_max":1067,"o":"m 14 0 l 348 1010 l 725 1010 l 1067 0 l 752 0 l 637 392 q 566 650 600 519 q 500 915 532 780 l 570 915 q 507 650 539 780 q 437 392 474 519 l 321 0 l 14 0 m 262 178 l 262 390 l 819 390 l 819 178 l 262 178 m 539 1088 q 403 1118 463 1088 q 308 1200 343 1148 q 273 1314 273 1251 l 420 1314 q 454 1246 420 1274 q 539 1219 488 1219 q 624 1246 590 1219 q 657 1314 657 1274 l 805 1314 q 770 1200 805 1251 q 675 1118 735 1148 q 539 1088 615 1088 z "},"Ᾱ":{"ha":1080,"x_min":14,"x_max":1067,"o":"m 14 0 l 348 1010 l 725 1010 l 1067 0 l 752 0 l 637 392 q 566 650 600 519 q 500 915 532 780 l 570 915 q 507 650 539 780 q 437 392 474 519 l 321 0 l 14 0 m 262 178 l 262 390 l 819 390 l 819 178 l 262 178 m 743 1278 l 743 1121 l 336 1121 l 336 1278 l 743 1278 z "},"Ὰ":{"ha":1080,"x_min":-95,"x_max":1067,"o":"m 14 0 l 348 1010 l 725 1010 l 1067 0 l 752 0 l 637 392 q 566 650 600 519 q 500 915 532 780 l 570 915 q 507 650 539 780 q 437 392 474 519 l 321 0 l 14 0 m 262 178 l 262 390 l 819 390 l 819 178 l 262 178 m 155 823 l 3 823 l -95 1044 l 133 1044 l 155 823 z "},"Ⱥ":{"ha":1080,"x_min":14,"x_max":1067,"o":"m 768 1138 l 386 -129 l 333 -129 l 715 1138 l 768 1138 m 14 0 l 348 1010 l 725 1010 l 1067 0 l 752 0 l 637 392 q 566 650 600 519 q 500 915 532 780 l 570 915 q 507 650 539 780 q 437 392 474 519 l 321 0 l 14 0 m 262 178 l 262 390 l 819 390 l 819 178 l 262 178 z "},"Ά":{"ha":1127,"x_min":32,"x_max":1113,"o":"m 60 0 l 395 1010 l 772 1010 l 1114 0 l 799 0 l 684 392 q 612 650 646 519 q 547 915 578 780 l 617 915 q 553 650 586 780 q 484 392 521 519 l 368 0 l 60 0 m 309 178 l 309 390 l 865 390 l 865 178 l 309 178 m 32 789 l 54 1010 l 281 1010 l 184 789 l 32 789 z "},"А":{"ha":1080,"x_min":14,"x_max":1067,"o":"m 14 0 l 348 1010 l 725 1010 l 1067 0 l 752 0 l 637 392 q 566 650 600 519 q 500 915 532 780 l 570 915 q 507 650 539 780 q 437 392 474 519 l 321 0 l 14 0 m 262 178 l 262 390 l 819 390 l 819 178 l 262 178 z "},"Ӑ":{"ha":1080,"x_min":14,"x_max":1067,"o":"m 14 0 l 348 1010 l 725 1010 l 1067 0 l 752 0 l 637 392 q 566 650 600 519 q 500 915 532 780 l 570 915 q 507 650 539 780 q 437 392 474 519 l 321 0 l 14 0 m 262 178 l 262 390 l 819 390 l 819 178 l 262 178 m 539 1088 q 403 1118 463 1088 q 308 1200 343 1148 q 273 1314 273 1251 l 420 1314 q 454 1246 420 1274 q 539 1219 488 1219 q 624 1246 590 1219 q 657 1314 657 1274 l 805 1314 q 770 1200 805 1251 q 675 1118 735 1148 q 539 1088 615 1088 z "},"Ӓ":{"ha":1080,"x_min":14,"x_max":1067,"o":"m 14 0 l 348 1010 l 725 1010 l 1067 0 l 752 0 l 637 392 q 566 650 600 519 q 500 915 532 780 l 570 915 q 507 650 539 780 q 437 392 474 519 l 321 0 l 14 0 m 262 178 l 262 390 l 819 390 l 819 178 l 262 178 m 697 1078 q 605 1113 642 1078 q 568 1200 568 1148 q 605 1287 568 1253 q 697 1322 642 1322 q 789 1287 752 1322 q 826 1200 826 1253 q 789 1113 826 1147 q 697 1078 752 1078 m 381 1078 q 290 1113 326 1078 q 253 1200 253 1148 q 290 1287 253 1253 q 381 1322 326 1322 q 473 1287 437 1322 q 510 1200 510 1253 q 473 1113 510 1147 q 381 1078 437 1078 z "},"ᾈ":{"ha":1107,"x_min":32,"x_max":1094,"o":"m 41 0 l 375 1010 l 752 1010 l 1094 0 l 779 0 l 664 392 q 593 650 627 519 q 528 915 559 780 l 597 915 q 534 650 566 780 q 464 392 501 519 l 349 0 l 41 0 m 290 178 l 290 390 l 846 390 l 846 178 l 290 178 m 616 -319 q 509 -281 546 -319 q 473 -182 473 -244 l 473 -80 l 660 -80 l 660 -165 q 667 -191 660 -183 q 698 -199 675 -199 q 712 -199 703 -199 q 734 -199 722 -199 l 734 -314 q 675 -317 708 -316 q 616 -319 643 -319 m 60 774 l 52 774 l 52 839 l 66 839 q 118 847 101 839 q 135 874 135 856 q 120 900 135 891 q 76 908 106 908 l 32 908 l 32 1021 l 60 1021 q 203 986 152 1021 q 255 894 255 951 q 203 806 255 838 q 60 774 151 774 z "},"ᾉ":{"ha":1123,"x_min":32,"x_max":1109,"o":"m 56 0 l 391 1010 l 768 1010 l 1109 0 l 795 0 l 680 392 q 608 650 642 519 q 543 915 574 780 l 613 915 q 549 650 582 780 q 479 392 517 519 l 364 0 l 56 0 m 305 178 l 305 390 l 861 390 l 861 178 l 305 178 m 631 -319 q 525 -281 562 -319 q 488 -182 488 -244 l 488 -80 l 675 -80 l 675 -165 q 683 -191 675 -183 q 713 -199 690 -199 q 728 -199 719 -199 q 749 -199 737 -199 l 749 -314 q 691 -317 724 -316 q 631 -319 659 -319 m 227 766 q 84 798 136 766 q 32 886 32 829 q 83 978 32 943 q 227 1013 135 1013 l 255 1013 l 255 900 l 211 900 q 167 891 182 900 q 152 866 152 883 q 169 839 152 848 q 220 831 186 831 l 235 831 l 235 766 l 227 766 z "},"ᾊ":{"ha":1364,"x_min":32,"x_max":1351,"o":"m 298 0 l 632 1010 l 1009 1010 l 1351 0 l 1036 0 l 921 392 q 850 650 884 519 q 785 915 816 780 l 854 915 q 791 650 823 780 q 721 392 758 519 l 606 0 l 298 0 m 547 178 l 547 390 l 1103 390 l 1103 178 l 547 178 m 873 -319 q 766 -281 803 -319 q 730 -182 730 -244 l 730 -80 l 917 -80 l 917 -165 q 924 -191 917 -183 q 955 -199 932 -199 q 969 -199 960 -199 q 991 -199 979 -199 l 991 -314 q 932 -317 965 -316 q 873 -319 900 -319 m 60 766 l 52 766 l 52 831 l 66 831 q 118 839 101 831 q 135 866 135 848 q 120 891 135 883 q 76 900 106 900 l 32 900 l 32 1013 l 60 1013 q 203 978 152 1013 q 255 886 255 943 q 203 798 255 829 q 60 766 151 766 m 476 772 l 346 772 l 262 1010 l 457 1010 l 476 772 z "},"ᾋ":{"ha":1405,"x_min":32,"x_max":1392,"o":"m 338 0 l 673 1010 l 1050 1010 l 1392 0 l 1077 0 l 962 392 q 890 650 924 519 q 825 915 857 780 l 895 915 q 831 650 864 780 q 762 392 799 519 l 646 0 l 338 0 m 587 178 l 587 390 l 1143 390 l 1143 178 l 587 178 m 913 -319 q 807 -281 844 -319 q 770 -182 770 -244 l 770 -80 l 958 -80 l 958 -165 q 965 -191 958 -183 q 996 -199 972 -199 q 1010 -199 1001 -199 q 1031 -199 1019 -199 l 1031 -314 q 973 -317 1006 -316 q 913 -319 941 -319 m 227 766 q 84 798 136 766 q 32 886 32 829 q 83 978 32 943 q 227 1013 135 1013 l 255 1013 l 255 900 l 211 900 q 167 891 182 900 q 152 866 152 883 q 169 839 152 848 q 220 831 186 831 l 235 831 l 235 766 l 227 766 m 505 772 l 375 772 l 292 1010 l 486 1010 l 505 772 z "},"ᾌ":{"ha":1375,"x_min":32,"x_max":1362,"o":"m 309 0 l 643 1010 l 1020 1010 l 1362 0 l 1047 0 l 932 392 q 861 650 895 519 q 795 915 827 780 l 865 915 q 802 650 834 780 q 732 392 769 519 l 616 0 l 309 0 m 557 178 l 557 390 l 1114 390 l 1114 178 l 557 178 m 60 766 l 52 766 l 52 831 l 66 831 q 118 839 101 831 q 135 866 135 848 q 120 891 135 883 q 76 900 106 900 l 32 900 l 32 1013 l 60 1013 q 203 978 152 1013 q 255 886 255 943 q 203 798 255 829 q 60 766 151 766 m 320 772 l 338 1010 l 534 1010 l 450 772 l 320 772 m 884 -319 q 777 -281 814 -319 q 741 -182 741 -244 l 741 -80 l 928 -80 l 928 -165 q 935 -191 928 -183 q 966 -199 943 -199 q 980 -199 971 -199 q 1002 -199 989 -199 l 1002 -314 q 943 -317 976 -316 q 884 -319 911 -319 z "},"ᾍ":{"ha":1405,"x_min":32,"x_max":1391,"o":"m 338 0 l 673 1010 l 1050 1010 l 1392 0 l 1077 0 l 962 392 q 890 650 924 519 q 825 915 857 780 l 895 915 q 831 650 864 780 q 762 392 799 519 l 646 0 l 338 0 m 587 178 l 587 390 l 1143 390 l 1143 178 l 587 178 m 913 -319 q 806 -281 843 -319 q 770 -182 770 -244 l 770 -80 l 957 -80 l 957 -165 q 964 -191 957 -183 q 995 -199 972 -199 q 1009 -199 1000 -199 q 1031 -199 1019 -199 l 1031 -314 q 972 -317 1005 -316 q 913 -319 940 -319 m 227 766 q 84 798 136 766 q 32 886 32 829 q 83 978 32 943 q 227 1013 135 1013 l 255 1013 l 255 900 l 211 900 q 167 891 182 900 q 152 866 152 883 q 169 839 152 848 q 220 831 186 831 l 235 831 l 235 766 l 227 766 m 345 772 l 363 1010 l 557 1010 l 474 772 l 345 772 z "},"ᾎ":{"ha":1251,"x_min":32,"x_max":1237,"o":"m 184 0 l 519 1010 l 896 1010 l 1238 0 l 923 0 l 808 392 q 736 650 770 519 q 671 915 703 780 l 741 915 q 677 650 710 780 q 608 392 645 519 l 492 0 l 184 0 m 433 178 l 433 390 l 989 390 l 989 178 l 433 178 m 203 777 l 194 777 l 194 842 l 209 842 q 260 850 243 842 q 277 877 277 859 q 262 902 277 894 q 218 911 248 911 l 174 911 l 174 1023 l 203 1023 q 346 988 294 1023 q 397 897 397 954 q 346 809 397 840 q 203 777 294 777 m 380 1077 q 319 1088 344 1077 q 275 1113 294 1099 q 241 1139 257 1128 q 208 1150 225 1150 q 173 1133 185 1150 q 159 1082 160 1115 l 32 1082 q 79 1225 34 1178 q 191 1272 125 1272 q 252 1261 227 1272 q 297 1237 278 1251 q 332 1212 316 1223 q 364 1201 347 1201 q 402 1219 391 1201 q 414 1268 413 1236 l 539 1268 q 492 1125 538 1174 q 380 1077 446 1077 m 760 -319 q 653 -281 690 -319 q 616 -182 616 -244 l 616 -80 l 804 -80 l 804 -165 q 811 -191 804 -183 q 842 -199 819 -199 q 856 -199 847 -199 q 878 -199 865 -199 l 878 -314 q 819 -317 852 -316 q 760 -319 787 -319 z "},"ᾏ":{"ha":1274,"x_min":32,"x_max":1260,"o":"m 208 0 l 542 1010 l 919 1010 l 1261 0 l 946 0 l 831 392 q 760 650 793 519 q 694 915 726 780 l 764 915 q 701 650 733 780 q 631 392 668 519 l 515 0 l 208 0 m 456 178 l 456 390 l 1013 390 l 1013 178 l 456 178 m 783 -319 q 676 -281 713 -319 q 640 -182 640 -244 l 640 -80 l 827 -80 l 827 -165 q 834 -191 827 -183 q 865 -199 842 -199 q 879 -199 870 -199 q 901 -199 888 -199 l 901 -314 q 842 -317 875 -316 q 783 -319 810 -319 m 369 764 q 226 796 278 764 q 174 884 174 827 q 226 976 174 941 q 369 1010 277 1010 l 397 1010 l 397 898 l 353 898 q 309 889 323 898 q 294 864 294 881 q 311 838 294 846 q 363 829 328 829 l 378 829 l 378 764 l 369 764 m 380 1064 q 319 1075 344 1064 q 275 1100 294 1086 q 241 1126 257 1115 q 208 1137 225 1137 q 173 1120 185 1137 q 159 1069 160 1102 l 32 1069 q 79 1212 34 1165 q 191 1259 125 1259 q 252 1249 227 1259 q 297 1224 278 1238 q 332 1199 316 1210 q 364 1188 347 1188 q 402 1206 391 1188 q 414 1255 413 1223 l 539 1255 q 492 1113 538 1161 q 380 1064 446 1064 z "},"ᾼ":{"ha":1080,"x_min":14,"x_max":1067,"o":"m 14 0 l 348 1010 l 725 1010 l 1067 0 l 752 0 l 637 392 q 566 650 600 519 q 500 915 532 780 l 570 915 q 507 650 539 780 q 437 392 474 519 l 321 0 l 14 0 m 262 178 l 262 390 l 819 390 l 819 178 l 262 178 m 589 -319 q 482 -281 519 -319 q 446 -182 446 -244 l 446 -80 l 633 -80 l 633 -165 q 640 -191 633 -183 q 671 -199 648 -199 q 685 -199 676 -199 q 707 -199 694 -199 l 707 -314 q 648 -317 681 -316 q 589 -319 616 -319 z "},"Λ":{"ha":1080,"x_min":14,"x_max":1067,"o":"m 14 0 l 348 1010 l 725 1010 l 1067 0 l 752 0 l 637 392 q 566 650 600 519 q 500 915 532 780 l 570 915 q 507 650 539 780 q 437 392 474 519 l 321 0 l 14 0 z "},"Æ":{"ha":1463,"x_min":14,"x_max":1415,"o":"m 14 0 l 408 1010 l 1415 1010 l 1415 780 l 935 780 l 935 619 l 1377 619 l 1377 395 l 935 395 l 935 231 l 1413 231 l 1413 0 l 668 0 l 668 802 l 604 802 l 309 0 l 14 0 m 256 196 l 256 391 l 777 391 l 777 196 l 256 196 z "},"Ǣ":{"ha":1463,"x_min":14,"x_max":1415,"o":"m 14 0 l 408 1010 l 1415 1010 l 1415 780 l 935 780 l 935 619 l 1377 619 l 1377 395 l 935 395 l 935 231 l 1413 231 l 1413 0 l 668 0 l 668 802 l 604 802 l 309 0 l 14 0 m 256 196 l 256 391 l 777 391 l 777 196 l 256 196 m 1124 1278 l 1124 1121 l 717 1121 l 717 1278 l 1124 1278 z "},"Ǽ":{"ha":1463,"x_min":14,"x_max":1415,"o":"m 14 0 l 408 1010 l 1415 1010 l 1415 780 l 935 780 l 935 619 l 1377 619 l 1377 395 l 935 395 l 935 231 l 1413 231 l 1413 0 l 668 0 l 668 802 l 604 802 l 309 0 l 14 0 m 256 196 l 256 391 l 777 391 l 777 196 l 256 196 m 822 1099 l 940 1320 l 1182 1320 l 1001 1099 l 822 1099 z "},"Ӕ":{"ha":1463,"x_min":14,"x_max":1415,"o":"m 14 0 l 408 1010 l 1415 1010 l 1415 780 l 935 780 l 935 619 l 1377 619 l 1377 395 l 935 395 l 935 231 l 1413 231 l 1413 0 l 668 0 l 668 802 l 604 802 l 309 0 l 14 0 m 256 196 l 256 391 l 777 391 l 777 196 l 256 196 z "},"B":{"ha":913,"x_min":59,"x_max":886,"o":"m 59 0 l 59 1010 l 497 1010 q 691 979 612 1010 q 810 890 770 947 q 850 758 850 833 q 825 654 850 701 q 757 577 801 608 q 654 534 713 546 l 654 529 q 772 496 720 527 q 856 411 825 465 q 886 286 886 357 q 844 139 886 203 q 724 37 802 74 q 535 0 645 0 l 59 0 m 333 214 l 473 214 q 565 241 532 214 q 597 316 597 269 q 583 372 597 349 q 540 408 568 395 q 475 420 513 420 l 333 420 l 333 214 m 333 607 l 456 607 q 515 618 490 607 q 554 651 540 629 q 568 702 568 672 q 537 771 568 746 q 458 797 507 797 l 333 797 l 333 607 z "},"Ḃ":{"ha":913,"x_min":59,"x_max":886,"o":"m 59 0 l 59 1010 l 497 1010 q 691 979 612 1010 q 810 890 770 947 q 850 758 850 833 q 825 654 850 701 q 757 577 801 608 q 654 534 713 546 l 654 529 q 772 496 720 527 q 856 411 825 465 q 886 286 886 357 q 844 139 886 203 q 724 37 802 74 q 535 0 645 0 l 59 0 m 333 214 l 473 214 q 565 241 532 214 q 597 316 597 269 q 583 372 597 349 q 540 408 568 395 q 475 420 513 420 l 333 420 l 333 214 m 333 607 l 456 607 q 515 618 490 607 q 554 651 540 629 q 568 702 568 672 q 537 771 568 746 q 458 797 507 797 l 333 797 l 333 607 m 446 1071 q 345 1107 385 1071 q 305 1199 305 1144 q 345 1290 305 1254 q 445 1326 385 1326 q 545 1290 505 1326 q 585 1199 585 1254 q 545 1107 585 1144 q 446 1071 505 1071 z "},"Ḅ":{"ha":913,"x_min":59,"x_max":886,"o":"m 59 0 l 59 1010 l 497 1010 q 691 979 612 1010 q 810 890 770 947 q 850 758 850 833 q 825 654 850 701 q 757 577 801 608 q 654 534 713 546 l 654 529 q 772 496 720 527 q 856 411 825 465 q 886 286 886 357 q 844 139 886 203 q 724 37 802 74 q 535 0 645 0 l 59 0 m 333 214 l 473 214 q 565 241 532 214 q 597 316 597 269 q 583 372 597 349 q 540 408 568 395 q 475 420 513 420 l 333 420 l 333 214 m 333 607 l 456 607 q 515 618 490 607 q 554 651 540 629 q 568 702 568 672 q 537 771 568 746 q 458 797 507 797 l 333 797 l 333 607 m 444 -333 q 344 -296 384 -333 q 304 -205 304 -260 q 344 -114 304 -150 q 444 -77 384 -77 q 544 -114 504 -77 q 584 -205 584 -150 q 544 -296 584 -260 q 444 -333 504 -333 z "},"Ḇ":{"ha":913,"x_min":59,"x_max":886,"o":"m 59 0 l 59 1010 l 497 1010 q 691 979 612 1010 q 810 890 770 947 q 850 758 850 833 q 825 654 850 701 q 757 577 801 608 q 654 534 713 546 l 654 529 q 772 496 720 527 q 856 411 825 465 q 886 286 886 357 q 844 139 886 203 q 724 37 802 74 q 535 0 645 0 l 59 0 m 333 214 l 473 214 q 565 241 532 214 q 597 316 597 269 q 583 372 597 349 q 540 408 568 395 q 475 420 513 420 l 333 420 l 333 214 m 333 607 l 456 607 q 515 618 490 607 q 554 651 540 629 q 568 702 568 672 q 537 771 568 746 q 458 797 507 797 l 333 797 l 333 607 m 648 -106 l 648 -264 l 241 -264 l 241 -106 l 648 -106 z "},"Ƀ":{"ha":960,"x_min":8,"x_max":933,"o":"m 106 0 l 106 1010 l 544 1010 q 738 979 659 1010 q 857 890 817 947 q 897 758 897 833 q 872 654 897 701 q 804 577 848 608 q 701 534 760 546 l 701 529 q 819 496 766 527 q 902 411 871 465 q 933 286 933 357 q 891 139 933 203 q 770 37 849 74 q 582 0 692 0 l 106 0 m 380 214 l 520 214 q 612 241 579 214 q 644 316 644 269 q 629 372 644 349 q 587 408 614 395 q 522 420 559 420 l 380 420 l 380 214 m 380 607 l 503 607 q 562 618 536 607 q 601 651 587 629 q 614 702 614 672 q 584 771 614 746 q 505 797 554 797 l 380 797 l 380 607 m 8 273 l 8 361 l 514 361 l 514 273 l 8 273 z "},"Ɓ":{"ha":1239,"x_min":20,"x_max":1212,"o":"m 20 692 l 20 759 q 88 944 20 878 q 293 1010 155 1010 l 385 1010 l 385 784 l 345 784 q 294 769 311 784 q 277 726 277 754 l 277 692 l 20 692 m 385 0 l 385 1010 l 823 1010 q 1017 979 938 1010 q 1135 890 1095 947 q 1175 758 1175 833 q 1151 654 1175 701 q 1083 577 1126 608 q 980 534 1039 546 l 980 529 q 1098 496 1045 527 q 1181 411 1150 465 q 1212 286 1212 357 q 1170 139 1212 203 q 1049 37 1128 74 q 861 0 970 0 l 385 0 m 659 214 l 799 214 q 890 241 858 214 q 923 316 923 269 q 908 372 923 349 q 866 408 893 395 q 800 420 838 420 l 659 420 l 659 214 m 659 607 l 782 607 q 840 618 815 607 q 879 651 865 629 q 893 702 893 672 q 863 771 893 746 q 784 797 833 797 l 659 797 l 659 607 z "},"В":{"ha":913,"x_min":59,"x_max":886,"o":"m 59 0 l 59 1010 l 497 1010 q 691 979 612 1010 q 810 890 770 947 q 850 758 850 833 q 825 654 850 701 q 757 577 801 608 q 654 534 713 546 l 654 529 q 772 496 720 527 q 856 411 825 465 q 886 286 886 357 q 844 139 886 203 q 724 37 802 74 q 535 0 645 0 l 59 0 m 333 214 l 473 214 q 565 241 532 214 q 597 316 597 269 q 583 372 597 349 q 540 408 568 395 q 475 420 513 420 l 333 420 l 333 214 m 333 607 l 456 607 q 515 618 490 607 q 554 651 540 629 q 568 702 568 672 q 537 771 568 746 q 458 797 507 797 l 333 797 l 333 607 z "},"Β":{"ha":913,"x_min":59,"x_max":886,"o":"m 59 0 l 59 1010 l 497 1010 q 691 979 612 1010 q 810 890 770 947 q 850 758 850 833 q 825 654 850 701 q 757 577 801 608 q 654 534 713 546 l 654 529 q 772 496 720 527 q 856 411 825 465 q 886 286 886 357 q 844 139 886 203 q 724 37 802 74 q 535 0 645 0 l 59 0 m 333 214 l 473 214 q 565 241 532 214 q 597 316 597 269 q 583 372 597 349 q 540 408 568 395 q 475 420 513 420 l 333 420 l 333 214 m 333 607 l 456 607 q 515 618 490 607 q 554 651 540 629 q 568 702 568 672 q 537 771 568 746 q 458 797 507 797 l 333 797 l 333 607 z "},"C":{"ha":1024,"x_min":36,"x_max":990,"o":"m 526 -15 q 276 45 387 -15 q 101 221 165 105 q 36 505 36 337 q 101 790 36 673 q 277 966 166 906 q 526 1025 389 1025 q 702 998 621 1025 q 843 921 783 971 q 942 798 904 870 q 990 635 980 725 l 709 635 q 689 697 703 669 q 652 744 675 724 q 599 773 629 763 q 532 784 569 784 q 416 751 463 784 q 345 655 369 718 q 320 505 320 593 q 345 352 320 414 q 416 258 369 290 q 532 227 463 227 q 598 237 568 227 q 651 267 628 247 q 689 314 674 286 q 709 375 703 341 l 990 375 q 947 226 982 296 q 853 102 913 156 q 711 16 793 47 q 526 -15 629 -15 z "},"Ƈ":{"ha":1024,"x_min":36,"x_max":1141,"o":"m 720 635 l 720 890 q 788 1081 720 1017 q 1000 1144 857 1144 q 1078 1142 1042 1144 q 1141 1137 1115 1140 l 1141 936 q 1102 938 1124 937 q 1055 939 1080 939 q 1005 925 1021 939 q 990 882 990 911 l 990 635 l 720 635 m 526 -15 q 276 45 387 -15 q 101 221 165 105 q 36 505 36 337 q 101 790 36 673 q 277 966 166 906 q 526 1025 389 1025 q 702 998 621 1025 q 843 921 783 971 q 942 798 904 870 q 990 635 980 725 l 709 635 q 689 697 703 669 q 652 744 675 724 q 599 773 629 763 q 532 784 569 784 q 416 751 463 784 q 345 655 369 718 q 320 505 320 593 q 345 352 320 414 q 416 258 369 290 q 532 227 463 227 q 598 237 568 227 q 651 267 628 247 q 689 314 674 286 q 709 375 703 341 l 990 375 q 947 226 982 296 q 853 102 913 156 q 711 16 793 47 q 526 -15 629 -15 z "},"Ç":{"ha":1024,"x_min":36,"x_max":990,"o":"m 526 -15 q 276 45 387 -15 q 101 221 165 105 q 36 505 36 337 q 101 790 36 673 q 277 966 166 906 q 526 1025 389 1025 q 702 998 621 1025 q 843 921 783 971 q 942 798 904 870 q 990 635 980 725 l 709 635 q 689 697 703 669 q 652 744 675 724 q 599 773 629 763 q 532 784 569 784 q 416 751 463 784 q 345 655 369 718 q 320 505 320 593 q 345 352 320 414 q 416 258 369 290 q 532 227 463 227 q 598 237 568 227 q 651 267 628 247 q 689 314 674 286 q 709 375 703 341 l 990 375 q 947 226 982 296 q 853 102 913 156 q 711 16 793 47 q 526 -15 629 -15 m 421 -279 l 421 -188 l 507 -188 q 548 -178 534 -188 q 561 -150 561 -169 q 548 -122 561 -131 q 507 -113 534 -113 l 445 -113 l 473 31 l 565 31 l 565 4 l 562 -51 q 660 -78 624 -47 q 695 -160 695 -109 q 653 -250 695 -220 q 528 -279 612 -279 l 421 -279 z "},"Ć":{"ha":1024,"x_min":36,"x_max":990,"o":"m 526 -15 q 276 45 387 -15 q 101 221 165 105 q 36 505 36 337 q 101 790 36 673 q 277 966 166 906 q 526 1025 389 1025 q 702 998 621 1025 q 843 921 783 971 q 942 798 904 870 q 990 635 980 725 l 709 635 q 689 697 703 669 q 652 744 675 724 q 599 773 629 763 q 532 784 569 784 q 416 751 463 784 q 345 655 369 718 q 320 505 320 593 q 345 352 320 414 q 416 258 369 290 q 532 227 463 227 q 598 237 568 227 q 651 267 628 247 q 689 314 674 286 q 709 375 703 341 l 990 375 q 947 226 982 296 q 853 102 913 156 q 711 16 793 47 q 526 -15 629 -15 m 425 1099 l 543 1320 l 785 1320 l 604 1099 l 425 1099 z "},"Ĉ":{"ha":1024,"x_min":36,"x_max":990,"o":"m 526 -15 q 276 45 387 -15 q 101 221 165 105 q 36 505 36 337 q 101 790 36 673 q 277 966 166 906 q 526 1025 389 1025 q 702 998 621 1025 q 843 921 783 971 q 942 798 904 870 q 990 635 980 725 l 709 635 q 689 697 703 669 q 652 744 675 724 q 599 773 629 763 q 532 784 569 784 q 416 751 463 784 q 345 655 369 718 q 320 505 320 593 q 345 352 320 414 q 416 258 369 290 q 532 227 463 227 q 598 237 568 227 q 651 267 628 247 q 689 314 674 286 q 709 375 703 341 l 990 375 q 947 226 982 296 q 853 102 913 156 q 711 16 793 47 q 526 -15 629 -15 m 435 1099 l 227 1099 l 227 1101 l 424 1320 l 620 1320 l 819 1101 l 819 1099 l 612 1099 l 522 1209 l 435 1099 z "},"Ċ":{"ha":1024,"x_min":36,"x_max":990,"o":"m 526 -15 q 276 45 387 -15 q 101 221 165 105 q 36 505 36 337 q 101 790 36 673 q 277 966 166 906 q 526 1025 389 1025 q 702 998 621 1025 q 843 921 783 971 q 942 798 904 870 q 990 635 980 725 l 709 635 q 689 697 703 669 q 652 744 675 724 q 599 773 629 763 q 532 784 569 784 q 416 751 463 784 q 345 655 369 718 q 320 505 320 593 q 345 352 320 414 q 416 258 369 290 q 532 227 463 227 q 598 237 568 227 q 651 267 628 247 q 689 314 674 286 q 709 375 703 341 l 990 375 q 947 226 982 296 q 853 102 913 156 q 711 16 793 47 q 526 -15 629 -15 m 523 1071 q 422 1107 463 1071 q 382 1199 382 1144 q 422 1290 382 1254 q 522 1326 463 1326 q 623 1290 583 1326 q 663 1199 663 1254 q 623 1107 663 1144 q 523 1071 583 1071 z "},"Č":{"ha":1024,"x_min":36,"x_max":990,"o":"m 526 -15 q 276 45 387 -15 q 101 221 165 105 q 36 505 36 337 q 101 790 36 673 q 277 966 166 906 q 526 1025 389 1025 q 702 998 621 1025 q 843 921 783 971 q 942 798 904 870 q 990 635 980 725 l 709 635 q 689 697 703 669 q 652 744 675 724 q 599 773 629 763 q 532 784 569 784 q 416 751 463 784 q 345 655 369 718 q 320 505 320 593 q 345 352 320 414 q 416 258 369 290 q 532 227 463 227 q 598 237 568 227 q 651 267 628 247 q 689 314 674 286 q 709 375 703 341 l 990 375 q 947 226 982 296 q 853 102 913 156 q 711 16 793 47 q 526 -15 629 -15 m 435 1320 l 522 1210 l 612 1320 l 819 1320 l 819 1318 l 620 1099 l 424 1099 l 227 1318 l 227 1320 l 435 1320 z "},"Ḉ":{"ha":1024,"x_min":36,"x_max":990,"o":"m 526 -15 q 276 45 387 -15 q 101 221 165 105 q 36 505 36 337 q 101 790 36 673 q 277 966 166 906 q 526 1025 389 1025 q 702 998 621 1025 q 843 921 783 971 q 942 798 904 870 q 990 635 980 725 l 709 635 q 689 697 703 669 q 652 744 675 724 q 599 773 629 763 q 532 784 569 784 q 416 751 463 784 q 345 655 369 718 q 320 505 320 593 q 345 352 320 414 q 416 258 369 290 q 532 227 463 227 q 598 237 568 227 q 651 267 628 247 q 689 314 674 286 q 709 375 703 341 l 990 375 q 947 226 982 296 q 853 102 913 156 q 711 16 793 47 q 526 -15 629 -15 m 421 -279 l 421 -188 l 507 -188 q 548 -178 534 -188 q 561 -150 561 -169 q 548 -122 561 -131 q 507 -113 534 -113 l 445 -113 l 473 31 l 565 31 l 565 4 l 562 -51 q 660 -78 624 -47 q 695 -160 695 -109 q 653 -250 695 -220 q 528 -279 612 -279 l 421 -279 m 425 1099 l 543 1320 l 785 1320 l 604 1099 l 425 1099 z "},"Ȼ":{"ha":1024,"x_min":36,"x_max":990,"o":"m 268 -129 l 650 1138 l 791 1138 l 408 -129 l 268 -129 m 526 -15 q 276 45 387 -15 q 101 221 165 105 q 36 505 36 337 q 101 790 36 673 q 277 966 166 906 q 526 1025 389 1025 q 702 998 621 1025 q 843 921 783 971 q 942 798 904 870 q 990 635 980 725 l 709 635 q 689 697 703 669 q 652 744 675 724 q 599 773 629 763 q 532 784 569 784 q 416 751 463 784 q 345 655 369 718 q 320 505 320 593 q 345 352 320 414 q 416 258 369 290 q 532 227 463 227 q 598 237 568 227 q 651 267 628 247 q 689 314 674 286 q 709 375 703 341 l 990 375 q 947 226 982 296 q 853 102 913 156 q 711 16 793 47 q 526 -15 629 -15 z "},"Ɔ":{"ha":1024,"x_min":34,"x_max":988,"o":"m 499 1025 q 748 965 637 1025 q 923 789 859 905 q 988 506 988 673 q 923 221 988 337 q 747 45 858 105 q 499 -15 636 -15 q 323 12 404 -15 q 181 90 242 39 q 82 213 120 140 q 35 376 44 286 l 316 376 q 336 314 321 341 q 372 267 350 286 q 425 237 395 248 q 492 227 455 227 q 608 260 561 227 q 680 355 656 293 q 705 506 705 418 q 680 658 705 596 q 609 752 656 720 q 493 784 562 784 q 426 774 456 784 q 373 744 396 764 q 336 697 351 724 q 315 635 321 670 l 34 635 q 77 784 42 714 q 172 909 112 854 q 313 994 231 963 q 499 1025 395 1025 z "},"Ϲ":{"ha":1024,"x_min":36,"x_max":990,"o":"m 526 -15 q 276 45 387 -15 q 101 221 165 105 q 36 505 36 337 q 101 790 36 673 q 277 966 166 906 q 526 1025 389 1025 q 702 998 621 1025 q 843 921 783 971 q 942 798 904 870 q 990 635 980 725 l 709 635 q 689 697 703 669 q 652 744 675 724 q 599 773 629 763 q 532 784 569 784 q 416 751 463 784 q 345 655 369 718 q 320 505 320 593 q 345 352 320 414 q 416 258 369 290 q 532 227 463 227 q 598 237 568 227 q 651 267 628 247 q 689 314 674 286 q 709 375 703 341 l 990 375 q 947 226 982 296 q 853 102 913 156 q 711 16 793 47 q 526 -15 629 -15 z "},"D":{"ha":995,"x_min":59,"x_max":958,"o":"m 452 0 l 175 0 l 175 233 l 439 233 q 571 260 518 233 q 651 347 625 287 q 678 505 678 407 q 651 663 678 603 q 568 750 623 723 q 431 777 513 777 l 171 777 l 171 1010 l 448 1010 q 718 949 604 1010 q 896 774 833 887 q 958 505 958 661 q 896 236 958 349 q 720 61 834 123 q 452 0 606 0 m 338 1010 l 338 0 l 59 0 l 59 1010 l 338 1010 z "},"Ɗ":{"ha":1320,"x_min":20,"x_max":1284,"o":"m 20 692 l 20 759 q 88 944 20 878 q 293 1010 155 1010 l 385 1010 l 385 784 l 345 784 q 294 769 311 784 q 277 726 277 754 l 277 692 l 20 692 m 777 0 l 500 0 l 500 233 l 764 233 q 897 260 844 233 q 977 347 950 287 q 1004 505 1004 407 q 976 663 1004 603 q 894 750 949 723 q 756 777 839 777 l 496 777 l 496 1010 l 773 1010 q 1044 949 929 1010 q 1221 774 1158 887 q 1284 505 1284 661 q 1222 236 1284 349 q 1046 61 1160 123 q 777 0 932 0 m 663 1010 l 663 0 l 385 0 l 385 1010 l 663 1010 z "},"Ď":{"ha":995,"x_min":59,"x_max":958,"o":"m 452 0 l 175 0 l 175 233 l 439 233 q 571 260 518 233 q 651 347 625 287 q 678 505 678 407 q 651 663 678 603 q 568 750 623 723 q 431 777 513 777 l 171 777 l 171 1010 l 448 1010 q 718 949 604 1010 q 896 774 833 887 q 958 505 958 661 q 896 236 958 349 q 720 61 834 123 q 452 0 606 0 m 338 1010 l 338 0 l 59 0 l 59 1010 l 338 1010 m 311 1320 l 398 1210 l 488 1320 l 696 1320 l 696 1318 l 496 1099 l 300 1099 l 104 1318 l 104 1320 l 311 1320 z "},"Ḋ":{"ha":995,"x_min":59,"x_max":958,"o":"m 452 0 l 175 0 l 175 233 l 439 233 q 571 260 518 233 q 651 347 625 287 q 678 505 678 407 q 651 663 678 603 q 568 750 623 723 q 431 777 513 777 l 171 777 l 171 1010 l 448 1010 q 718 949 604 1010 q 896 774 833 887 q 958 505 958 661 q 896 236 958 349 q 720 61 834 123 q 452 0 606 0 m 338 1010 l 338 0 l 59 0 l 59 1010 l 338 1010 m 399 1071 q 299 1107 339 1071 q 259 1199 259 1144 q 299 1290 259 1254 q 399 1326 339 1326 q 499 1290 459 1326 q 539 1199 539 1254 q 499 1107 539 1144 q 399 1071 459 1071 z "},"Ḍ":{"ha":995,"x_min":59,"x_max":958,"o":"m 452 0 l 175 0 l 175 233 l 439 233 q 571 260 518 233 q 651 347 625 287 q 678 505 678 407 q 651 663 678 603 q 568 750 623 723 q 431 777 513 777 l 171 777 l 171 1010 l 448 1010 q 718 949 604 1010 q 896 774 833 887 q 958 505 958 661 q 896 236 958 349 q 720 61 834 123 q 452 0 606 0 m 338 1010 l 338 0 l 59 0 l 59 1010 l 338 1010 m 454 -333 q 353 -296 393 -333 q 313 -205 313 -260 q 353 -114 313 -150 q 453 -77 393 -77 q 553 -114 513 -77 q 593 -205 593 -150 q 553 -296 593 -260 q 454 -333 513 -333 z "},"Ḏ":{"ha":995,"x_min":59,"x_max":958,"o":"m 452 0 l 175 0 l 175 233 l 439 233 q 571 260 518 233 q 651 347 625 287 q 678 505 678 407 q 651 663 678 603 q 568 750 623 723 q 431 777 513 777 l 171 777 l 171 1010 l 448 1010 q 718 949 604 1010 q 896 774 833 887 q 958 505 958 661 q 896 236 958 349 q 720 61 834 123 q 452 0 606 0 m 338 1010 l 338 0 l 59 0 l 59 1010 l 338 1010 m 657 -106 l 657 -264 l 250 -264 l 250 -106 l 657 -106 z "},"Ḑ":{"ha":995,"x_min":59,"x_max":958,"o":"m 452 0 l 175 0 l 175 233 l 439 233 q 571 260 518 233 q 651 347 625 287 q 678 505 678 407 q 651 663 678 603 q 568 750 623 723 q 431 777 513 777 l 171 777 l 171 1010 l 448 1010 q 718 949 604 1010 q 896 774 833 887 q 958 505 958 661 q 896 236 958 349 q 720 61 834 123 q 452 0 606 0 m 338 1010 l 338 0 l 59 0 l 59 1010 l 338 1010 m 269 -316 l 334 -80 l 578 -80 l 454 -316 l 269 -316 z "},"Ḓ":{"ha":995,"x_min":59,"x_max":958,"o":"m 452 0 l 175 0 l 175 233 l 439 233 q 571 260 518 233 q 651 347 625 287 q 678 505 678 407 q 651 663 678 603 q 568 750 623 723 q 431 777 513 777 l 171 777 l 171 1010 l 448 1010 q 718 949 604 1010 q 896 774 833 887 q 958 505 958 661 q 896 236 958 349 q 720 61 834 123 q 452 0 606 0 m 338 1010 l 338 0 l 59 0 l 59 1010 l 338 1010 m 366 -306 l 158 -306 l 158 -303 l 355 -85 l 551 -85 l 750 -303 l 750 -306 l 543 -306 l 452 -195 l 366 -306 z "},"Ɖ":{"ha":1077,"x_min":14,"x_max":1041,"o":"m 534 0 l 258 0 l 258 233 l 522 233 q 654 260 601 233 q 734 347 707 287 q 761 505 761 407 q 733 663 761 603 q 651 750 706 723 q 513 777 596 777 l 254 777 l 254 1010 l 530 1010 q 801 949 686 1010 q 978 774 916 887 q 1041 505 1041 661 q 979 236 1041 349 q 803 61 917 123 q 534 0 689 0 m 420 1010 l 420 0 l 142 0 l 142 1010 l 420 1010 m 14 420 l 14 591 l 591 591 l 591 420 l 14 420 z "},"ǲ":{"ha":1791,"x_min":59,"x_max":1720,"o":"m 452 0 l 175 0 l 175 233 l 439 233 q 571 260 518 233 q 651 347 625 287 q 678 505 678 407 q 651 663 678 603 q 568 750 623 723 q 431 777 513 777 l 171 777 l 171 1010 l 448 1010 q 718 949 604 1010 q 896 774 833 887 q 958 505 958 661 q 896 236 958 349 q 720 61 834 123 q 452 0 606 0 m 338 1010 l 338 0 l 59 0 l 59 1010 l 338 1010 m 1066 0 l 1066 163 l 1393 526 l 1393 528 l 1071 528 l 1071 735 l 1711 735 l 1711 558 l 1402 209 l 1402 206 l 1721 206 l 1721 0 l 1066 0 z "},"ǅ":{"ha":1791,"x_min":59,"x_max":1720,"o":"m 452 0 l 175 0 l 175 233 l 439 233 q 571 260 518 233 q 651 347 625 287 q 678 505 678 407 q 651 663 678 603 q 568 750 623 723 q 431 777 513 777 l 171 777 l 171 1010 l 448 1010 q 718 949 604 1010 q 896 774 833 887 q 958 505 958 661 q 896 236 958 349 q 720 61 834 123 q 452 0 606 0 m 338 1010 l 338 0 l 59 0 l 59 1010 l 338 1010 m 1066 0 l 1066 163 l 1393 526 l 1393 528 l 1071 528 l 1071 735 l 1711 735 l 1711 558 l 1402 209 l 1402 206 l 1721 206 l 1721 0 l 1066 0 m 1304 1044 l 1391 935 l 1481 1044 l 1689 1044 l 1689 1042 l 1489 823 l 1293 823 l 1097 1042 l 1097 1044 l 1304 1044 z "},"E":{"ha":866,"x_min":59,"x_max":818,"o":"m 59 0 l 59 1010 l 818 1010 l 818 780 l 338 780 l 338 619 l 779 619 l 779 395 l 338 395 l 338 231 l 817 231 l 817 0 l 59 0 z "},"È":{"ha":866,"x_min":59,"x_max":818,"o":"m 59 0 l 59 1010 l 818 1010 l 818 780 l 338 780 l 338 619 l 779 619 l 779 395 l 338 395 l 338 231 l 817 231 l 817 0 l 59 0 m 357 1099 l 176 1320 l 418 1320 l 536 1099 l 357 1099 z "},"É":{"ha":866,"x_min":59,"x_max":818,"o":"m 59 0 l 59 1010 l 818 1010 l 818 780 l 338 780 l 338 619 l 779 619 l 779 395 l 338 395 l 338 231 l 817 231 l 817 0 l 59 0 m 340 1099 l 458 1320 l 700 1320 l 519 1099 l 340 1099 z "},"Ê":{"ha":866,"x_min":59,"x_max":818,"o":"m 59 0 l 59 1010 l 818 1010 l 818 780 l 338 780 l 338 619 l 779 619 l 779 395 l 338 395 l 338 231 l 817 231 l 817 0 l 59 0 m 350 1099 l 142 1099 l 142 1101 l 339 1320 l 535 1320 l 734 1101 l 734 1099 l 527 1099 l 437 1209 l 350 1099 z "},"Ë":{"ha":866,"x_min":59,"x_max":818,"o":"m 59 0 l 59 1010 l 818 1010 l 818 780 l 338 780 l 338 619 l 779 619 l 779 395 l 338 395 l 338 231 l 817 231 l 817 0 l 59 0 m 596 1078 q 504 1113 541 1078 q 467 1200 467 1148 q 504 1287 467 1253 q 596 1322 541 1322 q 688 1287 651 1322 q 725 1200 725 1253 q 688 1113 725 1147 q 596 1078 651 1078 m 280 1078 q 189 1113 225 1078 q 152 1200 152 1148 q 189 1287 152 1253 q 280 1322 225 1322 q 372 1287 336 1322 q 409 1200 409 1253 q 372 1113 409 1147 q 280 1078 336 1078 z "},"Ē":{"ha":866,"x_min":59,"x_max":818,"o":"m 59 0 l 59 1010 l 818 1010 l 818 780 l 338 780 l 338 619 l 779 619 l 779 395 l 338 395 l 338 231 l 817 231 l 817 0 l 59 0 m 642 1278 l 642 1121 l 235 1121 l 235 1278 l 642 1278 z "},"Ĕ":{"ha":866,"x_min":59,"x_max":818,"o":"m 59 0 l 59 1010 l 818 1010 l 818 780 l 338 780 l 338 619 l 779 619 l 779 395 l 338 395 l 338 231 l 817 231 l 817 0 l 59 0 m 438 1088 q 302 1118 362 1088 q 207 1200 242 1148 q 172 1314 172 1251 l 319 1314 q 353 1246 319 1274 q 438 1219 387 1219 q 523 1246 489 1219 q 556 1314 556 1274 l 704 1314 q 669 1200 704 1251 q 574 1118 634 1148 q 438 1088 514 1088 z "},"Ė":{"ha":866,"x_min":59,"x_max":818,"o":"m 59 0 l 59 1010 l 818 1010 l 818 780 l 338 780 l 338 619 l 779 619 l 779 395 l 338 395 l 338 231 l 817 231 l 817 0 l 59 0 m 438 1071 q 338 1107 378 1071 q 298 1199 298 1144 q 338 1290 298 1254 q 437 1326 378 1326 q 538 1290 498 1326 q 578 1199 578 1254 q 538 1107 578 1144 q 438 1071 498 1071 z "},"Ę":{"ha":866,"x_min":59,"x_max":827,"o":"m 59 0 l 59 1010 l 818 1010 l 818 780 l 338 780 l 338 619 l 779 619 l 779 395 l 338 395 l 338 231 l 817 231 l 817 0 l 59 0 m 687 -286 q 529 -247 585 -286 q 473 -136 473 -207 q 496 -52 473 -91 q 553 18 518 -13 l 817 0 q 739 -45 760 -23 q 718 -94 718 -67 q 730 -126 718 -115 q 766 -137 742 -137 q 786 -135 777 -137 q 806 -131 796 -134 l 827 -271 q 760 -282 800 -278 q 687 -286 720 -286 z "},"Ě":{"ha":866,"x_min":59,"x_max":818,"o":"m 59 0 l 59 1010 l 818 1010 l 818 780 l 338 780 l 338 619 l 779 619 l 779 395 l 338 395 l 338 231 l 817 231 l 817 0 l 59 0 m 350 1320 l 437 1210 l 527 1320 l 734 1320 l 734 1318 l 535 1099 l 339 1099 l 142 1318 l 142 1320 l 350 1320 z "},"Ȅ":{"ha":866,"x_min":39,"x_max":818,"o":"m 59 0 l 59 1010 l 818 1010 l 818 780 l 338 780 l 338 619 l 779 619 l 779 395 l 338 395 l 338 231 l 817 231 l 817 0 l 59 0 m 492 1099 l 365 1320 l 586 1320 l 671 1099 l 492 1099 m 232 1099 l 39 1320 l 283 1320 l 416 1099 l 232 1099 z "},"Ȇ":{"ha":866,"x_min":59,"x_max":818,"o":"m 59 0 l 59 1010 l 818 1010 l 818 780 l 338 780 l 338 619 l 779 619 l 779 395 l 338 395 l 338 231 l 817 231 l 817 0 l 59 0 m 439 1325 q 574 1295 515 1325 q 669 1214 634 1265 q 705 1099 705 1163 l 556 1099 q 523 1168 556 1141 q 438 1195 490 1195 q 353 1168 387 1195 q 319 1099 319 1141 l 173 1099 q 208 1214 173 1163 q 302 1295 242 1265 q 439 1325 363 1325 z "},"Ȩ":{"ha":866,"x_min":59,"x_max":818,"o":"m 59 0 l 59 1010 l 818 1010 l 818 780 l 338 780 l 338 619 l 779 619 l 779 395 l 338 395 l 338 231 l 817 231 l 817 0 l 59 0 m 342 -283 l 342 -192 l 427 -192 q 468 -182 455 -192 q 481 -154 481 -173 q 468 -126 481 -135 q 427 -117 455 -117 l 366 -117 l 394 27 l 486 27 l 486 0 l 482 -55 q 580 -82 545 -52 q 616 -164 616 -113 q 574 -254 616 -224 q 449 -283 532 -283 l 342 -283 z "},"Ḕ":{"ha":866,"x_min":59,"x_max":818,"o":"m 59 0 l 59 1010 l 818 1010 l 818 780 l 338 780 l 338 619 l 779 619 l 779 395 l 338 395 l 338 231 l 817 231 l 817 0 l 59 0 m 642 1270 l 642 1113 l 235 1113 l 235 1270 l 642 1270 m 367 1346 l 210 1541 l 418 1541 l 520 1346 l 367 1346 z "},"Ḗ":{"ha":866,"x_min":59,"x_max":818,"o":"m 59 0 l 59 1010 l 818 1010 l 818 780 l 338 780 l 338 619 l 779 619 l 779 395 l 338 395 l 338 231 l 817 231 l 817 0 l 59 0 m 642 1268 l 642 1111 l 235 1111 l 235 1268 l 642 1268 m 361 1346 l 463 1541 l 671 1541 l 514 1346 l 361 1346 z "},"Ḙ":{"ha":866,"x_min":59,"x_max":818,"o":"m 59 0 l 59 1010 l 818 1010 l 818 780 l 338 780 l 338 619 l 779 619 l 779 395 l 338 395 l 338 231 l 817 231 l 817 0 l 59 0 m 350 -306 l 142 -306 l 142 -303 l 339 -85 l 535 -85 l 734 -303 l 734 -306 l 527 -306 l 437 -195 l 350 -306 z "},"Ḛ":{"ha":866,"x_min":59,"x_max":818,"o":"m 59 0 l 59 1010 l 818 1010 l 818 780 l 338 780 l 338 619 l 779 619 l 779 395 l 338 395 l 338 231 l 817 231 l 817 0 l 59 0 m 538 -304 q 473 -292 500 -304 q 427 -263 446 -279 q 391 -235 408 -247 q 355 -222 374 -222 q 318 -242 332 -222 q 304 -298 305 -261 l 170 -298 q 220 -139 172 -191 q 338 -87 268 -87 q 403 -99 376 -87 q 450 -126 430 -111 q 487 -154 470 -142 q 521 -165 503 -165 q 561 -146 549 -165 q 574 -91 573 -126 l 707 -91 q 656 -250 705 -195 q 538 -304 608 -304 z "},"Ḝ":{"ha":866,"x_min":59,"x_max":818,"o":"m 59 0 l 59 1010 l 818 1010 l 818 780 l 338 780 l 338 619 l 779 619 l 779 395 l 338 395 l 338 231 l 817 231 l 817 0 l 59 0 m 342 -283 l 342 -192 l 427 -192 q 468 -182 455 -192 q 481 -154 481 -173 q 468 -126 481 -135 q 427 -117 455 -117 l 366 -117 l 394 27 l 486 27 l 486 0 l 482 -55 q 580 -82 545 -52 q 616 -164 616 -113 q 574 -254 616 -224 q 449 -283 532 -283 l 342 -283 m 438 1088 q 302 1118 362 1088 q 207 1200 242 1148 q 172 1314 172 1251 l 319 1314 q 353 1246 319 1274 q 438 1219 387 1219 q 523 1246 489 1219 q 556 1314 556 1274 l 704 1314 q 669 1200 704 1251 q 574 1118 634 1148 q 438 1088 514 1088 z "},"Ẹ":{"ha":866,"x_min":59,"x_max":818,"o":"m 59 0 l 59 1010 l 818 1010 l 818 780 l 338 780 l 338 619 l 779 619 l 779 395 l 338 395 l 338 231 l 817 231 l 817 0 l 59 0 m 438 -333 q 338 -296 378 -333 q 298 -205 298 -260 q 338 -114 298 -150 q 437 -77 378 -77 q 538 -114 498 -77 q 578 -205 578 -150 q 538 -296 578 -260 q 438 -333 498 -333 z "},"Ẻ":{"ha":866,"x_min":59,"x_max":818,"o":"m 59 0 l 59 1010 l 818 1010 l 818 780 l 338 780 l 338 619 l 779 619 l 779 395 l 338 395 l 338 231 l 817 231 l 817 0 l 59 0 m 508 1099 l 357 1099 l 410 1185 q 410 1188 411 1187 q 407 1190 410 1190 l 290 1190 l 290 1320 l 412 1320 q 520 1302 482 1320 q 569 1256 557 1284 q 573 1196 581 1227 q 542 1139 564 1164 l 508 1099 z "},"Ẽ":{"ha":866,"x_min":59,"x_max":818,"o":"m 59 0 l 59 1010 l 818 1010 l 818 780 l 338 780 l 338 619 l 779 619 l 779 395 l 338 395 l 338 231 l 817 231 l 817 0 l 59 0 m 538 1100 q 473 1112 500 1100 q 427 1141 446 1124 q 391 1169 408 1157 q 355 1181 374 1181 q 318 1162 332 1181 q 304 1105 305 1143 l 170 1105 q 220 1265 172 1213 q 338 1317 268 1317 q 403 1305 376 1317 q 450 1278 430 1293 q 487 1250 470 1262 q 521 1238 503 1238 q 561 1258 549 1238 q 574 1313 573 1278 l 707 1313 q 656 1154 705 1208 q 538 1100 608 1100 z "},"Ế":{"ha":866,"x_min":59,"x_max":824,"o":"m 59 0 l 59 1010 l 818 1010 l 818 780 l 338 780 l 338 619 l 779 619 l 779 395 l 338 395 l 338 231 l 817 231 l 817 0 l 59 0 m 350 1090 l 142 1090 l 142 1093 l 339 1312 l 535 1312 l 734 1093 l 734 1090 l 527 1090 l 437 1201 l 350 1090 m 536 1346 l 630 1535 l 824 1535 l 679 1346 l 536 1346 z "},"Ề":{"ha":866,"x_min":59,"x_max":818,"o":"m 59 0 l 59 1010 l 818 1010 l 818 780 l 338 780 l 338 619 l 779 619 l 779 395 l 338 395 l 338 231 l 817 231 l 817 0 l 59 0 m 350 1090 l 142 1090 l 142 1093 l 339 1312 l 535 1312 l 734 1093 l 734 1090 l 527 1090 l 437 1201 l 350 1090 m 608 1346 l 463 1535 l 656 1535 l 751 1346 l 608 1346 z "},"Ể":{"ha":866,"x_min":59,"x_max":818,"o":"m 59 0 l 59 1010 l 818 1010 l 818 780 l 338 780 l 338 619 l 779 619 l 779 395 l 338 395 l 338 231 l 817 231 l 817 0 l 59 0 m 350 1090 l 142 1090 l 142 1093 l 339 1312 l 535 1312 l 734 1093 l 734 1090 l 527 1090 l 437 1201 l 350 1090 m 660 1346 l 539 1346 l 581 1419 q 582 1422 583 1421 q 579 1423 581 1423 l 486 1423 l 486 1535 l 584 1535 q 688 1508 659 1535 q 714 1446 718 1482 q 688 1380 711 1409 l 660 1346 z "},"Ễ":{"ha":866,"x_min":59,"x_max":818,"o":"m 59 0 l 59 1010 l 818 1010 l 818 780 l 338 780 l 338 619 l 779 619 l 779 395 l 338 395 l 338 231 l 817 231 l 817 0 l 59 0 m 350 1090 l 142 1090 l 142 1093 l 339 1312 l 535 1312 l 734 1093 l 734 1090 l 527 1090 l 437 1201 l 350 1090 m 539 1352 q 474 1363 500 1352 q 428 1388 447 1374 q 392 1413 408 1402 q 355 1423 375 1423 q 319 1407 332 1423 q 304 1357 306 1390 l 170 1357 q 220 1496 172 1451 q 338 1541 269 1541 q 404 1531 376 1541 q 451 1507 431 1520 q 487 1483 471 1493 q 522 1473 504 1473 q 562 1490 550 1473 q 574 1537 574 1507 l 707 1537 q 657 1399 706 1447 q 539 1352 608 1352 z "},"Ệ":{"ha":866,"x_min":59,"x_max":818,"o":"m 59 0 l 59 1010 l 818 1010 l 818 780 l 338 780 l 338 619 l 779 619 l 779 395 l 338 395 l 338 231 l 817 231 l 817 0 l 59 0 m 350 1099 l 142 1099 l 142 1101 l 339 1320 l 535 1320 l 734 1101 l 734 1099 l 527 1099 l 437 1209 l 350 1099 m 438 -333 q 338 -296 378 -333 q 298 -205 298 -260 q 338 -114 298 -150 q 437 -77 378 -77 q 538 -114 498 -77 q 578 -205 578 -150 q 538 -296 578 -260 q 438 -333 498 -333 z "},"Ɇ":{"ha":866,"x_min":59,"x_max":818,"o":"m 212 -129 l 578 1138 l 690 1138 l 325 -129 l 212 -129 m 59 0 l 59 1010 l 818 1010 l 818 780 l 338 780 l 338 619 l 779 619 l 779 395 l 338 395 l 338 231 l 817 231 l 817 0 l 59 0 z "},"Ǝ":{"ha":866,"x_min":48,"x_max":807,"o":"m 807 1010 l 807 0 l 48 0 l 48 231 l 528 231 l 528 391 l 87 391 l 87 615 l 528 615 l 528 780 l 50 780 l 50 1010 l 807 1010 z "},"Ε":{"ha":866,"x_min":59,"x_max":818,"o":"m 59 0 l 59 1010 l 818 1010 l 818 780 l 338 780 l 338 619 l 779 619 l 779 395 l 338 395 l 338 231 l 817 231 l 817 0 l 59 0 z "},"Έ":{"ha":1159,"x_min":32,"x_max":1111,"o":"m 352 0 l 352 1010 l 1111 1010 l 1111 780 l 631 780 l 631 619 l 1072 619 l 1072 395 l 631 395 l 631 231 l 1109 231 l 1109 0 l 352 0 m 32 789 l 54 1010 l 281 1010 l 184 789 l 32 789 z "},"Ἐ":{"ha":1139,"x_min":32,"x_max":1091,"o":"m 332 0 l 332 1010 l 1091 1010 l 1091 780 l 611 780 l 611 619 l 1053 619 l 1053 395 l 611 395 l 611 231 l 1090 231 l 1090 0 l 332 0 m 60 774 l 52 774 l 52 839 l 66 839 q 118 847 101 839 q 135 874 135 856 q 120 900 135 891 q 76 908 106 908 l 32 908 l 32 1021 l 60 1021 q 203 986 152 1021 q 255 894 255 951 q 203 806 255 838 q 60 774 151 774 z "},"Ἑ":{"ha":1155,"x_min":32,"x_max":1107,"o":"m 349 0 l 349 1010 l 1107 1010 l 1107 780 l 627 780 l 627 619 l 1069 619 l 1069 395 l 627 395 l 627 231 l 1106 231 l 1106 0 l 349 0 m 227 766 q 84 798 136 766 q 32 886 32 829 q 83 978 32 943 q 227 1013 135 1013 l 255 1013 l 255 900 l 211 900 q 167 891 182 900 q 152 866 152 883 q 169 839 152 848 q 220 831 186 831 l 235 831 l 235 766 l 227 766 z "},"Ἒ":{"ha":1396,"x_min":32,"x_max":1348,"o":"m 589 0 l 589 1010 l 1348 1010 l 1348 780 l 868 780 l 868 619 l 1310 619 l 1310 395 l 868 395 l 868 231 l 1347 231 l 1347 0 l 589 0 m 60 766 l 52 766 l 52 831 l 66 831 q 118 839 101 831 q 135 866 135 848 q 120 891 135 883 q 76 900 106 900 l 32 900 l 32 1013 l 60 1013 q 203 978 152 1013 q 255 886 255 943 q 203 798 255 829 q 60 766 151 766 m 476 772 l 346 772 l 262 1010 l 457 1010 l 476 772 z "},"Ἓ":{"ha":1437,"x_min":32,"x_max":1389,"o":"m 631 0 l 631 1010 l 1390 1010 l 1390 780 l 909 780 l 909 619 l 1351 619 l 1351 395 l 909 395 l 909 231 l 1388 231 l 1388 0 l 631 0 m 227 766 q 84 798 136 766 q 32 886 32 829 q 83 978 32 943 q 227 1013 135 1013 l 255 1013 l 255 900 l 211 900 q 167 891 182 900 q 152 866 152 883 q 169 839 152 848 q 220 831 186 831 l 235 831 l 235 766 l 227 766 m 505 772 l 375 772 l 292 1010 l 486 1010 l 505 772 z "},"Ἔ":{"ha":1407,"x_min":32,"x_max":1359,"o":"m 600 0 l 600 1010 l 1359 1010 l 1359 780 l 879 780 l 879 619 l 1320 619 l 1320 395 l 879 395 l 879 231 l 1358 231 l 1358 0 l 600 0 m 60 766 l 52 766 l 52 831 l 66 831 q 118 839 101 831 q 135 866 135 848 q 120 891 135 883 q 76 900 106 900 l 32 900 l 32 1013 l 60 1013 q 203 978 152 1013 q 255 886 255 943 q 203 798 255 829 q 60 766 151 766 m 320 772 l 338 1010 l 534 1010 l 450 772 l 320 772 z "},"Ἕ":{"ha":1437,"x_min":32,"x_max":1388,"o":"m 630 0 l 630 1010 l 1389 1010 l 1389 780 l 909 780 l 909 619 l 1350 619 l 1350 395 l 909 395 l 909 231 l 1388 231 l 1388 0 l 630 0 m 227 766 q 84 798 136 766 q 32 886 32 829 q 83 978 32 943 q 227 1013 135 1013 l 255 1013 l 255 900 l 211 900 q 167 891 182 900 q 152 866 152 883 q 169 839 152 848 q 220 831 186 831 l 235 831 l 235 766 l 227 766 m 345 772 l 363 1010 l 557 1010 l 474 772 l 345 772 z "},"Ὲ":{"ha":1152,"x_min":-55,"x_max":1104,"o":"m 345 0 l 345 1010 l 1104 1010 l 1104 780 l 624 780 l 624 619 l 1065 619 l 1065 395 l 624 395 l 624 231 l 1103 231 l 1103 0 l 345 0 m 195 823 l 43 823 l -55 1044 l 173 1044 l 195 823 z "},"Έ":{"ha":1159,"x_min":32,"x_max":1111,"o":"m 352 0 l 352 1010 l 1111 1010 l 1111 780 l 631 780 l 631 619 l 1072 619 l 1072 395 l 631 395 l 631 231 l 1109 231 l 1109 0 l 352 0 m 32 789 l 54 1010 l 281 1010 l 184 789 l 32 789 z "},"Е":{"ha":866,"x_min":59,"x_max":818,"o":"m 59 0 l 59 1010 l 818 1010 l 818 780 l 338 780 l 338 619 l 779 619 l 779 395 l 338 395 l 338 231 l 817 231 l 817 0 l 59 0 z "},"Ѐ":{"ha":866,"x_min":59,"x_max":818,"o":"m 59 0 l 59 1010 l 818 1010 l 818 780 l 338 780 l 338 619 l 779 619 l 779 395 l 338 395 l 338 231 l 817 231 l 817 0 l 59 0 m 357 1099 l 176 1320 l 418 1320 l 536 1099 l 357 1099 z "},"Ё":{"ha":866,"x_min":59,"x_max":818,"o":"m 59 0 l 59 1010 l 818 1010 l 818 780 l 338 780 l 338 619 l 779 619 l 779 395 l 338 395 l 338 231 l 817 231 l 817 0 l 59 0 m 596 1078 q 504 1113 541 1078 q 467 1200 467 1148 q 504 1287 467 1253 q 596 1322 541 1322 q 688 1287 651 1322 q 725 1200 725 1253 q 688 1113 725 1147 q 596 1078 651 1078 m 280 1078 q 189 1113 225 1078 q 152 1200 152 1148 q 189 1287 152 1253 q 280 1322 225 1322 q 372 1287 336 1322 q 409 1200 409 1253 q 372 1113 409 1147 q 280 1078 336 1078 z "},"Ӗ":{"ha":866,"x_min":59,"x_max":818,"o":"m 59 0 l 59 1010 l 818 1010 l 818 780 l 338 780 l 338 619 l 779 619 l 779 395 l 338 395 l 338 231 l 817 231 l 817 0 l 59 0 m 438 1088 q 302 1118 362 1088 q 207 1200 242 1148 q 172 1314 172 1251 l 319 1314 q 353 1246 319 1274 q 438 1219 387 1219 q 523 1246 489 1219 q 556 1314 556 1274 l 704 1314 q 669 1200 704 1251 q 574 1118 634 1148 q 438 1088 514 1088 z "},"F":{"ha":827,"x_min":59,"x_max":797,"o":"m 59 0 l 59 1010 l 797 1010 l 797 780 l 338 780 l 338 579 l 762 579 l 762 355 l 338 355 l 338 0 l 59 0 z "},"Ƒ":{"ha":827,"x_min":-90,"x_max":797,"o":"m -90 -283 l -90 -73 q -52 -75 -74 -75 q -3 -76 -30 -76 q 44 -63 30 -76 q 59 -21 59 -50 l 59 81 l 338 81 l 338 -37 q 266 -227 338 -163 q 52 -290 195 -290 q -27 -289 9 -290 q -90 -283 -64 -287 m 59 0 l 59 1010 l 797 1010 l 797 780 l 338 780 l 338 579 l 762 579 l 762 355 l 338 355 l 338 0 l 59 0 z "},"Ḟ":{"ha":827,"x_min":59,"x_max":797,"o":"m 59 0 l 59 1010 l 797 1010 l 797 780 l 338 780 l 338 579 l 762 579 l 762 355 l 338 355 l 338 0 l 59 0 m 427 1071 q 327 1107 367 1071 q 287 1199 287 1144 q 327 1290 287 1254 q 427 1326 367 1326 q 527 1290 487 1326 q 567 1199 567 1254 q 527 1107 567 1144 q 427 1071 487 1071 z "},"Ⅎ":{"ha":827,"x_min":31,"x_max":768,"o":"m 768 1010 l 768 0 l 31 0 l 31 231 l 490 231 l 490 431 l 65 431 l 65 655 l 490 655 l 490 1010 l 768 1010 z "},"G":{"ha":1037,"x_min":36,"x_max":993,"o":"m 532 -15 q 272 48 383 -15 q 98 228 160 111 q 36 504 36 345 q 102 788 36 672 q 280 965 168 905 q 528 1025 391 1025 q 699 1000 619 1025 q 840 927 779 975 q 939 813 901 879 q 983 669 976 748 l 701 669 q 682 717 695 696 q 648 753 669 739 q 600 776 627 768 q 537 784 572 784 q 418 751 467 784 q 345 657 370 719 q 320 506 320 595 q 345 354 320 416 q 418 259 370 292 q 539 227 467 227 q 641 244 600 227 q 702 295 682 262 q 723 371 723 328 l 776 366 l 540 366 l 540 564 l 993 564 l 993 421 q 935 189 993 287 q 772 38 876 91 q 532 -15 669 -15 z "},"Ǥ":{"ha":1037,"x_min":36,"x_max":1070,"o":"m 532 -15 q 272 48 383 -15 q 98 228 160 111 q 36 504 36 345 q 102 788 36 672 q 280 965 168 905 q 528 1025 391 1025 q 699 1000 619 1025 q 840 927 779 975 q 939 813 901 879 q 983 669 976 748 l 701 669 q 682 717 695 696 q 648 753 669 739 q 600 776 627 768 q 537 784 572 784 q 418 751 467 784 q 345 657 370 719 q 320 506 320 595 q 345 354 320 416 q 418 259 370 292 q 539 227 467 227 q 641 244 600 227 q 702 295 682 262 q 723 371 723 328 l 776 366 l 540 366 l 540 564 l 993 564 l 993 421 q 935 189 993 287 q 772 38 876 91 q 532 -15 669 -15 m 540 261 l 540 326 l 1070 326 l 1070 261 l 540 261 z "},"Ɠ":{"ha":1037,"x_min":36,"x_max":1134,"o":"m 713 669 l 713 885 q 782 1076 713 1013 q 993 1139 850 1139 q 1072 1137 1036 1139 q 1134 1132 1108 1135 l 1134 931 q 1096 933 1118 932 q 1048 934 1074 934 q 999 920 1015 934 q 983 877 983 907 l 983 669 l 713 669 m 532 -15 q 272 48 383 -15 q 98 228 160 111 q 36 504 36 345 q 102 788 36 672 q 280 965 168 905 q 528 1025 391 1025 q 699 1000 619 1025 q 840 927 779 975 q 939 813 901 879 q 983 669 976 748 l 701 669 q 682 717 695 696 q 648 753 669 739 q 600 776 627 768 q 537 784 572 784 q 418 751 467 784 q 345 657 370 719 q 320 506 320 595 q 345 354 320 416 q 418 259 370 292 q 539 227 467 227 q 641 244 600 227 q 702 295 682 262 q 723 371 723 328 l 776 366 l 540 366 l 540 564 l 993 564 l 993 421 q 935 189 993 287 q 772 38 876 91 q 532 -15 669 -15 z "},"Ĝ":{"ha":1037,"x_min":36,"x_max":993,"o":"m 532 -15 q 272 48 383 -15 q 98 228 160 111 q 36 504 36 345 q 102 788 36 672 q 280 965 168 905 q 528 1025 391 1025 q 699 1000 619 1025 q 840 927 779 975 q 939 813 901 879 q 983 669 976 748 l 701 669 q 682 717 695 696 q 648 753 669 739 q 600 776 627 768 q 537 784 572 784 q 418 751 467 784 q 345 657 370 719 q 320 506 320 595 q 345 354 320 416 q 418 259 370 292 q 539 227 467 227 q 641 244 600 227 q 702 295 682 262 q 723 371 723 328 l 776 366 l 540 366 l 540 564 l 993 564 l 993 421 q 935 189 993 287 q 772 38 876 91 q 532 -15 669 -15 m 433 1099 l 226 1099 l 226 1101 l 422 1320 l 618 1320 l 818 1101 l 818 1099 l 610 1099 l 520 1209 l 433 1099 z "},"Ğ":{"ha":1037,"x_min":36,"x_max":993,"o":"m 532 -15 q 272 48 383 -15 q 98 228 160 111 q 36 504 36 345 q 102 788 36 672 q 280 965 168 905 q 528 1025 391 1025 q 699 1000 619 1025 q 840 927 779 975 q 939 813 901 879 q 983 669 976 748 l 701 669 q 682 717 695 696 q 648 753 669 739 q 600 776 627 768 q 537 784 572 784 q 418 751 467 784 q 345 657 370 719 q 320 506 320 595 q 345 354 320 416 q 418 259 370 292 q 539 227 467 227 q 641 244 600 227 q 702 295 682 262 q 723 371 723 328 l 776 366 l 540 366 l 540 564 l 993 564 l 993 421 q 935 189 993 287 q 772 38 876 91 q 532 -15 669 -15 m 522 1088 q 386 1118 446 1088 q 291 1200 326 1148 q 256 1314 256 1251 l 402 1314 q 436 1246 402 1274 q 522 1219 470 1219 q 606 1246 572 1219 q 640 1314 640 1274 l 787 1314 q 752 1200 787 1251 q 657 1118 718 1148 q 522 1088 597 1088 z "},"Ġ":{"ha":1037,"x_min":36,"x_max":993,"o":"m 532 -15 q 272 48 383 -15 q 98 228 160 111 q 36 504 36 345 q 102 788 36 672 q 280 965 168 905 q 528 1025 391 1025 q 699 1000 619 1025 q 840 927 779 975 q 939 813 901 879 q 983 669 976 748 l 701 669 q 682 717 695 696 q 648 753 669 739 q 600 776 627 768 q 537 784 572 784 q 418 751 467 784 q 345 657 370 719 q 320 506 320 595 q 345 354 320 416 q 418 259 370 292 q 539 227 467 227 q 641 244 600 227 q 702 295 682 262 q 723 371 723 328 l 776 366 l 540 366 l 540 564 l 993 564 l 993 421 q 935 189 993 287 q 772 38 876 91 q 532 -15 669 -15 m 522 1071 q 421 1107 461 1071 q 381 1199 381 1144 q 421 1290 381 1254 q 521 1326 461 1326 q 621 1290 581 1326 q 661 1199 661 1254 q 621 1107 661 1144 q 522 1071 581 1071 z "},"Ģ":{"ha":1037,"x_min":36,"x_max":993,"o":"m 532 -15 q 272 48 383 -15 q 98 228 160 111 q 36 504 36 345 q 102 788 36 672 q 280 965 168 905 q 528 1025 391 1025 q 699 1000 619 1025 q 840 927 779 975 q 939 813 901 879 q 983 669 976 748 l 701 669 q 682 717 695 696 q 648 753 669 739 q 600 776 627 768 q 537 784 572 784 q 418 751 467 784 q 345 657 370 719 q 320 506 320 595 q 345 354 320 416 q 418 259 370 292 q 539 227 467 227 q 641 244 600 227 q 702 295 682 262 q 723 371 723 328 l 776 366 l 540 366 l 540 564 l 993 564 l 993 421 q 935 189 993 287 q 772 38 876 91 q 532 -15 669 -15 m 334 -316 l 399 -80 l 644 -80 l 519 -316 l 334 -316 z "},"Ǧ":{"ha":1037,"x_min":36,"x_max":993,"o":"m 532 -15 q 272 48 383 -15 q 98 228 160 111 q 36 504 36 345 q 102 788 36 672 q 280 965 168 905 q 528 1025 391 1025 q 699 1000 619 1025 q 840 927 779 975 q 939 813 901 879 q 983 669 976 748 l 701 669 q 682 717 695 696 q 648 753 669 739 q 600 776 627 768 q 537 784 572 784 q 418 751 467 784 q 345 657 370 719 q 320 506 320 595 q 345 354 320 416 q 418 259 370 292 q 539 227 467 227 q 641 244 600 227 q 702 295 682 262 q 723 371 723 328 l 776 366 l 540 366 l 540 564 l 993 564 l 993 421 q 935 189 993 287 q 772 38 876 91 q 532 -15 669 -15 m 433 1320 l 520 1210 l 610 1320 l 818 1320 l 818 1318 l 618 1099 l 422 1099 l 226 1318 l 226 1320 l 433 1320 z "},"Ǵ":{"ha":1037,"x_min":36,"x_max":993,"o":"m 532 -15 q 272 48 383 -15 q 98 228 160 111 q 36 504 36 345 q 102 788 36 672 q 280 965 168 905 q 528 1025 391 1025 q 699 1000 619 1025 q 840 927 779 975 q 939 813 901 879 q 983 669 976 748 l 701 669 q 682 717 695 696 q 648 753 669 739 q 600 776 627 768 q 537 784 572 784 q 418 751 467 784 q 345 657 370 719 q 320 506 320 595 q 345 354 320 416 q 418 259 370 292 q 539 227 467 227 q 641 244 600 227 q 702 295 682 262 q 723 371 723 328 l 776 366 l 540 366 l 540 564 l 993 564 l 993 421 q 935 189 993 287 q 772 38 876 91 q 532 -15 669 -15 m 423 1099 l 541 1320 l 783 1320 l 602 1099 l 423 1099 z "},"Ḡ":{"ha":1037,"x_min":36,"x_max":993,"o":"m 532 -15 q 272 48 383 -15 q 98 228 160 111 q 36 504 36 345 q 102 788 36 672 q 280 965 168 905 q 528 1025 391 1025 q 699 1000 619 1025 q 840 927 779 975 q 939 813 901 879 q 983 669 976 748 l 701 669 q 682 717 695 696 q 648 753 669 739 q 600 776 627 768 q 537 784 572 784 q 418 751 467 784 q 345 657 370 719 q 320 506 320 595 q 345 354 320 416 q 418 259 370 292 q 539 227 467 227 q 641 244 600 227 q 702 295 682 262 q 723 371 723 328 l 776 366 l 540 366 l 540 564 l 993 564 l 993 421 q 935 189 993 287 q 772 38 876 91 q 532 -15 669 -15 m 725 1278 l 725 1121 l 318 1121 l 318 1278 l 725 1278 z "},"":{"ha":1047,"x_min":36,"x_max":993,"o":"m 497 -15 q 265 48 370 -15 q 98 228 160 111 q 36 504 36 345 q 102 788 36 672 q 280 965 168 905 q 528 1025 391 1025 q 699 1000 619 1025 q 840 927 779 975 q 939 813 901 879 q 983 669 976 748 l 701 669 q 682 717 695 696 q 648 753 669 739 q 600 776 627 768 q 537 784 572 784 q 418 751 467 784 q 345 657 370 719 q 320 506 320 595 q 345 354 320 416 q 419 259 370 292 q 541 227 469 227 q 640 244 600 227 q 702 295 680 262 q 723 371 723 328 l 822 371 l 822 304 q 800 169 822 229 q 735 68 777 109 q 633 6 693 28 q 497 -15 572 -15 m 824 0 l 789 228 l 789 366 l 540 366 l 540 564 l 993 564 l 993 0 l 824 0 z "},"":{"ha":1047,"x_min":36,"x_max":1070,"o":"m 497 -15 q 265 48 370 -15 q 98 228 160 111 q 36 504 36 345 q 102 788 36 672 q 280 965 168 905 q 528 1025 391 1025 q 699 1000 619 1025 q 840 927 779 975 q 939 813 901 879 q 983 669 976 748 l 701 669 q 682 717 695 696 q 648 753 669 739 q 600 776 627 768 q 537 784 572 784 q 418 751 467 784 q 345 657 370 719 q 320 506 320 595 q 345 354 320 416 q 419 259 370 292 q 541 227 469 227 q 640 244 600 227 q 702 295 680 262 q 723 371 723 328 l 822 371 l 822 304 q 800 169 822 229 q 735 68 777 109 q 633 6 693 28 q 497 -15 572 -15 m 824 0 l 789 228 l 789 366 l 540 366 l 540 564 l 993 564 l 993 0 l 824 0 m 540 261 l 540 326 l 1070 326 l 1070 261 l 540 261 z "},"":{"ha":1047,"x_min":36,"x_max":1134,"o":"m 713 669 l 713 885 q 782 1076 713 1013 q 993 1139 850 1139 q 1072 1137 1036 1139 q 1134 1132 1108 1135 l 1134 931 q 1096 933 1118 932 q 1048 934 1074 934 q 999 920 1015 934 q 983 877 983 907 l 983 669 l 713 669 m 497 -15 q 265 48 370 -15 q 98 228 160 111 q 36 504 36 345 q 102 788 36 672 q 280 965 168 905 q 528 1025 391 1025 q 699 1000 619 1025 q 840 927 779 975 q 939 813 901 879 q 983 669 976 748 l 701 669 q 682 717 695 696 q 648 753 669 739 q 600 776 627 768 q 537 784 572 784 q 418 751 467 784 q 345 657 370 719 q 320 506 320 595 q 345 354 320 416 q 419 259 370 292 q 541 227 469 227 q 640 244 600 227 q 702 295 680 262 q 723 371 723 328 l 822 371 l 822 304 q 800 169 822 229 q 735 68 777 109 q 633 6 693 28 q 497 -15 572 -15 m 824 0 l 789 228 l 789 366 l 540 366 l 540 564 l 993 564 l 993 0 l 824 0 z "},"":{"ha":1047,"x_min":36,"x_max":993,"o":"m 497 -15 q 265 48 370 -15 q 98 228 160 111 q 36 504 36 345 q 102 788 36 672 q 280 965 168 905 q 528 1025 391 1025 q 699 1000 619 1025 q 840 927 779 975 q 939 813 901 879 q 983 669 976 748 l 701 669 q 682 717 695 696 q 648 753 669 739 q 600 776 627 768 q 537 784 572 784 q 418 751 467 784 q 345 657 370 719 q 320 506 320 595 q 345 354 320 416 q 419 259 370 292 q 541 227 469 227 q 640 244 600 227 q 702 295 680 262 q 723 371 723 328 l 822 371 l 822 304 q 800 169 822 229 q 735 68 777 109 q 633 6 693 28 q 497 -15 572 -15 m 824 0 l 789 228 l 789 366 l 540 366 l 540 564 l 993 564 l 993 0 l 824 0 m 433 1099 l 226 1099 l 226 1101 l 422 1320 l 618 1320 l 818 1101 l 818 1099 l 610 1099 l 520 1209 l 433 1099 z "},"":{"ha":1047,"x_min":36,"x_max":993,"o":"m 497 -15 q 265 48 370 -15 q 98 228 160 111 q 36 504 36 345 q 102 788 36 672 q 280 965 168 905 q 528 1025 391 1025 q 699 1000 619 1025 q 840 927 779 975 q 939 813 901 879 q 983 669 976 748 l 701 669 q 682 717 695 696 q 648 753 669 739 q 600 776 627 768 q 537 784 572 784 q 418 751 467 784 q 345 657 370 719 q 320 506 320 595 q 345 354 320 416 q 419 259 370 292 q 541 227 469 227 q 640 244 600 227 q 702 295 680 262 q 723 371 723 328 l 822 371 l 822 304 q 800 169 822 229 q 735 68 777 109 q 633 6 693 28 q 497 -15 572 -15 m 824 0 l 789 228 l 789 366 l 540 366 l 540 564 l 993 564 l 993 0 l 824 0 m 522 1088 q 386 1118 446 1088 q 291 1200 326 1148 q 256 1314 256 1251 l 402 1314 q 436 1246 402 1274 q 522 1219 470 1219 q 606 1246 572 1219 q 640 1314 640 1274 l 787 1314 q 752 1200 787 1251 q 657 1118 718 1148 q 522 1088 597 1088 z "},"":{"ha":1047,"x_min":36,"x_max":993,"o":"m 497 -15 q 265 48 370 -15 q 98 228 160 111 q 36 504 36 345 q 102 788 36 672 q 280 965 168 905 q 528 1025 391 1025 q 699 1000 619 1025 q 840 927 779 975 q 939 813 901 879 q 983 669 976 748 l 701 669 q 682 717 695 696 q 648 753 669 739 q 600 776 627 768 q 537 784 572 784 q 418 751 467 784 q 345 657 370 719 q 320 506 320 595 q 345 354 320 416 q 419 259 370 292 q 541 227 469 227 q 640 244 600 227 q 702 295 680 262 q 723 371 723 328 l 822 371 l 822 304 q 800 169 822 229 q 735 68 777 109 q 633 6 693 28 q 497 -15 572 -15 m 824 0 l 789 228 l 789 366 l 540 366 l 540 564 l 993 564 l 993 0 l 824 0 m 522 1071 q 421 1107 461 1071 q 381 1199 381 1144 q 421 1290 381 1254 q 521 1326 461 1326 q 621 1290 581 1326 q 661 1199 661 1254 q 621 1107 661 1144 q 522 1071 581 1071 z "},"":{"ha":1047,"x_min":36,"x_max":993,"o":"m 497 -15 q 265 48 370 -15 q 98 228 160 111 q 36 504 36 345 q 102 788 36 672 q 280 965 168 905 q 528 1025 391 1025 q 699 1000 619 1025 q 840 927 779 975 q 939 813 901 879 q 983 669 976 748 l 701 669 q 682 717 695 696 q 648 753 669 739 q 600 776 627 768 q 537 784 572 784 q 418 751 467 784 q 345 657 370 719 q 320 506 320 595 q 345 354 320 416 q 419 259 370 292 q 541 227 469 227 q 640 244 600 227 q 702 295 680 262 q 723 371 723 328 l 822 371 l 822 304 q 800 169 822 229 q 735 68 777 109 q 633 6 693 28 q 497 -15 572 -15 m 824 0 l 789 228 l 789 366 l 540 366 l 540 564 l 993 564 l 993 0 l 824 0 m 334 -316 l 399 -80 l 644 -80 l 519 -316 l 334 -316 z "},"":{"ha":1047,"x_min":36,"x_max":993,"o":"m 497 -15 q 265 48 370 -15 q 98 228 160 111 q 36 504 36 345 q 102 788 36 672 q 280 965 168 905 q 528 1025 391 1025 q 699 1000 619 1025 q 840 927 779 975 q 939 813 901 879 q 983 669 976 748 l 701 669 q 682 717 695 696 q 648 753 669 739 q 600 776 627 768 q 537 784 572 784 q 418 751 467 784 q 345 657 370 719 q 320 506 320 595 q 345 354 320 416 q 419 259 370 292 q 541 227 469 227 q 640 244 600 227 q 702 295 680 262 q 723 371 723 328 l 822 371 l 822 304 q 800 169 822 229 q 735 68 777 109 q 633 6 693 28 q 497 -15 572 -15 m 824 0 l 789 228 l 789 366 l 540 366 l 540 564 l 993 564 l 993 0 l 824 0 m 433 1320 l 520 1210 l 610 1320 l 818 1320 l 818 1318 l 618 1099 l 422 1099 l 226 1318 l 226 1320 l 433 1320 z "},"":{"ha":1047,"x_min":36,"x_max":993,"o":"m 497 -15 q 265 48 370 -15 q 98 228 160 111 q 36 504 36 345 q 102 788 36 672 q 280 965 168 905 q 528 1025 391 1025 q 699 1000 619 1025 q 840 927 779 975 q 939 813 901 879 q 983 669 976 748 l 701 669 q 682 717 695 696 q 648 753 669 739 q 600 776 627 768 q 537 784 572 784 q 418 751 467 784 q 345 657 370 719 q 320 506 320 595 q 345 354 320 416 q 419 259 370 292 q 541 227 469 227 q 640 244 600 227 q 702 295 680 262 q 723 371 723 328 l 822 371 l 822 304 q 800 169 822 229 q 735 68 777 109 q 633 6 693 28 q 497 -15 572 -15 m 824 0 l 789 228 l 789 366 l 540 366 l 540 564 l 993 564 l 993 0 l 824 0 m 423 1099 l 541 1320 l 783 1320 l 602 1099 l 423 1099 z "},"":{"ha":1047,"x_min":36,"x_max":993,"o":"m 497 -15 q 265 48 370 -15 q 98 228 160 111 q 36 504 36 345 q 102 788 36 672 q 280 965 168 905 q 528 1025 391 1025 q 699 1000 619 1025 q 840 927 779 975 q 939 813 901 879 q 983 669 976 748 l 701 669 q 682 717 695 696 q 648 753 669 739 q 600 776 627 768 q 537 784 572 784 q 418 751 467 784 q 345 657 370 719 q 320 506 320 595 q 345 354 320 416 q 419 259 370 292 q 541 227 469 227 q 640 244 600 227 q 702 295 680 262 q 723 371 723 328 l 822 371 l 822 304 q 800 169 822 229 q 735 68 777 109 q 633 6 693 28 q 497 -15 572 -15 m 824 0 l 789 228 l 789 366 l 540 366 l 540 564 l 993 564 l 993 0 l 824 0 m 725 1278 l 725 1121 l 318 1121 l 318 1278 l 725 1278 z "},"H":{"ha":1023,"x_min":59,"x_max":964,"o":"m 59 0 l 59 1010 l 338 1010 l 338 630 l 686 630 l 686 1010 l 964 1010 l 964 0 l 686 0 l 686 399 l 338 399 l 338 0 l 59 0 z "},"Ḩ":{"ha":1023,"x_min":59,"x_max":964,"o":"m 59 0 l 59 1010 l 338 1010 l 338 630 l 686 630 l 686 1010 l 964 1010 l 964 0 l 686 0 l 686 399 l 338 399 l 338 0 l 59 0 m 101 -283 l 101 -192 l 186 -192 q 228 -182 214 -192 q 241 -154 241 -173 q 228 -126 241 -135 q 186 -117 214 -117 l 125 -117 l 153 27 l 245 27 l 245 0 l 241 -55 q 339 -82 304 -52 q 375 -164 375 -113 q 333 -254 375 -224 q 208 -283 292 -283 l 101 -283 z "},"Ĥ":{"ha":1023,"x_min":59,"x_max":964,"o":"m 59 0 l 59 1010 l 338 1010 l 338 630 l 686 630 l 686 1010 l 964 1010 l 964 0 l 686 0 l 686 399 l 338 399 l 338 0 l 59 0 m 423 1099 l 216 1099 l 216 1101 l 412 1320 l 608 1320 l 808 1101 l 808 1099 l 600 1099 l 510 1209 l 423 1099 z "},"Ȟ":{"ha":1023,"x_min":59,"x_max":964,"o":"m 59 0 l 59 1010 l 338 1010 l 338 630 l 686 630 l 686 1010 l 964 1010 l 964 0 l 686 0 l 686 399 l 338 399 l 338 0 l 59 0 m 423 1320 l 510 1210 l 600 1320 l 808 1320 l 808 1318 l 608 1099 l 412 1099 l 216 1318 l 216 1320 l 423 1320 z "},"Ḣ":{"ha":1023,"x_min":59,"x_max":964,"o":"m 59 0 l 59 1010 l 338 1010 l 338 630 l 686 630 l 686 1010 l 964 1010 l 964 0 l 686 0 l 686 399 l 338 399 l 338 0 l 59 0 m 511 1071 q 411 1107 451 1071 q 371 1199 371 1144 q 411 1290 371 1254 q 511 1326 451 1326 q 611 1290 571 1326 q 651 1199 651 1254 q 611 1107 651 1144 q 511 1071 571 1071 z "},"Ḥ":{"ha":1023,"x_min":59,"x_max":964,"o":"m 59 0 l 59 1010 l 338 1010 l 338 630 l 686 630 l 686 1010 l 964 1010 l 964 0 l 686 0 l 686 399 l 338 399 l 338 0 l 59 0 m 511 -333 q 411 -296 451 -333 q 371 -205 371 -260 q 411 -114 371 -150 q 511 -77 451 -77 q 611 -114 571 -77 q 651 -205 651 -150 q 611 -296 651 -260 q 511 -333 571 -333 z "},"Ḧ":{"ha":1023,"x_min":59,"x_max":964,"o":"m 59 0 l 59 1010 l 338 1010 l 338 630 l 686 630 l 686 1010 l 964 1010 l 964 0 l 686 0 l 686 399 l 338 399 l 338 0 l 59 0 m 669 1078 q 577 1113 614 1078 q 541 1200 541 1148 q 577 1287 541 1253 q 669 1322 614 1322 q 761 1287 724 1322 q 798 1200 798 1253 q 761 1113 798 1147 q 669 1078 724 1078 m 353 1078 q 262 1113 298 1078 q 225 1200 225 1148 q 262 1287 225 1253 q 353 1322 298 1322 q 446 1287 409 1322 q 482 1200 482 1253 q 446 1113 482 1147 q 353 1078 409 1078 z "},"Ḫ":{"ha":1023,"x_min":59,"x_max":964,"o":"m 59 0 l 59 1010 l 338 1010 l 338 630 l 686 630 l 686 1010 l 964 1010 l 964 0 l 686 0 l 686 399 l 338 399 l 338 0 l 59 0 m 512 -315 q 376 -284 436 -315 q 281 -203 316 -254 q 246 -88 246 -151 l 393 -88 q 427 -156 393 -129 q 512 -184 460 -184 q 596 -156 563 -184 q 630 -88 630 -129 l 778 -88 q 743 -203 778 -151 q 648 -284 708 -254 q 512 -315 588 -315 z "},"Ħ":{"ha":1145,"x_min":32,"x_max":1113,"o":"m 1113 860 l 1113 730 l 32 730 l 32 860 l 1113 860 m 116 0 l 116 1010 l 395 1010 l 395 630 l 743 630 l 743 1010 l 1021 1010 l 1021 0 l 743 0 l 743 399 l 395 399 l 395 0 l 116 0 z "},"Ӈ":{"ha":1023,"x_min":59,"x_max":964,"o":"m 537 -283 l 537 -73 q 575 -75 553 -75 q 623 -76 597 -76 q 672 -63 657 -76 q 686 -21 686 -50 l 686 81 l 964 81 l 964 -37 q 893 -227 964 -163 q 678 -290 821 -290 q 600 -289 636 -290 q 537 -283 563 -287 m 59 0 l 59 1010 l 338 1010 l 338 630 l 686 630 l 686 1010 l 964 1010 l 964 0 l 686 0 l 686 399 l 338 399 l 338 0 l 59 0 z "},"Ң":{"ha":1078,"x_min":59,"x_max":1080,"o":"m 59 0 l 59 1010 l 338 1010 l 338 630 l 686 630 l 686 1010 l 964 1010 l 964 0 l 686 0 l 686 399 l 338 399 l 338 0 l 59 0 m 802 -217 l 802 0 l 736 0 l 736 222 l 1080 222 l 1063 -217 l 802 -217 z "},"Ӊ":{"ha":1023,"x_min":59,"x_max":1090,"o":"m 59 0 l 59 1010 l 338 1010 l 338 630 l 686 630 l 686 1010 l 964 1010 l 964 0 l 686 0 l 686 399 l 338 399 l 338 0 l 59 0 m 709 -217 l 780 0 l 715 0 l 715 203 l 1090 203 l 955 -217 l 709 -217 z "},"Ҥ":{"ha":1405,"x_min":59,"x_max":1373,"o":"m 1373 1010 l 1373 789 l 928 789 l 696 1010 l 1373 1010 m 59 0 l 59 1010 l 338 1010 l 338 630 l 686 630 l 686 1010 l 964 1010 l 964 0 l 686 0 l 686 399 l 338 399 l 338 0 l 59 0 z "},"Ƕ":{"ha":1533,"x_min":59,"x_max":1470,"o":"m 1080 -15 q 873 27 962 -15 q 735 146 784 70 q 686 325 686 222 l 686 394 l 338 394 l 338 0 l 59 0 l 59 1010 l 338 1010 l 338 625 l 686 625 l 686 1010 l 964 1010 l 964 334 q 979 266 964 295 q 1019 222 993 237 q 1082 206 1045 206 q 1143 222 1118 206 q 1183 266 1169 237 q 1198 334 1198 295 l 1198 720 l 1470 720 l 1470 325 q 1422 146 1470 222 q 1285 27 1373 70 q 1080 -15 1198 -15 z "},"Η":{"ha":1023,"x_min":59,"x_max":964,"o":"m 59 0 l 59 1010 l 338 1010 l 338 630 l 686 630 l 686 1010 l 964 1010 l 964 0 l 686 0 l 686 399 l 338 399 l 338 0 l 59 0 z "},"Ή":{"ha":1316,"x_min":32,"x_max":1257,"o":"m 352 0 l 352 1010 l 631 1010 l 631 630 l 979 630 l 979 1010 l 1257 1010 l 1257 0 l 979 0 l 979 399 l 631 399 l 631 0 l 352 0 m 32 789 l 54 1010 l 281 1010 l 184 789 l 32 789 z "},"Ἠ":{"ha":1297,"x_min":32,"x_max":1238,"o":"m 332 0 l 332 1010 l 611 1010 l 611 630 l 960 630 l 960 1010 l 1238 1010 l 1238 0 l 960 0 l 960 399 l 611 399 l 611 0 l 332 0 m 60 774 l 52 774 l 52 839 l 66 839 q 118 847 101 839 q 135 874 135 856 q 120 900 135 891 q 76 908 106 908 l 32 908 l 32 1021 l 60 1021 q 203 986 152 1021 q 255 894 255 951 q 203 806 255 838 q 60 774 151 774 z "},"Ἡ":{"ha":1313,"x_min":32,"x_max":1254,"o":"m 349 0 l 349 1010 l 627 1010 l 627 630 l 976 630 l 976 1010 l 1254 1010 l 1254 0 l 976 0 l 976 399 l 627 399 l 627 0 l 349 0 m 227 766 q 84 798 136 766 q 32 886 32 829 q 83 978 32 943 q 227 1013 135 1013 l 255 1013 l 255 900 l 211 900 q 167 891 182 900 q 152 866 152 883 q 169 839 152 848 q 220 831 186 831 l 235 831 l 235 766 l 227 766 z "},"Ἢ":{"ha":1554,"x_min":32,"x_max":1495,"o":"m 589 0 l 589 1010 l 868 1010 l 868 630 l 1217 630 l 1217 1010 l 1495 1010 l 1495 0 l 1217 0 l 1217 399 l 868 399 l 868 0 l 589 0 m 60 766 l 52 766 l 52 831 l 66 831 q 118 839 101 831 q 135 866 135 848 q 120 891 135 883 q 76 900 106 900 l 32 900 l 32 1013 l 60 1013 q 203 978 152 1013 q 255 886 255 943 q 203 798 255 829 q 60 766 151 766 m 476 772 l 346 772 l 262 1010 l 457 1010 l 476 772 z "},"Ἣ":{"ha":1595,"x_min":32,"x_max":1536,"o":"m 631 0 l 631 1010 l 909 1010 l 909 630 l 1258 630 l 1258 1010 l 1536 1010 l 1536 0 l 1258 0 l 1258 399 l 909 399 l 909 0 l 631 0 m 227 766 q 84 798 136 766 q 32 886 32 829 q 83 978 32 943 q 227 1013 135 1013 l 255 1013 l 255 900 l 211 900 q 167 891 182 900 q 152 866 152 883 q 169 839 152 848 q 220 831 186 831 l 235 831 l 235 766 l 227 766 m 505 772 l 375 772 l 292 1010 l 486 1010 l 505 772 z "},"Ἤ":{"ha":1565,"x_min":32,"x_max":1506,"o":"m 600 0 l 600 1010 l 879 1010 l 879 630 l 1227 630 l 1227 1010 l 1506 1010 l 1506 0 l 1227 0 l 1227 399 l 879 399 l 879 0 l 600 0 m 60 766 l 52 766 l 52 831 l 66 831 q 118 839 101 831 q 135 866 135 848 q 120 891 135 883 q 76 900 106 900 l 32 900 l 32 1013 l 60 1013 q 203 978 152 1013 q 255 886 255 943 q 203 798 255 829 q 60 766 151 766 m 320 772 l 338 1010 l 534 1010 l 450 772 l 320 772 z "},"Ἥ":{"ha":1594,"x_min":32,"x_max":1535,"o":"m 630 0 l 630 1010 l 909 1010 l 909 630 l 1257 630 l 1257 1010 l 1535 1010 l 1535 0 l 1257 0 l 1257 399 l 909 399 l 909 0 l 630 0 m 227 766 q 84 798 136 766 q 32 886 32 829 q 83 978 32 943 q 227 1013 135 1013 l 255 1013 l 255 900 l 211 900 q 167 891 182 900 q 152 866 152 883 q 169 839 152 848 q 220 831 186 831 l 235 831 l 235 766 l 227 766 m 345 772 l 363 1010 l 557 1010 l 474 772 l 345 772 z "},"Ἦ":{"ha":1440,"x_min":32,"x_max":1381,"o":"m 476 0 l 476 1010 l 755 1010 l 755 630 l 1103 630 l 1103 1010 l 1381 1010 l 1381 0 l 1103 0 l 1103 399 l 755 399 l 755 0 l 476 0 m 203 777 l 194 777 l 194 842 l 209 842 q 260 850 243 842 q 277 877 277 859 q 262 902 277 894 q 218 911 248 911 l 174 911 l 174 1023 l 203 1023 q 346 988 294 1023 q 397 897 397 954 q 346 809 397 840 q 203 777 294 777 m 380 1077 q 319 1088 344 1077 q 275 1113 294 1099 q 241 1139 257 1128 q 208 1150 225 1150 q 173 1133 185 1150 q 159 1082 160 1115 l 32 1082 q 79 1225 34 1178 q 191 1272 125 1272 q 252 1261 227 1272 q 297 1237 278 1251 q 332 1212 316 1223 q 364 1201 347 1201 q 402 1219 391 1201 q 414 1268 413 1236 l 539 1268 q 492 1125 538 1174 q 380 1077 446 1077 z "},"Ἧ":{"ha":1463,"x_min":32,"x_max":1404,"o":"m 499 0 l 499 1010 l 778 1010 l 778 630 l 1126 630 l 1126 1010 l 1404 1010 l 1404 0 l 1126 0 l 1126 399 l 778 399 l 778 0 l 499 0 m 369 764 q 226 796 278 764 q 174 884 174 827 q 226 976 174 941 q 369 1010 277 1010 l 397 1010 l 397 898 l 353 898 q 309 889 323 898 q 294 864 294 881 q 311 838 294 846 q 363 829 328 829 l 378 829 l 378 764 l 369 764 m 380 1064 q 319 1075 344 1064 q 275 1100 294 1086 q 241 1126 257 1115 q 208 1137 225 1137 q 173 1120 185 1137 q 159 1069 160 1102 l 32 1069 q 79 1212 34 1165 q 191 1259 125 1259 q 252 1249 227 1259 q 297 1224 278 1238 q 332 1199 316 1210 q 364 1188 347 1188 q 402 1206 391 1188 q 414 1255 413 1223 l 539 1255 q 492 1113 538 1161 q 380 1064 446 1064 z "},"Ὴ":{"ha":1310,"x_min":-55,"x_max":1251,"o":"m 345 0 l 345 1010 l 624 1010 l 624 630 l 972 630 l 972 1010 l 1251 1010 l 1251 0 l 972 0 l 972 399 l 624 399 l 624 0 l 345 0 m 195 823 l 43 823 l -55 1044 l 173 1044 l 195 823 z "},"Ή":{"ha":1316,"x_min":32,"x_max":1257,"o":"m 352 0 l 352 1010 l 631 1010 l 631 630 l 979 630 l 979 1010 l 1257 1010 l 1257 0 l 979 0 l 979 399 l 631 399 l 631 0 l 352 0 m 32 789 l 54 1010 l 281 1010 l 184 789 l 32 789 z "},"Н":{"ha":1023,"x_min":59,"x_max":964,"o":"m 59 0 l 59 1010 l 338 1010 l 338 630 l 686 630 l 686 1010 l 964 1010 l 964 0 l 686 0 l 686 399 l 338 399 l 338 0 l 59 0 z "},"ᾘ":{"ha":1297,"x_min":32,"x_max":1238,"o":"m 332 0 l 332 1010 l 611 1010 l 611 630 l 960 630 l 960 1010 l 1238 1010 l 1238 0 l 960 0 l 960 399 l 611 399 l 611 0 l 332 0 m 835 -319 q 728 -281 765 -319 q 692 -182 692 -244 l 692 -80 l 879 -80 l 879 -165 q 886 -191 879 -183 q 917 -199 894 -199 q 931 -199 922 -199 q 953 -199 941 -199 l 953 -314 q 895 -317 927 -316 q 835 -319 862 -319 m 60 774 l 52 774 l 52 839 l 66 839 q 118 847 101 839 q 135 874 135 856 q 120 900 135 891 q 76 908 106 908 l 32 908 l 32 1021 l 60 1021 q 203 986 152 1021 q 255 894 255 951 q 203 806 255 838 q 60 774 151 774 z "},"ᾙ":{"ha":1313,"x_min":32,"x_max":1254,"o":"m 349 0 l 349 1010 l 627 1010 l 627 630 l 976 630 l 976 1010 l 1254 1010 l 1254 0 l 976 0 l 976 399 l 627 399 l 627 0 l 349 0 m 850 -319 q 744 -281 781 -319 q 707 -182 707 -244 l 707 -80 l 895 -80 l 895 -165 q 902 -191 895 -183 q 932 -199 909 -199 q 947 -199 938 -199 q 968 -199 956 -199 l 968 -314 q 910 -317 943 -316 q 850 -319 878 -319 m 227 766 q 84 798 136 766 q 32 886 32 829 q 83 978 32 943 q 227 1013 135 1013 l 255 1013 l 255 900 l 211 900 q 167 891 182 900 q 152 866 152 883 q 169 839 152 848 q 220 831 186 831 l 235 831 l 235 766 l 227 766 z "},"ᾚ":{"ha":1554,"x_min":32,"x_max":1495,"o":"m 589 0 l 589 1010 l 868 1010 l 868 630 l 1217 630 l 1217 1010 l 1495 1010 l 1495 0 l 1217 0 l 1217 399 l 868 399 l 868 0 l 589 0 m 1092 -319 q 985 -281 1022 -319 q 949 -182 949 -244 l 949 -80 l 1136 -80 l 1136 -165 q 1143 -191 1136 -183 q 1174 -199 1151 -199 q 1188 -199 1179 -199 q 1210 -199 1198 -199 l 1210 -314 q 1152 -317 1184 -316 q 1092 -319 1119 -319 m 60 766 l 52 766 l 52 831 l 66 831 q 118 839 101 831 q 135 866 135 848 q 120 891 135 883 q 76 900 106 900 l 32 900 l 32 1013 l 60 1013 q 203 978 152 1013 q 255 886 255 943 q 203 798 255 829 q 60 766 151 766 m 476 772 l 346 772 l 262 1010 l 457 1010 l 476 772 z "},"ᾛ":{"ha":1595,"x_min":32,"x_max":1536,"o":"m 631 0 l 631 1010 l 909 1010 l 909 630 l 1258 630 l 1258 1010 l 1536 1010 l 1536 0 l 1258 0 l 1258 399 l 909 399 l 909 0 l 631 0 m 1133 -319 q 1026 -281 1063 -319 q 989 -182 989 -244 l 989 -80 l 1177 -80 l 1177 -165 q 1184 -191 1177 -183 q 1215 -199 1192 -199 q 1229 -199 1220 -199 q 1251 -199 1238 -199 l 1251 -314 q 1192 -317 1225 -316 q 1133 -319 1160 -319 m 227 766 q 84 798 136 766 q 32 886 32 829 q 83 978 32 943 q 227 1013 135 1013 l 255 1013 l 255 900 l 211 900 q 167 891 182 900 q 152 866 152 883 q 169 839 152 848 q 220 831 186 831 l 235 831 l 235 766 l 227 766 m 505 772 l 375 772 l 292 1010 l 486 1010 l 505 772 z "},"ᾜ":{"ha":1565,"x_min":32,"x_max":1506,"o":"m 600 0 l 600 1010 l 879 1010 l 879 630 l 1227 630 l 1227 1010 l 1506 1010 l 1506 0 l 1227 0 l 1227 399 l 879 399 l 879 0 l 600 0 m 1103 -319 q 996 -281 1033 -319 q 960 -182 960 -244 l 960 -80 l 1147 -80 l 1147 -165 q 1154 -191 1147 -183 q 1185 -199 1162 -199 q 1199 -199 1190 -199 q 1221 -199 1208 -199 l 1221 -314 q 1162 -317 1195 -316 q 1103 -319 1130 -319 m 60 766 l 52 766 l 52 831 l 66 831 q 118 839 101 831 q 135 866 135 848 q 120 891 135 883 q 76 900 106 900 l 32 900 l 32 1013 l 60 1013 q 203 978 152 1013 q 255 886 255 943 q 203 798 255 829 q 60 766 151 766 m 320 772 l 338 1010 l 534 1010 l 450 772 l 320 772 z "},"ᾝ":{"ha":1594,"x_min":32,"x_max":1535,"o":"m 630 0 l 630 1010 l 909 1010 l 909 630 l 1257 630 l 1257 1010 l 1535 1010 l 1535 0 l 1257 0 l 1257 399 l 909 399 l 909 0 l 630 0 m 1132 -319 q 1025 -281 1062 -319 q 989 -182 989 -244 l 989 -80 l 1176 -80 l 1176 -165 q 1183 -191 1176 -183 q 1214 -199 1191 -199 q 1229 -199 1219 -199 q 1250 -199 1238 -199 l 1250 -314 q 1192 -317 1224 -316 q 1132 -319 1159 -319 m 227 766 q 84 798 136 766 q 32 886 32 829 q 83 978 32 943 q 227 1013 135 1013 l 255 1013 l 255 900 l 211 900 q 167 891 182 900 q 152 866 152 883 q 169 839 152 848 q 220 831 186 831 l 235 831 l 235 766 l 227 766 m 345 772 l 363 1010 l 557 1010 l 474 772 l 345 772 z "},"ᾞ":{"ha":1440,"x_min":32,"x_max":1381,"o":"m 476 0 l 476 1010 l 755 1010 l 755 630 l 1103 630 l 1103 1010 l 1381 1010 l 1381 0 l 1103 0 l 1103 399 l 755 399 l 755 0 l 476 0 m 979 -319 q 872 -281 909 -319 q 836 -182 836 -244 l 836 -80 l 1023 -80 l 1023 -165 q 1030 -191 1023 -183 q 1061 -199 1038 -199 q 1075 -199 1066 -199 q 1097 -199 1084 -199 l 1097 -314 q 1038 -317 1071 -316 q 979 -319 1006 -319 m 203 777 l 194 777 l 194 842 l 209 842 q 260 850 243 842 q 277 877 277 859 q 262 902 277 894 q 218 911 248 911 l 174 911 l 174 1023 l 203 1023 q 346 988 294 1023 q 397 897 397 954 q 346 809 397 840 q 203 777 294 777 m 380 1077 q 319 1088 344 1077 q 275 1113 294 1099 q 241 1139 257 1128 q 208 1150 225 1150 q 173 1133 185 1150 q 159 1082 160 1115 l 32 1082 q 79 1225 34 1178 q 191 1272 125 1272 q 252 1261 227 1272 q 297 1237 278 1251 q 332 1212 316 1223 q 364 1201 347 1201 q 402 1219 391 1201 q 414 1268 413 1236 l 539 1268 q 492 1125 538 1174 q 380 1077 446 1077 z "},"ᾟ":{"ha":1463,"x_min":32,"x_max":1404,"o":"m 499 0 l 499 1010 l 778 1010 l 778 630 l 1126 630 l 1126 1010 l 1404 1010 l 1404 0 l 1126 0 l 1126 399 l 778 399 l 778 0 l 499 0 m 1002 -319 q 895 -281 932 -319 q 859 -182 859 -244 l 859 -80 l 1046 -80 l 1046 -165 q 1053 -191 1046 -183 q 1084 -199 1061 -199 q 1098 -199 1089 -199 q 1120 -199 1107 -199 l 1120 -314 q 1061 -317 1094 -316 q 1002 -319 1029 -319 m 369 764 q 226 796 278 764 q 174 884 174 827 q 226 976 174 941 q 369 1010 277 1010 l 397 1010 l 397 898 l 353 898 q 309 889 323 898 q 294 864 294 881 q 311 838 294 846 q 363 829 328 829 l 378 829 l 378 764 l 369 764 m 380 1064 q 319 1075 344 1064 q 275 1100 294 1086 q 241 1126 257 1115 q 208 1137 225 1137 q 173 1120 185 1137 q 159 1069 160 1102 l 32 1069 q 79 1212 34 1165 q 191 1259 125 1259 q 252 1249 227 1259 q 297 1224 278 1238 q 332 1199 316 1210 q 364 1188 347 1188 q 402 1206 391 1188 q 414 1255 413 1223 l 539 1255 q 492 1113 538 1161 q 380 1064 446 1064 z "},"ῌ":{"ha":1023,"x_min":59,"x_max":964,"o":"m 59 0 l 59 1010 l 338 1010 l 338 630 l 686 630 l 686 1010 l 964 1010 l 964 0 l 686 0 l 686 399 l 338 399 l 338 0 l 59 0 m 562 -319 q 455 -281 492 -319 q 418 -182 418 -244 l 418 -80 l 606 -80 l 606 -165 q 613 -191 606 -183 q 644 -199 621 -199 q 658 -199 649 -199 q 680 -199 667 -199 l 680 -314 q 621 -317 654 -316 q 562 -319 589 -319 z "},"I":{"ha":397,"x_min":59,"x_max":338,"o":"m 338 1010 l 338 0 l 59 0 l 59 1010 l 338 1010 z "},"":{"ha":793,"x_min":59,"x_max":734,"o":"m 338 1010 l 338 0 l 59 0 l 59 1010 l 338 1010 m 734 1010 l 734 0 l 456 0 l 456 1010 l 734 1010 z "},"Ï":{"ha":397,"x_min":-87,"x_max":486,"o":"m 338 1010 l 338 0 l 59 0 l 59 1010 l 338 1010 m 357 1078 q 265 1113 302 1078 q 228 1200 228 1148 q 265 1287 228 1253 q 357 1322 302 1322 q 449 1287 412 1322 q 486 1200 486 1253 q 449 1113 486 1147 q 357 1078 412 1078 m 41 1078 q -51 1113 -14 1078 q -87 1200 -87 1148 q -51 1287 -87 1253 q 41 1322 -14 1322 q 133 1287 96 1322 q 170 1200 170 1253 q 133 1113 170 1147 q 41 1078 96 1078 z "},"Ḯ":{"ha":397,"x_min":-94,"x_max":479,"o":"m 338 1010 l 338 0 l 59 0 l 59 1010 l 338 1010 m 351 1070 q 259 1105 296 1070 q 222 1193 222 1141 q 259 1280 222 1245 q 351 1315 296 1315 q 443 1280 406 1315 q 479 1193 479 1245 q 443 1105 479 1140 q 351 1070 406 1070 m 35 1070 q -57 1105 -20 1070 q -94 1193 -94 1141 q -57 1280 -94 1245 q 35 1315 -20 1315 q 127 1280 90 1315 q 163 1193 163 1245 q 127 1105 163 1140 q 35 1070 90 1070 m 118 1352 l 219 1541 l 428 1541 l 271 1352 l 118 1352 z "},"Ɨ":{"ha":525,"x_min":9,"x_max":515,"o":"m 401 1010 l 401 0 l 123 0 l 123 1010 l 401 1010 m 9 490 l 9 578 l 515 578 l 515 490 l 9 490 z "},"Ḭ":{"ha":397,"x_min":-71,"x_max":467,"o":"m 338 1010 l 338 0 l 59 0 l 59 1010 l 338 1010 m 298 -304 q 233 -292 260 -304 q 187 -263 206 -279 q 151 -235 168 -247 q 115 -222 134 -222 q 78 -242 92 -222 q 64 -298 65 -261 l -71 -298 q -20 -139 -68 -191 q 98 -87 28 -87 q 163 -99 136 -87 q 210 -126 190 -111 q 247 -154 230 -142 q 281 -165 263 -165 q 321 -146 309 -165 q 334 -91 333 -126 l 467 -91 q 416 -250 465 -195 q 298 -304 368 -304 z "},"Ì":{"ha":397,"x_min":-62,"x_max":338,"o":"m 338 1010 l 338 0 l 59 0 l 59 1010 l 338 1010 m 118 1099 l -63 1320 l 179 1320 l 297 1099 l 118 1099 z "},"Í":{"ha":397,"x_min":59,"x_max":460,"o":"m 338 1010 l 338 0 l 59 0 l 59 1010 l 338 1010 m 100 1099 l 218 1320 l 460 1320 l 279 1099 l 100 1099 z "},"Î":{"ha":397,"x_min":-97,"x_max":495,"o":"m 338 1010 l 338 0 l 59 0 l 59 1010 l 338 1010 m 111 1099 l -97 1099 l -97 1101 l 100 1320 l 296 1320 l 495 1101 l 495 1099 l 288 1099 l 197 1209 l 111 1099 z "},"Ĩ":{"ha":397,"x_min":-70,"x_max":467,"o":"m 338 1010 l 338 0 l 59 0 l 59 1010 l 338 1010 m 299 1100 q 234 1112 260 1100 q 188 1141 207 1124 q 152 1169 168 1157 q 116 1181 135 1181 q 79 1162 92 1181 q 64 1105 66 1143 l -70 1105 q -20 1265 -68 1213 q 98 1317 28 1317 q 163 1305 136 1317 q 211 1278 191 1293 q 247 1250 231 1262 q 281 1238 264 1238 q 322 1258 310 1238 q 334 1313 334 1278 l 467 1313 q 417 1154 466 1208 q 299 1100 368 1100 z "},"Ī":{"ha":397,"x_min":-5,"x_max":402,"o":"m 338 1010 l 338 0 l 59 0 l 59 1010 l 338 1010 m 402 1278 l 402 1121 l -5 1121 l -5 1278 l 402 1278 z "},"Ĭ":{"ha":397,"x_min":-67,"x_max":465,"o":"m 338 1010 l 338 0 l 59 0 l 59 1010 l 338 1010 m 199 1088 q 63 1118 123 1088 q -32 1200 3 1148 q -67 1314 -67 1251 l 79 1314 q 113 1246 79 1274 q 199 1219 147 1219 q 283 1246 250 1219 q 317 1314 317 1274 l 465 1314 q 430 1200 465 1251 q 335 1118 395 1148 q 199 1088 275 1088 z "},"Į":{"ha":397,"x_min":-5,"x_max":349,"o":"m 338 1010 l 338 0 l 59 0 l 59 1010 l 338 1010 m 208 -286 q 51 -247 106 -286 q -5 -136 -5 -207 q 17 -52 -5 -91 q 75 18 39 -13 l 338 0 q 260 -45 281 -23 q 239 -94 239 -67 q 251 -126 239 -115 q 287 -137 263 -137 q 308 -135 298 -137 q 328 -131 317 -134 l 349 -271 q 281 -282 321 -278 q 208 -286 241 -286 z "},"İ":{"ha":397,"x_min":58,"x_max":338,"o":"m 338 1010 l 338 0 l 59 0 l 59 1010 l 338 1010 m 199 1071 q 98 1107 138 1071 q 58 1199 58 1144 q 98 1290 58 1254 q 198 1326 138 1326 q 298 1290 258 1326 q 338 1199 338 1254 q 298 1107 338 1144 q 199 1071 258 1071 z "},"Ǐ":{"ha":397,"x_min":-97,"x_max":495,"o":"m 338 1010 l 338 0 l 59 0 l 59 1010 l 338 1010 m 111 1320 l 197 1210 l 288 1320 l 495 1320 l 495 1318 l 296 1099 l 100 1099 l -97 1318 l -97 1320 l 111 1320 z "},"Ȉ":{"ha":397,"x_min":-200,"x_max":432,"o":"m 338 1010 l 338 0 l 59 0 l 59 1010 l 338 1010 m 252 1099 l 125 1320 l 347 1320 l 431 1099 l 252 1099 m -7 1099 l -201 1320 l 43 1320 l 177 1099 l -7 1099 z "},"Ȋ":{"ha":397,"x_min":-67,"x_max":465,"o":"m 338 1010 l 338 0 l 59 0 l 59 1010 l 338 1010 m 199 1325 q 335 1295 275 1325 q 430 1214 395 1265 q 465 1099 465 1163 l 317 1099 q 283 1168 317 1141 q 199 1195 250 1195 q 114 1168 148 1195 q 80 1099 80 1141 l -66 1099 q -32 1214 -66 1163 q 63 1295 3 1265 q 199 1325 123 1325 z "},"Ỉ":{"ha":397,"x_min":50,"x_max":342,"o":"m 338 1010 l 338 0 l 59 0 l 59 1010 l 338 1010 m 269 1099 l 117 1099 l 170 1185 q 171 1188 172 1187 q 168 1190 170 1190 l 50 1190 l 50 1320 l 173 1320 q 280 1302 243 1320 q 330 1256 318 1284 q 333 1196 342 1227 q 302 1139 325 1164 l 269 1099 z "},"Ị":{"ha":397,"x_min":58,"x_max":338,"o":"m 338 1010 l 338 0 l 59 0 l 59 1010 l 338 1010 m 197 -333 q 97 -296 137 -333 q 57 -205 57 -260 q 97 -114 57 -150 q 197 -77 137 -77 q 297 -114 257 -77 q 337 -205 337 -150 q 297 -296 337 -260 q 197 -333 257 -333 z "},"Ɩ":{"ha":447,"x_min":63,"x_max":434,"o":"m 336 -2 q 128 51 193 -2 q 63 221 63 104 l 63 1010 l 335 1010 l 335 247 q 348 212 335 224 q 385 199 361 199 q 403 200 395 199 q 417 201 411 200 l 434 7 q 391 1 416 5 q 336 -2 366 -2 z "},"Ι":{"ha":397,"x_min":59,"x_max":338,"o":"m 338 1010 l 338 0 l 59 0 l 59 1010 l 338 1010 z "},"Ί":{"ha":690,"x_min":32,"x_max":631,"o":"m 631 1010 l 631 0 l 352 0 l 352 1010 l 631 1010 m 32 789 l 54 1010 l 281 1010 l 184 789 l 32 789 z "},"Ϊ":{"ha":397,"x_min":-87,"x_max":486,"o":"m 338 1010 l 338 0 l 59 0 l 59 1010 l 338 1010 m 357 1078 q 265 1113 302 1078 q 228 1200 228 1148 q 265 1287 228 1253 q 357 1322 302 1322 q 449 1287 412 1322 q 486 1200 486 1253 q 449 1113 486 1147 q 357 1078 412 1078 m 41 1078 q -51 1113 -14 1078 q -87 1200 -87 1148 q -51 1287 -87 1253 q 41 1322 -14 1322 q 133 1287 96 1322 q 170 1200 170 1253 q 133 1113 170 1147 q 41 1078 96 1078 z "},"Ἰ":{"ha":670,"x_min":32,"x_max":611,"o":"m 611 1010 l 611 0 l 332 0 l 332 1010 l 611 1010 m 60 774 l 52 774 l 52 839 l 66 839 q 118 847 101 839 q 135 874 135 856 q 120 900 135 891 q 76 908 106 908 l 32 908 l 32 1021 l 60 1021 q 203 986 152 1021 q 255 894 255 951 q 203 806 255 838 q 60 774 151 774 z "},"Ἱ":{"ha":686,"x_min":32,"x_max":627,"o":"m 627 1010 l 627 0 l 349 0 l 349 1010 l 627 1010 m 227 766 q 84 798 136 766 q 32 886 32 829 q 83 978 32 943 q 227 1013 135 1013 l 255 1013 l 255 900 l 211 900 q 167 891 182 900 q 152 866 152 883 q 169 839 152 848 q 220 831 186 831 l 235 831 l 235 766 l 227 766 z "},"Ἲ":{"ha":927,"x_min":32,"x_max":868,"o":"m 868 1010 l 868 0 l 589 0 l 589 1010 l 868 1010 m 60 766 l 52 766 l 52 831 l 66 831 q 118 839 101 831 q 135 866 135 848 q 120 891 135 883 q 76 900 106 900 l 32 900 l 32 1013 l 60 1013 q 203 978 152 1013 q 255 886 255 943 q 203 798 255 829 q 60 766 151 766 m 476 772 l 346 772 l 262 1010 l 457 1010 l 476 772 z "},"Ἳ":{"ha":968,"x_min":32,"x_max":909,"o":"m 909 1010 l 909 0 l 631 0 l 631 1010 l 909 1010 m 227 766 q 84 798 136 766 q 32 886 32 829 q 83 978 32 943 q 227 1013 135 1013 l 255 1013 l 255 900 l 211 900 q 167 891 182 900 q 152 866 152 883 q 169 839 152 848 q 220 831 186 831 l 235 831 l 235 766 l 227 766 m 505 772 l 375 772 l 292 1010 l 486 1010 l 505 772 z "},"Ἴ":{"ha":938,"x_min":32,"x_max":879,"o":"m 879 1010 l 879 0 l 600 0 l 600 1010 l 879 1010 m 60 766 l 52 766 l 52 831 l 66 831 q 118 839 101 831 q 135 866 135 848 q 120 891 135 883 q 76 900 106 900 l 32 900 l 32 1013 l 60 1013 q 203 978 152 1013 q 255 886 255 943 q 203 798 255 829 q 60 766 151 766 m 320 772 l 338 1010 l 534 1010 l 450 772 l 320 772 z "},"Ἵ":{"ha":968,"x_min":32,"x_max":909,"o":"m 909 1010 l 909 0 l 630 0 l 630 1010 l 909 1010 m 227 766 q 84 798 136 766 q 32 886 32 829 q 83 978 32 943 q 227 1013 135 1013 l 255 1013 l 255 900 l 211 900 q 167 891 182 900 q 152 866 152 883 q 169 839 152 848 q 220 831 186 831 l 235 831 l 235 766 l 227 766 m 345 772 l 363 1010 l 557 1010 l 474 772 l 345 772 z "},"Ἶ":{"ha":814,"x_min":32,"x_max":755,"o":"m 755 1010 l 755 0 l 476 0 l 476 1010 l 755 1010 m 203 777 l 194 777 l 194 842 l 209 842 q 260 850 243 842 q 277 877 277 859 q 262 902 277 894 q 218 911 248 911 l 174 911 l 174 1023 l 203 1023 q 346 988 294 1023 q 397 897 397 954 q 346 809 397 840 q 203 777 294 777 m 380 1077 q 319 1088 344 1077 q 275 1113 294 1099 q 241 1139 257 1128 q 208 1150 225 1150 q 173 1133 185 1150 q 159 1082 160 1115 l 32 1082 q 79 1225 34 1178 q 191 1272 125 1272 q 252 1261 227 1272 q 297 1237 278 1251 q 332 1212 316 1223 q 364 1201 347 1201 q 402 1219 391 1201 q 414 1268 413 1236 l 539 1268 q 492 1125 538 1174 q 380 1077 446 1077 z "},"Ἷ":{"ha":837,"x_min":32,"x_max":778,"o":"m 778 1010 l 778 0 l 499 0 l 499 1010 l 778 1010 m 369 764 q 226 796 278 764 q 174 884 174 827 q 226 976 174 941 q 369 1010 277 1010 l 397 1010 l 397 898 l 353 898 q 309 889 323 898 q 294 864 294 881 q 311 838 294 846 q 363 829 328 829 l 378 829 l 378 764 l 369 764 m 380 1064 q 319 1075 344 1064 q 275 1100 294 1086 q 241 1126 257 1115 q 208 1137 225 1137 q 173 1120 185 1137 q 159 1069 160 1102 l 32 1069 q 79 1212 34 1165 q 191 1259 125 1259 q 252 1249 227 1259 q 297 1224 278 1238 q 332 1199 316 1210 q 364 1188 347 1188 q 402 1206 391 1188 q 414 1255 413 1223 l 539 1255 q 492 1113 538 1161 q 380 1064 446 1064 z "},"Ῐ":{"ha":397,"x_min":-67,"x_max":465,"o":"m 338 1010 l 338 0 l 59 0 l 59 1010 l 338 1010 m 199 1088 q 63 1118 123 1088 q -32 1200 3 1148 q -67 1314 -67 1251 l 79 1314 q 113 1246 79 1274 q 199 1219 147 1219 q 283 1246 250 1219 q 317 1314 317 1274 l 465 1314 q 430 1200 465 1251 q 335 1118 395 1148 q 199 1088 275 1088 z "},"Ῑ":{"ha":397,"x_min":-5,"x_max":402,"o":"m 338 1010 l 338 0 l 59 0 l 59 1010 l 338 1010 m 402 1278 l 402 1121 l -5 1121 l -5 1278 l 402 1278 z "},"Ὶ":{"ha":683,"x_min":-55,"x_max":624,"o":"m 624 1010 l 624 0 l 345 0 l 345 1010 l 624 1010 m 195 823 l 43 823 l -55 1044 l 173 1044 l 195 823 z "},"Ί":{"ha":690,"x_min":32,"x_max":631,"o":"m 631 1010 l 631 0 l 352 0 l 352 1010 l 631 1010 m 32 789 l 54 1010 l 281 1010 l 184 789 l 32 789 z "},"І":{"ha":397,"x_min":59,"x_max":338,"o":"m 338 1010 l 338 0 l 59 0 l 59 1010 l 338 1010 z "},"Ї":{"ha":397,"x_min":-87,"x_max":486,"o":"m 338 1010 l 338 0 l 59 0 l 59 1010 l 338 1010 m 357 1078 q 265 1113 302 1078 q 228 1200 228 1148 q 265 1287 228 1253 q 357 1322 302 1322 q 449 1287 412 1322 q 486 1200 486 1253 q 449 1113 486 1147 q 357 1078 412 1078 m 41 1078 q -51 1113 -14 1078 q -87 1200 -87 1148 q -51 1287 -87 1253 q 41 1322 -14 1322 q 133 1287 96 1322 q 170 1200 170 1253 q 133 1113 170 1147 q 41 1078 96 1078 z "},"":{"ha":650,"x_min":37,"x_max":613,"o":"m 37 0 l 37 221 l 186 221 l 186 789 l 37 789 l 37 1010 l 613 1010 l 613 789 l 464 789 l 464 221 l 613 221 l 613 0 l 37 0 z "},"":{"ha":650,"x_min":37,"x_max":613,"o":"m 37 0 l 37 221 l 186 221 l 186 789 l 37 789 l 37 1010 l 613 1010 l 613 789 l 464 789 l 464 221 l 613 221 l 613 0 l 37 0 m 483 1078 q 391 1113 428 1078 q 354 1200 354 1148 q 391 1287 354 1253 q 483 1322 428 1322 q 575 1287 538 1322 q 612 1200 612 1253 q 575 1113 612 1147 q 483 1078 538 1078 m 167 1078 q 75 1113 112 1078 q 39 1200 39 1148 q 75 1287 39 1253 q 167 1322 112 1322 q 259 1287 222 1322 q 296 1200 296 1253 q 259 1113 296 1147 q 167 1078 222 1078 z "},"":{"ha":650,"x_min":33,"x_max":613,"o":"m 37 0 l 37 221 l 186 221 l 186 789 l 37 789 l 37 1010 l 613 1010 l 613 789 l 464 789 l 464 221 l 613 221 l 613 0 l 37 0 m 477 1070 q 385 1105 422 1070 q 348 1193 348 1141 q 385 1280 348 1245 q 477 1315 422 1315 q 569 1280 532 1315 q 606 1193 606 1245 q 569 1105 606 1140 q 477 1070 532 1070 m 161 1070 q 69 1105 106 1070 q 33 1193 33 1141 q 69 1280 33 1245 q 161 1315 106 1315 q 253 1280 216 1315 q 290 1193 290 1245 q 253 1105 290 1140 q 161 1070 216 1070 m 244 1352 l 345 1541 l 554 1541 l 397 1352 l 244 1352 z "},"":{"ha":650,"x_min":37,"x_max":613,"o":"m 37 0 l 37 221 l 186 221 l 186 789 l 37 789 l 37 1010 l 613 1010 l 613 789 l 464 789 l 464 221 l 613 221 l 613 0 l 37 0 m 71 490 l 71 578 l 577 578 l 577 490 l 71 490 z "},"":{"ha":650,"x_min":37,"x_max":613,"o":"m 37 0 l 37 221 l 186 221 l 186 789 l 37 789 l 37 1010 l 613 1010 l 613 789 l 464 789 l 464 221 l 613 221 l 613 0 l 37 0 m 425 -304 q 360 -292 387 -304 q 314 -263 333 -279 q 278 -235 294 -247 q 242 -222 261 -222 q 205 -242 218 -222 q 191 -298 192 -261 l 56 -298 q 106 -139 58 -191 q 224 -87 155 -87 q 290 -99 262 -87 q 337 -126 317 -111 q 373 -154 357 -142 q 408 -165 390 -165 q 448 -146 436 -165 q 460 -91 460 -126 l 593 -91 q 543 -250 592 -195 q 425 -304 494 -304 z "},"":{"ha":650,"x_min":37,"x_max":613,"o":"m 37 0 l 37 221 l 186 221 l 186 789 l 37 789 l 37 1010 l 613 1010 l 613 789 l 464 789 l 464 221 l 613 221 l 613 0 l 37 0 m 244 1099 l 63 1320 l 305 1320 l 423 1099 l 244 1099 z "},"":{"ha":650,"x_min":37,"x_max":613,"o":"m 37 0 l 37 221 l 186 221 l 186 789 l 37 789 l 37 1010 l 613 1010 l 613 789 l 464 789 l 464 221 l 613 221 l 613 0 l 37 0 m 227 1099 l 345 1320 l 587 1320 l 406 1099 l 227 1099 z "},"":{"ha":650,"x_min":29,"x_max":621,"o":"m 37 0 l 37 221 l 186 221 l 186 789 l 37 789 l 37 1010 l 613 1010 l 613 789 l 464 789 l 464 221 l 613 221 l 613 0 l 37 0 m 236 1099 l 28 1099 l 28 1101 l 225 1320 l 421 1320 l 621 1101 l 621 1099 l 413 1099 l 323 1209 l 236 1099 z "},"":{"ha":650,"x_min":37,"x_max":613,"o":"m 37 0 l 37 221 l 186 221 l 186 789 l 37 789 l 37 1010 l 613 1010 l 613 789 l 464 789 l 464 221 l 613 221 l 613 0 l 37 0 m 425 1100 q 360 1112 387 1100 q 314 1141 333 1124 q 278 1169 294 1157 q 242 1181 261 1181 q 205 1162 218 1181 q 191 1105 192 1143 l 56 1105 q 106 1265 58 1213 q 224 1317 155 1317 q 290 1305 262 1317 q 337 1278 317 1293 q 373 1250 357 1262 q 408 1238 390 1238 q 448 1258 436 1238 q 460 1313 460 1278 l 593 1313 q 543 1154 592 1208 q 425 1100 494 1100 z "},"":{"ha":650,"x_min":37,"x_max":613,"o":"m 37 0 l 37 221 l 186 221 l 186 789 l 37 789 l 37 1010 l 613 1010 l 613 789 l 464 789 l 464 221 l 613 221 l 613 0 l 37 0 m 528 1278 l 528 1121 l 121 1121 l 121 1278 l 528 1278 z "},"":{"ha":650,"x_min":37,"x_max":613,"o":"m 37 0 l 37 221 l 186 221 l 186 789 l 37 789 l 37 1010 l 613 1010 l 613 789 l 464 789 l 464 221 l 613 221 l 613 0 l 37 0 m 325 1088 q 189 1118 249 1088 q 94 1200 129 1148 q 59 1314 59 1251 l 205 1314 q 239 1246 205 1274 q 325 1219 273 1219 q 409 1246 376 1219 q 443 1314 443 1274 l 591 1314 q 556 1200 591 1251 q 461 1118 521 1148 q 325 1088 401 1088 z "},"":{"ha":650,"x_min":37,"x_max":624,"o":"m 37 0 l 37 221 l 186 221 l 186 789 l 37 789 l 37 1010 l 613 1010 l 613 789 l 464 789 l 464 221 l 613 221 l 613 0 l 37 0 m 484 -286 q 327 -247 382 -286 q 271 -136 271 -207 q 293 -52 271 -91 q 351 18 315 -13 l 614 0 q 536 -45 557 -23 q 515 -94 515 -67 q 527 -126 515 -115 q 563 -137 539 -137 q 584 -135 574 -137 q 604 -131 593 -134 l 625 -271 q 557 -282 597 -278 q 484 -286 517 -286 z "},"":{"ha":650,"x_min":37,"x_max":613,"o":"m 37 0 l 37 221 l 186 221 l 186 789 l 37 789 l 37 1010 l 613 1010 l 613 789 l 464 789 l 464 221 l 613 221 l 613 0 l 37 0 m 325 1071 q 224 1107 264 1071 q 184 1199 184 1144 q 224 1290 184 1254 q 324 1326 264 1326 q 425 1290 385 1326 q 465 1199 465 1254 q 425 1107 465 1144 q 325 1071 385 1071 z "},"":{"ha":650,"x_min":29,"x_max":621,"o":"m 37 0 l 37 221 l 186 221 l 186 789 l 37 789 l 37 1010 l 613 1010 l 613 789 l 464 789 l 464 221 l 613 221 l 613 0 l 37 0 m 236 1320 l 323 1210 l 413 1320 l 621 1320 l 621 1318 l 421 1099 l 225 1099 l 28 1318 l 28 1320 l 236 1320 z "},"":{"ha":650,"x_min":-75,"x_max":613,"o":"m 37 0 l 37 221 l 186 221 l 186 789 l 37 789 l 37 1010 l 613 1010 l 613 789 l 464 789 l 464 221 l 613 221 l 613 0 l 37 0 m 378 1099 l 252 1320 l 473 1320 l 557 1099 l 378 1099 m 119 1099 l -75 1320 l 170 1320 l 303 1099 l 119 1099 z "},"":{"ha":650,"x_min":37,"x_max":613,"o":"m 37 0 l 37 221 l 186 221 l 186 789 l 37 789 l 37 1010 l 613 1010 l 613 789 l 464 789 l 464 221 l 613 221 l 613 0 l 37 0 m 325 1325 q 460 1295 401 1325 q 555 1214 520 1265 q 591 1099 591 1163 l 442 1099 q 409 1168 442 1141 q 324 1195 376 1195 q 239 1168 273 1195 q 205 1099 205 1141 l 59 1099 q 94 1214 59 1163 q 189 1295 128 1265 q 325 1325 249 1325 z "},"":{"ha":650,"x_min":37,"x_max":613,"o":"m 37 0 l 37 221 l 186 221 l 186 789 l 37 789 l 37 1010 l 613 1010 l 613 789 l 464 789 l 464 221 l 613 221 l 613 0 l 37 0 m 395 1099 l 243 1099 l 296 1185 q 297 1188 298 1187 q 294 1190 296 1190 l 176 1190 l 176 1320 l 299 1320 q 407 1302 369 1320 q 456 1256 444 1284 q 459 1196 468 1227 q 429 1139 451 1164 l 395 1099 z "},"":{"ha":650,"x_min":37,"x_max":613,"o":"m 37 0 l 37 221 l 186 221 l 186 789 l 37 789 l 37 1010 l 613 1010 l 613 789 l 464 789 l 464 221 l 613 221 l 613 0 l 37 0 m 325 -333 q 224 -296 264 -333 q 184 -205 184 -260 q 224 -114 184 -150 q 324 -77 264 -77 q 425 -114 385 -77 q 465 -205 465 -150 q 425 -296 465 -260 q 325 -333 385 -333 z "},"":{"ha":946,"x_min":32,"x_max":909,"o":"m 333 0 l 333 221 l 482 221 l 482 789 l 333 789 l 333 1010 l 909 1010 l 909 789 l 760 789 l 760 221 l 909 221 l 909 0 l 333 0 m 60 774 l 52 774 l 52 839 l 66 839 q 118 847 101 839 q 135 874 135 856 q 120 900 135 891 q 76 908 106 908 l 32 908 l 32 1021 l 60 1021 q 203 986 152 1021 q 255 894 255 951 q 203 806 255 838 q 60 774 151 774 z "},"":{"ha":962,"x_min":32,"x_max":926,"o":"m 349 0 l 349 221 l 498 221 l 498 789 l 349 789 l 349 1010 l 925 1010 l 925 789 l 776 789 l 776 221 l 925 221 l 925 0 l 349 0 m 227 766 q 84 798 136 766 q 32 886 32 829 q 83 978 32 943 q 227 1013 135 1013 l 255 1013 l 255 900 l 211 900 q 167 891 182 900 q 152 866 152 883 q 169 839 152 848 q 220 831 186 831 l 235 831 l 235 766 l 227 766 z "},"":{"ha":1239,"x_min":32,"x_max":1166,"o":"m 590 0 l 590 221 l 739 221 l 739 789 l 590 789 l 590 1010 l 1166 1010 l 1166 789 l 1017 789 l 1017 221 l 1166 221 l 1166 0 l 590 0 m 60 766 l 52 766 l 52 831 l 66 831 q 118 839 101 831 q 135 866 135 848 q 120 891 135 883 q 76 900 106 900 l 32 900 l 32 1013 l 60 1013 q 203 978 152 1013 q 255 886 255 943 q 203 798 255 829 q 60 766 151 766 m 476 772 l 346 772 l 262 1010 l 457 1010 l 476 772 z "},"":{"ha":1244,"x_min":32,"x_max":1208,"o":"m 631 0 l 631 221 l 780 221 l 780 789 l 631 789 l 631 1010 l 1207 1010 l 1207 789 l 1058 789 l 1058 221 l 1207 221 l 1207 0 l 631 0 m 227 766 q 84 798 136 766 q 32 886 32 829 q 83 978 32 943 q 227 1013 135 1013 l 255 1013 l 255 900 l 211 900 q 167 891 182 900 q 152 866 152 883 q 169 839 152 848 q 220 831 186 831 l 235 831 l 235 766 l 227 766 m 505 772 l 375 772 l 292 1010 l 486 1010 l 505 772 z "},"":{"ha":1214,"x_min":32,"x_max":1177,"o":"m 601 0 l 601 221 l 750 221 l 750 789 l 601 789 l 601 1010 l 1177 1010 l 1177 789 l 1028 789 l 1028 221 l 1177 221 l 1177 0 l 601 0 m 60 766 l 52 766 l 52 831 l 66 831 q 118 839 101 831 q 135 866 135 848 q 120 891 135 883 q 76 900 106 900 l 32 900 l 32 1013 l 60 1013 q 203 978 152 1013 q 255 886 255 943 q 203 798 255 829 q 60 766 151 766 m 320 772 l 338 1010 l 534 1010 l 450 772 l 320 772 z "},"":{"ha":1243,"x_min":32,"x_max":1207,"o":"m 630 0 l 630 221 l 779 221 l 779 789 l 630 789 l 630 1010 l 1206 1010 l 1206 789 l 1057 789 l 1057 221 l 1206 221 l 1206 0 l 630 0 m 227 766 q 84 798 136 766 q 32 886 32 829 q 83 978 32 943 q 227 1013 135 1013 l 255 1013 l 255 900 l 211 900 q 167 891 182 900 q 152 866 152 883 q 169 839 152 848 q 220 831 186 831 l 235 831 l 235 766 l 227 766 m 345 772 l 363 1010 l 557 1010 l 474 772 l 345 772 z "},"":{"ha":1090,"x_min":32,"x_max":1053,"o":"m 477 0 l 477 221 l 626 221 l 626 789 l 477 789 l 477 1010 l 1053 1010 l 1053 789 l 904 789 l 904 221 l 1053 221 l 1053 0 l 477 0 m 203 777 l 194 777 l 194 842 l 209 842 q 260 850 243 842 q 277 877 277 859 q 262 902 277 894 q 218 911 248 911 l 174 911 l 174 1023 l 203 1023 q 346 988 294 1023 q 397 897 397 954 q 346 809 397 840 q 203 777 294 777 m 380 1077 q 319 1088 344 1077 q 275 1113 294 1099 q 241 1139 257 1128 q 208 1150 225 1150 q 173 1133 185 1150 q 159 1082 160 1115 l 32 1082 q 79 1225 34 1178 q 191 1272 125 1272 q 252 1261 227 1272 q 297 1237 278 1251 q 332 1212 316 1223 q 364 1201 347 1201 q 402 1219 391 1201 q 414 1268 413 1236 l 539 1268 q 492 1125 538 1174 q 380 1077 446 1077 z "},"":{"ha":1113,"x_min":32,"x_max":1076,"o":"m 500 0 l 500 221 l 649 221 l 649 789 l 500 789 l 500 1010 l 1076 1010 l 1076 789 l 927 789 l 927 221 l 1076 221 l 1076 0 l 500 0 m 369 764 q 226 796 278 764 q 174 884 174 827 q 226 976 174 941 q 369 1010 277 1010 l 397 1010 l 397 898 l 353 898 q 309 889 323 898 q 294 864 294 881 q 311 838 294 846 q 363 829 328 829 l 378 829 l 378 764 l 369 764 m 380 1064 q 319 1075 344 1064 q 275 1100 294 1086 q 241 1126 257 1115 q 208 1137 225 1137 q 173 1120 185 1137 q 159 1069 160 1102 l 32 1069 q 79 1212 34 1165 q 191 1259 125 1259 q 252 1249 227 1259 q 297 1224 278 1238 q 332 1199 316 1210 q 364 1188 347 1188 q 402 1206 391 1188 q 414 1255 413 1223 l 539 1255 q 492 1113 538 1161 q 380 1064 446 1064 z "},"":{"ha":650,"x_min":37,"x_max":613,"o":"m 37 0 l 37 221 l 186 221 l 186 789 l 37 789 l 37 1010 l 613 1010 l 613 789 l 464 789 l 464 221 l 613 221 l 613 0 l 37 0 m 325 1088 q 189 1118 249 1088 q 94 1200 129 1148 q 59 1314 59 1251 l 205 1314 q 239 1246 205 1274 q 325 1219 273 1219 q 409 1246 376 1219 q 443 1314 443 1274 l 591 1314 q 556 1200 591 1251 q 461 1118 521 1148 q 325 1088 401 1088 z "},"":{"ha":650,"x_min":37,"x_max":613,"o":"m 37 0 l 37 221 l 186 221 l 186 789 l 37 789 l 37 1010 l 613 1010 l 613 789 l 464 789 l 464 221 l 613 221 l 613 0 l 37 0 m 528 1278 l 528 1121 l 121 1121 l 121 1278 l 528 1278 z "},"":{"ha":936,"x_min":-77,"x_max":900,"o":"m 323 0 l 323 221 l 472 221 l 472 789 l 323 789 l 323 1010 l 899 1010 l 899 789 l 750 789 l 750 221 l 899 221 l 899 0 l 323 0 m 172 823 l 20 823 l -77 1044 l 151 1044 l 172 823 z "},"":{"ha":966,"x_min":32,"x_max":929,"o":"m 353 0 l 353 221 l 502 221 l 502 789 l 353 789 l 353 1010 l 929 1010 l 929 789 l 780 789 l 780 221 l 929 221 l 929 0 l 353 0 m 32 789 l 54 1010 l 281 1010 l 184 789 l 32 789 z "},"":{"ha":650,"x_min":37,"x_max":613,"o":"m 37 0 l 37 221 l 186 221 l 186 789 l 37 789 l 37 1010 l 613 1010 l 613 789 l 464 789 l 464 221 l 613 221 l 613 0 l 37 0 z "},"":{"ha":650,"x_min":37,"x_max":613,"o":"m 37 0 l 37 221 l 186 221 l 186 789 l 37 789 l 37 1010 l 613 1010 l 613 789 l 464 789 l 464 221 l 613 221 l 613 0 l 37 0 m 483 1078 q 391 1113 428 1078 q 354 1200 354 1148 q 391 1287 354 1253 q 483 1322 428 1322 q 575 1287 538 1322 q 612 1200 612 1253 q 575 1113 612 1147 q 483 1078 538 1078 m 167 1078 q 75 1113 112 1078 q 39 1200 39 1148 q 75 1287 39 1253 q 167 1322 112 1322 q 259 1287 222 1322 q 296 1200 296 1253 q 259 1113 296 1147 q 167 1078 222 1078 z "},"J":{"ha":819,"x_min":29,"x_max":760,"o":"m 393 -15 q 123 72 218 -15 q 29 319 29 158 l 29 391 l 296 391 l 296 315 q 320 236 296 263 q 390 209 345 209 q 459 236 435 209 q 484 316 484 263 l 484 1010 l 760 1010 l 760 315 q 665 71 760 156 q 393 -15 570 -15 z "},"Ĵ":{"ha":819,"x_min":29,"x_max":918,"o":"m 393 -15 q 123 72 218 -15 q 29 319 29 158 l 29 391 l 296 391 l 296 315 q 320 236 296 263 q 390 209 345 209 q 459 236 435 209 q 484 316 484 263 l 484 1010 l 760 1010 l 760 315 q 665 71 760 156 q 393 -15 570 -15 m 533 1099 l 326 1099 l 326 1101 l 522 1320 l 718 1320 l 918 1101 l 918 1099 l 710 1099 l 620 1209 l 533 1099 z "},"Ɉ":{"ha":884,"x_min":29,"x_max":873,"o":"m 393 -15 q 123 72 218 -15 q 29 319 29 158 l 29 391 l 296 391 l 296 315 q 320 236 296 263 q 390 209 345 209 q 459 236 435 209 q 484 316 484 263 l 484 1010 l 760 1010 l 760 315 q 665 71 760 156 q 393 -15 570 -15 m 368 555 l 368 644 l 873 644 l 873 555 l 368 555 z "},"Ϳ":{"ha":819,"x_min":29,"x_max":760,"o":"m 393 -15 q 123 72 218 -15 q 29 319 29 158 l 29 391 l 296 391 l 296 315 q 320 236 296 263 q 390 209 345 209 q 459 236 435 209 q 484 316 484 263 l 484 1010 l 760 1010 l 760 315 q 665 71 760 156 q 393 -15 570 -15 z "},"Ј":{"ha":819,"x_min":29,"x_max":760,"o":"m 393 -15 q 123 72 218 -15 q 29 319 29 158 l 29 391 l 296 391 l 296 315 q 320 236 296 263 q 390 209 345 209 q 459 236 435 209 q 484 316 484 263 l 484 1010 l 760 1010 l 760 315 q 665 71 760 156 q 393 -15 570 -15 z "},"K":{"ha":1031,"x_min":59,"x_max":1017,"o":"m 267 159 l 267 452 q 329 552 298 505 q 395 647 360 600 q 472 751 429 695 l 673 1010 l 998 1010 l 576 490 l 550 495 l 267 159 m 59 0 l 59 1010 l 338 1010 l 338 793 l 335 503 l 338 369 l 338 0 l 59 0 m 694 0 l 451 406 l 622 613 l 1017 0 l 694 0 z "},"Ķ":{"ha":1031,"x_min":59,"x_max":1017,"o":"m 267 159 l 267 452 q 329 552 298 505 q 395 647 360 600 q 472 751 429 695 l 673 1010 l 998 1010 l 576 490 l 550 495 l 267 159 m 59 0 l 59 1010 l 338 1010 l 338 793 l 335 503 l 338 369 l 338 0 l 59 0 m 694 0 l 451 406 l 622 613 l 1017 0 l 694 0 m 318 -316 l 383 -80 l 627 -80 l 503 -316 l 318 -316 z "},"Ǩ":{"ha":1031,"x_min":59,"x_max":1017,"o":"m 267 159 l 267 452 q 329 552 298 505 q 395 647 360 600 q 472 751 429 695 l 673 1010 l 998 1010 l 576 490 l 550 495 l 267 159 m 59 0 l 59 1010 l 338 1010 l 338 793 l 335 503 l 338 369 l 338 0 l 59 0 m 694 0 l 451 406 l 622 613 l 1017 0 l 694 0 m 414 1320 l 501 1210 l 591 1320 l 799 1320 l 799 1318 l 600 1099 l 404 1099 l 207 1318 l 207 1320 l 414 1320 z "},"Ḱ":{"ha":1031,"x_min":59,"x_max":1017,"o":"m 267 159 l 267 452 q 329 552 298 505 q 395 647 360 600 q 472 751 429 695 l 673 1010 l 998 1010 l 576 490 l 550 495 l 267 159 m 59 0 l 59 1010 l 338 1010 l 338 793 l 335 503 l 338 369 l 338 0 l 59 0 m 694 0 l 451 406 l 622 613 l 1017 0 l 694 0 m 404 1099 l 522 1320 l 764 1320 l 583 1099 l 404 1099 z "},"Ḳ":{"ha":1031,"x_min":59,"x_max":1017,"o":"m 267 159 l 267 452 q 329 552 298 505 q 395 647 360 600 q 472 751 429 695 l 673 1010 l 998 1010 l 576 490 l 550 495 l 267 159 m 59 0 l 59 1010 l 338 1010 l 338 793 l 335 503 l 338 369 l 338 0 l 59 0 m 694 0 l 451 406 l 622 613 l 1017 0 l 694 0 m 503 -333 q 402 -296 442 -333 q 362 -205 362 -260 q 402 -114 362 -150 q 502 -77 442 -77 q 602 -114 562 -77 q 642 -205 642 -150 q 602 -296 642 -260 q 503 -333 562 -333 z "},"Ḵ":{"ha":1031,"x_min":59,"x_max":1017,"o":"m 267 159 l 267 452 q 329 552 298 505 q 395 647 360 600 q 472 751 429 695 l 673 1010 l 998 1010 l 576 490 l 550 495 l 267 159 m 59 0 l 59 1010 l 338 1010 l 338 793 l 335 503 l 338 369 l 338 0 l 59 0 m 694 0 l 451 406 l 622 613 l 1017 0 l 694 0 m 706 -106 l 706 -264 l 299 -264 l 299 -106 l 706 -106 z "},"Ҡ":{"ha":1264,"x_min":32,"x_max":1251,"o":"m 425 1010 l 425 780 l 32 780 l 32 1010 l 425 1010 m 292 0 l 292 1010 l 570 1010 l 570 631 l 646 631 l 911 1010 l 1233 1010 l 870 519 l 1251 0 l 929 0 l 644 402 l 570 402 l 570 0 l 292 0 z "},"Қ":{"ha":1099,"x_min":59,"x_max":1073,"o":"m 59 0 l 59 1010 l 338 1010 l 338 631 l 413 631 l 678 1010 l 1000 1010 l 637 519 l 1017 0 l 696 0 l 410 402 l 338 402 l 338 0 l 59 0 m 795 -217 l 795 0 l 730 0 l 730 222 l 1073 222 l 1057 -217 l 795 -217 z "},"Ƙ":{"ha":1053,"x_min":59,"x_max":1052,"o":"m 59 0 l 59 1010 l 333 1010 l 333 620 l 347 620 l 633 910 q 760 1000 693 971 q 900 1022 827 1028 q 1052 972 973 1016 l 970 781 q 896 789 923 804 q 836 743 868 775 l 631 537 l 1044 0 l 715 0 l 455 342 l 333 216 l 333 0 l 59 0 z "},"Κ":{"ha":1031,"x_min":59,"x_max":1017,"o":"m 267 159 l 267 452 q 329 552 298 505 q 395 647 360 600 q 472 751 429 695 l 673 1010 l 998 1010 l 576 490 l 550 495 l 267 159 m 59 0 l 59 1010 l 338 1010 l 338 793 l 335 503 l 338 369 l 338 0 l 59 0 m 694 0 l 451 406 l 622 613 l 1017 0 l 694 0 z "},"L":{"ha":793,"x_min":59,"x_max":761,"o":"m 59 0 l 59 1010 l 338 1010 l 338 231 l 761 231 l 761 0 l 59 0 z "},"Ĺ":{"ha":793,"x_min":59,"x_max":761,"o":"m 59 0 l 59 1010 l 338 1010 l 338 231 l 761 231 l 761 0 l 59 0 m 98 1099 l 216 1320 l 458 1320 l 277 1099 l 98 1099 z "},"Ļ":{"ha":793,"x_min":59,"x_max":761,"o":"m 59 0 l 59 1010 l 338 1010 l 338 231 l 761 231 l 761 0 l 59 0 m 218 -316 l 283 -80 l 527 -80 l 402 -316 l 218 -316 z "},"Ľ":{"ha":793,"x_min":59,"x_max":761,"o":"m 59 0 l 59 1010 l 338 1010 l 338 231 l 761 231 l 761 0 l 59 0 m 473 802 l 473 1065 l 657 1065 l 621 802 l 473 802 z "},"Ḷ":{"ha":793,"x_min":59,"x_max":761,"o":"m 59 0 l 59 1010 l 338 1010 l 338 231 l 761 231 l 761 0 l 59 0 m 402 -333 q 302 -296 342 -333 q 262 -205 262 -260 q 302 -114 262 -150 q 401 -77 342 -77 q 502 -114 462 -77 q 542 -205 542 -150 q 502 -296 542 -260 q 402 -333 462 -333 z "},"Ḹ":{"ha":793,"x_min":-6,"x_max":761,"o":"m 59 0 l 59 1010 l 338 1010 l 338 231 l 761 231 l 761 0 l 59 0 m 402 -333 q 302 -296 342 -333 q 262 -205 262 -260 q 302 -114 262 -150 q 401 -77 342 -77 q 502 -114 462 -77 q 542 -205 542 -150 q 502 -296 542 -260 q 402 -333 462 -333 m 400 1278 l 400 1121 l -7 1121 l -7 1278 l 400 1278 z "},"Ḻ":{"ha":793,"x_min":59,"x_max":761,"o":"m 59 0 l 59 1010 l 338 1010 l 338 231 l 761 231 l 761 0 l 59 0 m 606 -106 l 606 -264 l 199 -264 l 199 -106 l 606 -106 z "},"Ḽ":{"ha":793,"x_min":59,"x_max":761,"o":"m 59 0 l 59 1010 l 338 1010 l 338 231 l 761 231 l 761 0 l 59 0 m 314 -306 l 106 -306 l 106 -303 l 303 -85 l 499 -85 l 699 -303 l 699 -306 l 491 -306 l 401 -195 l 314 -306 z "},"Ł":{"ha":861,"x_min":-8,"x_max":829,"o":"m 127 0 l 127 1010 l 406 1010 l 406 231 l 829 231 l 829 0 l 127 0 m -8 210 l -8 432 l 627 798 l 627 576 l -8 210 z "},"Ƚ":{"ha":876,"x_min":15,"x_max":844,"o":"m 142 0 l 142 1010 l 420 1010 l 420 231 l 844 231 l 844 0 l 142 0 m 15 420 l 15 591 l 593 591 l 593 420 l 15 420 z "},"ǈ":{"ha":1192,"x_min":59,"x_max":1133,"o":"m 59 0 l 59 1010 l 338 1010 l 338 231 l 761 231 l 761 0 l 59 0 m 857 735 l 1128 735 l 1128 -26 q 1093 -175 1128 -118 q 988 -257 1057 -231 q 822 -283 920 -283 l 739 -283 l 739 -80 l 781 -80 q 840 -63 823 -80 q 857 -9 857 -47 l 857 735 m 993 795 q 892 832 932 795 q 852 924 852 869 q 892 1015 852 979 q 992 1051 932 1051 q 1093 1015 1053 1051 q 1133 924 1133 979 q 1093 832 1133 869 q 993 795 1053 795 z "},"M":{"ha":1303,"x_min":59,"x_max":1244,"o":"m 59 0 l 59 1010 l 486 1010 l 576 694 q 603 591 588 654 q 634 459 618 529 q 663 325 650 389 q 684 216 676 260 l 621 216 q 642 325 629 260 q 671 459 655 389 q 701 591 686 529 q 728 694 716 654 l 817 1010 l 1244 1010 l 1244 0 l 968 0 l 968 391 q 969 481 968 425 q 973 604 971 537 q 977 739 975 671 q 979 865 979 806 l 1004 865 q 974 736 990 804 q 941 603 958 668 q 909 482 924 537 q 884 391 895 427 l 766 0 l 538 0 l 419 391 q 393 482 408 427 q 361 603 378 537 q 327 736 344 668 q 296 865 310 804 l 325 865 q 327 739 325 806 q 330 604 328 671 q 334 481 332 537 q 336 391 336 425 l 336 0 l 59 0 z "},"Ḿ":{"ha":1303,"x_min":59,"x_max":1244,"o":"m 59 0 l 59 1010 l 486 1010 l 576 694 q 603 591 588 654 q 634 459 618 529 q 663 325 650 389 q 684 216 676 260 l 621 216 q 642 325 629 260 q 671 459 655 389 q 701 591 686 529 q 728 694 716 654 l 817 1010 l 1244 1010 l 1244 0 l 968 0 l 968 391 q 969 481 968 425 q 973 604 971 537 q 977 739 975 671 q 979 865 979 806 l 1004 865 q 974 736 990 804 q 941 603 958 668 q 909 482 924 537 q 884 391 895 427 l 766 0 l 538 0 l 419 391 q 393 482 408 427 q 361 603 378 537 q 327 736 344 668 q 296 865 310 804 l 325 865 q 327 739 325 806 q 330 604 328 671 q 334 481 332 537 q 336 391 336 425 l 336 0 l 59 0 m 553 1099 l 671 1320 l 913 1320 l 732 1099 l 553 1099 z "},"Ṁ":{"ha":1303,"x_min":59,"x_max":1244,"o":"m 59 0 l 59 1010 l 486 1010 l 576 694 q 603 591 588 654 q 634 459 618 529 q 663 325 650 389 q 684 216 676 260 l 621 216 q 642 325 629 260 q 671 459 655 389 q 701 591 686 529 q 728 694 716 654 l 817 1010 l 1244 1010 l 1244 0 l 968 0 l 968 391 q 969 481 968 425 q 973 604 971 537 q 977 739 975 671 q 979 865 979 806 l 1004 865 q 974 736 990 804 q 941 603 958 668 q 909 482 924 537 q 884 391 895 427 l 766 0 l 538 0 l 419 391 q 393 482 408 427 q 361 603 378 537 q 327 736 344 668 q 296 865 310 804 l 325 865 q 327 739 325 806 q 330 604 328 671 q 334 481 332 537 q 336 391 336 425 l 336 0 l 59 0 m 652 1071 q 551 1107 591 1071 q 511 1199 511 1144 q 551 1290 511 1254 q 651 1326 591 1326 q 751 1290 711 1326 q 791 1199 791 1254 q 751 1107 791 1144 q 652 1071 711 1071 z "},"Ṃ":{"ha":1303,"x_min":59,"x_max":1244,"o":"m 59 0 l 59 1010 l 486 1010 l 576 694 q 603 591 588 654 q 634 459 618 529 q 663 325 650 389 q 684 216 676 260 l 621 216 q 642 325 629 260 q 671 459 655 389 q 701 591 686 529 q 728 694 716 654 l 817 1010 l 1244 1010 l 1244 0 l 968 0 l 968 391 q 969 481 968 425 q 973 604 971 537 q 977 739 975 671 q 979 865 979 806 l 1004 865 q 974 736 990 804 q 941 603 958 668 q 909 482 924 537 q 884 391 895 427 l 766 0 l 538 0 l 419 391 q 393 482 408 427 q 361 603 378 537 q 327 736 344 668 q 296 865 310 804 l 325 865 q 327 739 325 806 q 330 604 328 671 q 334 481 332 537 q 336 391 336 425 l 336 0 l 59 0 m 652 -333 q 551 -296 591 -333 q 511 -205 511 -260 q 551 -114 511 -150 q 651 -77 591 -77 q 751 -114 711 -77 q 791 -205 791 -150 q 751 -296 791 -260 q 652 -333 711 -333 z "},"Ӎ":{"ha":1303,"x_min":59,"x_max":1371,"o":"m 59 0 l 59 1010 l 486 1010 l 576 694 q 603 591 588 654 q 634 459 618 529 q 663 325 650 389 q 684 216 676 260 l 621 216 q 642 325 629 260 q 671 459 655 389 q 701 591 686 529 q 728 694 716 654 l 817 1010 l 1244 1010 l 1244 0 l 968 0 l 968 391 q 969 481 968 425 q 973 604 971 537 q 977 739 975 671 q 979 865 979 806 l 1004 865 q 974 736 990 804 q 941 603 958 668 q 909 482 924 537 q 884 391 895 427 l 766 0 l 538 0 l 419 391 q 393 482 408 427 q 361 603 378 537 q 327 736 344 668 q 296 865 310 804 l 325 865 q 327 739 325 806 q 330 604 328 671 q 334 481 332 537 q 336 391 336 425 l 336 0 l 59 0 m 989 -217 l 1060 0 l 995 0 l 995 203 l 1371 203 l 1235 -217 l 989 -217 z "},"Μ":{"ha":1303,"x_min":59,"x_max":1244,"o":"m 59 0 l 59 1010 l 486 1010 l 576 694 q 603 591 588 654 q 634 459 618 529 q 663 325 650 389 q 684 216 676 260 l 621 216 q 642 325 629 260 q 671 459 655 389 q 701 591 686 529 q 728 694 716 654 l 817 1010 l 1244 1010 l 1244 0 l 968 0 l 968 391 q 969 481 968 425 q 973 604 971 537 q 977 739 975 671 q 979 865 979 806 l 1004 865 q 974 736 990 804 q 941 603 958 668 q 909 482 924 537 q 884 391 895 427 l 766 0 l 538 0 l 419 391 q 393 482 408 427 q 361 603 378 537 q 327 736 344 668 q 296 865 310 804 l 325 865 q 327 739 325 806 q 330 604 328 671 q 334 481 332 537 q 336 391 336 425 l 336 0 l 59 0 z "},"Ϻ":{"ha":1303,"x_min":59,"x_max":1244,"o":"m 59 0 l 59 1010 l 486 1010 l 576 694 q 603 591 588 654 q 634 459 618 529 q 663 325 650 389 q 684 216 676 260 l 621 216 q 642 325 629 260 q 671 459 655 389 q 701 591 686 529 q 728 694 716 654 l 817 1010 l 1244 1010 l 1244 0 l 968 0 l 968 391 q 969 481 968 425 q 973 604 971 537 q 977 739 975 671 q 979 865 979 806 l 1004 865 q 974 736 990 804 q 941 603 958 668 q 909 482 924 537 q 884 391 895 427 l 766 0 l 538 0 l 419 391 q 393 482 408 427 q 361 603 378 537 q 327 736 344 668 q 296 865 310 804 l 325 865 q 327 739 325 806 q 330 604 328 671 q 334 481 332 537 q 336 391 336 425 l 336 0 l 59 0 z "},"М":{"ha":1303,"x_min":59,"x_max":1244,"o":"m 59 0 l 59 1010 l 486 1010 l 576 694 q 603 591 588 654 q 634 459 618 529 q 663 325 650 389 q 684 216 676 260 l 621 216 q 642 325 629 260 q 671 459 655 389 q 701 591 686 529 q 728 694 716 654 l 817 1010 l 1244 1010 l 1244 0 l 968 0 l 968 391 q 969 481 968 425 q 973 604 971 537 q 977 739 975 671 q 979 865 979 806 l 1004 865 q 974 736 990 804 q 941 603 958 668 q 909 482 924 537 q 884 391 895 427 l 766 0 l 538 0 l 419 391 q 393 482 408 427 q 361 603 378 537 q 327 736 344 668 q 296 865 310 804 l 325 865 q 327 739 325 806 q 330 604 328 671 q 334 481 332 537 q 336 391 336 425 l 336 0 l 59 0 z "},"N":{"ha":1044,"x_min":59,"x_max":985,"o":"m 59 0 l 59 1010 l 351 1010 l 595 614 q 644 529 618 576 q 696 426 670 481 q 748 308 723 370 l 718 264 q 711 390 715 319 q 706 529 708 461 q 703 640 703 597 l 703 1010 l 985 1010 l 985 0 l 693 0 l 466 369 q 408 469 437 416 q 348 584 378 522 q 282 719 317 647 l 326 728 q 335 588 331 657 q 340 461 338 518 q 341 369 341 404 l 341 0 l 59 0 z "},"Ñ":{"ha":1044,"x_min":59,"x_max":985,"o":"m 59 0 l 59 1010 l 351 1010 l 595 614 q 644 529 618 576 q 696 426 670 481 q 748 308 723 370 l 718 264 q 711 390 715 319 q 706 529 708 461 q 703 640 703 597 l 703 1010 l 985 1010 l 985 0 l 693 0 l 466 369 q 408 469 437 416 q 348 584 378 522 q 282 719 317 647 l 326 728 q 335 588 331 657 q 340 461 338 518 q 341 369 341 404 l 341 0 l 59 0 m 623 1100 q 558 1112 585 1100 q 512 1141 531 1124 q 476 1169 492 1157 q 440 1181 459 1181 q 403 1162 416 1181 q 389 1105 390 1143 l 254 1105 q 304 1265 256 1213 q 422 1317 353 1317 q 488 1305 460 1317 q 535 1278 515 1293 q 571 1250 555 1262 q 606 1238 588 1238 q 646 1258 634 1238 q 659 1313 658 1278 l 791 1313 q 741 1154 790 1208 q 623 1100 692 1100 z "},"Ń":{"ha":1044,"x_min":59,"x_max":985,"o":"m 59 0 l 59 1010 l 351 1010 l 595 614 q 644 529 618 576 q 696 426 670 481 q 748 308 723 370 l 718 264 q 711 390 715 319 q 706 529 708 461 q 703 640 703 597 l 703 1010 l 985 1010 l 985 0 l 693 0 l 466 369 q 408 469 437 416 q 348 584 378 522 q 282 719 317 647 l 326 728 q 335 588 331 657 q 340 461 338 518 q 341 369 341 404 l 341 0 l 59 0 m 425 1099 l 543 1320 l 785 1320 l 604 1099 l 425 1099 z "},"Ņ":{"ha":1044,"x_min":59,"x_max":985,"o":"m 59 0 l 59 1010 l 351 1010 l 595 614 q 644 529 618 576 q 696 426 670 481 q 748 308 723 370 l 718 264 q 711 390 715 319 q 706 529 708 461 q 703 640 703 597 l 703 1010 l 985 1010 l 985 0 l 693 0 l 466 369 q 408 469 437 416 q 348 584 378 522 q 282 719 317 647 l 326 728 q 335 588 331 657 q 340 461 338 518 q 341 369 341 404 l 341 0 l 59 0 m 338 -316 l 404 -80 l 648 -80 l 523 -316 l 338 -316 z "},"Ň":{"ha":1044,"x_min":59,"x_max":985,"o":"m 59 0 l 59 1010 l 351 1010 l 595 614 q 644 529 618 576 q 696 426 670 481 q 748 308 723 370 l 718 264 q 711 390 715 319 q 706 529 708 461 q 703 640 703 597 l 703 1010 l 985 1010 l 985 0 l 693 0 l 466 369 q 408 469 437 416 q 348 584 378 522 q 282 719 317 647 l 326 728 q 335 588 331 657 q 340 461 338 518 q 341 369 341 404 l 341 0 l 59 0 m 435 1320 l 522 1210 l 612 1320 l 819 1320 l 819 1318 l 620 1099 l 424 1099 l 227 1318 l 227 1320 l 435 1320 z "},"Ǹ":{"ha":1044,"x_min":59,"x_max":985,"o":"m 59 0 l 59 1010 l 351 1010 l 595 614 q 644 529 618 576 q 696 426 670 481 q 748 308 723 370 l 718 264 q 711 390 715 319 q 706 529 708 461 q 703 640 703 597 l 703 1010 l 985 1010 l 985 0 l 693 0 l 466 369 q 408 469 437 416 q 348 584 378 522 q 282 719 317 647 l 326 728 q 335 588 331 657 q 340 461 338 518 q 341 369 341 404 l 341 0 l 59 0 m 442 1099 l 261 1320 l 503 1320 l 621 1099 l 442 1099 z "},"Ṅ":{"ha":1044,"x_min":59,"x_max":985,"o":"m 59 0 l 59 1010 l 351 1010 l 595 614 q 644 529 618 576 q 696 426 670 481 q 748 308 723 370 l 718 264 q 711 390 715 319 q 706 529 708 461 q 703 640 703 597 l 703 1010 l 985 1010 l 985 0 l 693 0 l 466 369 q 408 469 437 416 q 348 584 378 522 q 282 719 317 647 l 326 728 q 335 588 331 657 q 340 461 338 518 q 341 369 341 404 l 341 0 l 59 0 m 523 1071 q 422 1107 463 1071 q 382 1199 382 1144 q 422 1290 382 1254 q 522 1326 463 1326 q 623 1290 583 1326 q 663 1199 663 1254 q 623 1107 663 1144 q 523 1071 583 1071 z "},"Ṇ":{"ha":1044,"x_min":59,"x_max":985,"o":"m 59 0 l 59 1010 l 351 1010 l 595 614 q 644 529 618 576 q 696 426 670 481 q 748 308 723 370 l 718 264 q 711 390 715 319 q 706 529 708 461 q 703 640 703 597 l 703 1010 l 985 1010 l 985 0 l 693 0 l 466 369 q 408 469 437 416 q 348 584 378 522 q 282 719 317 647 l 326 728 q 335 588 331 657 q 340 461 338 518 q 341 369 341 404 l 341 0 l 59 0 m 523 -333 q 422 -296 463 -333 q 382 -205 382 -260 q 422 -114 382 -150 q 522 -77 463 -77 q 623 -114 583 -77 q 663 -205 663 -150 q 623 -296 663 -260 q 523 -333 583 -333 z "},"Ṉ":{"ha":1044,"x_min":59,"x_max":985,"o":"m 59 0 l 59 1010 l 351 1010 l 595 614 q 644 529 618 576 q 696 426 670 481 q 748 308 723 370 l 718 264 q 711 390 715 319 q 706 529 708 461 q 703 640 703 597 l 703 1010 l 985 1010 l 985 0 l 693 0 l 466 369 q 408 469 437 416 q 348 584 378 522 q 282 719 317 647 l 326 728 q 335 588 331 657 q 340 461 338 518 q 341 369 341 404 l 341 0 l 59 0 m 726 -106 l 726 -264 l 319 -264 l 319 -106 l 726 -106 z "},"Ṋ":{"ha":1044,"x_min":59,"x_max":985,"o":"m 59 0 l 59 1010 l 351 1010 l 595 614 q 644 529 618 576 q 696 426 670 481 q 748 308 723 370 l 718 264 q 711 390 715 319 q 706 529 708 461 q 703 640 703 597 l 703 1010 l 985 1010 l 985 0 l 693 0 l 466 369 q 408 469 437 416 q 348 584 378 522 q 282 719 317 647 l 326 728 q 335 588 331 657 q 340 461 338 518 q 341 369 341 404 l 341 0 l 59 0 m 435 -306 l 227 -306 l 227 -303 l 424 -85 l 620 -85 l 819 -303 l 819 -306 l 612 -306 l 522 -195 l 435 -306 z "},"Ɲ":{"ha":1044,"x_min":-90,"x_max":985,"o":"m -90 -283 l -90 -73 q -52 -75 -74 -75 q -3 -76 -30 -76 q 44 -63 30 -76 q 59 -21 59 -50 l 59 81 l 338 81 l 338 -37 q 266 -227 338 -163 q 52 -290 195 -290 q -27 -289 9 -290 q -90 -283 -64 -287 m 59 0 l 59 1010 l 351 1010 l 595 614 q 644 529 618 576 q 696 426 670 481 q 748 308 723 370 l 718 264 q 711 390 715 319 q 706 529 708 461 q 703 640 703 597 l 703 1010 l 985 1010 l 985 0 l 693 0 l 466 369 q 408 469 437 416 q 348 584 378 522 q 282 719 317 647 l 326 728 q 335 588 331 657 q 340 461 338 518 q 341 369 341 404 l 341 0 l 59 0 z "},"Ŋ":{"ha":1044,"x_min":59,"x_max":985,"o":"m 559 -283 l 559 -73 q 596 -75 574 -75 q 644 -76 618 -76 q 693 -63 678 -76 q 707 -21 707 -50 l 707 81 l 985 81 l 985 -37 q 914 -227 985 -163 q 700 -290 843 -290 q 621 -289 657 -290 q 559 -283 584 -287 m 59 0 l 59 1010 l 351 1010 l 595 614 q 644 529 618 576 q 696 426 670 481 q 748 308 723 370 l 718 264 q 711 390 715 319 q 706 529 708 461 q 703 640 703 597 l 703 1010 l 985 1010 l 985 0 l 693 0 l 466 369 q 408 469 437 416 q 348 584 378 522 q 282 719 317 647 l 326 728 q 335 588 331 657 q 340 461 338 518 q 341 369 341 404 l 341 0 l 59 0 z "},"И":{"ha":1044,"x_min":59,"x_max":985,"o":"m 985 0 l 703 0 l 703 369 q 705 461 703 404 q 710 588 707 518 q 719 728 713 657 l 763 719 q 697 584 729 647 q 637 469 666 522 q 579 369 608 416 l 351 0 l 59 0 l 59 1010 l 341 1010 l 341 640 q 339 529 341 597 q 333 390 336 461 q 326 264 330 319 l 297 308 q 349 426 322 370 q 401 529 375 481 q 450 614 427 576 l 693 1010 l 985 1010 l 985 0 z "},"Ѝ":{"ha":1044,"x_min":59,"x_max":985,"o":"m 985 0 l 703 0 l 703 369 q 705 461 703 404 q 710 588 707 518 q 719 728 713 657 l 763 719 q 697 584 729 647 q 637 469 666 522 q 579 369 608 416 l 351 0 l 59 0 l 59 1010 l 341 1010 l 341 640 q 339 529 341 597 q 333 390 336 461 q 326 264 330 319 l 297 308 q 349 426 322 370 q 401 529 375 481 q 450 614 427 576 l 693 1010 l 985 1010 l 985 0 m 427 1099 l 246 1320 l 488 1320 l 606 1099 l 427 1099 z "},"Й":{"ha":1044,"x_min":59,"x_max":985,"o":"m 985 0 l 703 0 l 703 369 q 705 461 703 404 q 710 588 707 518 q 719 728 713 657 l 763 719 q 697 584 729 647 q 637 469 666 522 q 579 369 608 416 l 351 0 l 59 0 l 59 1010 l 341 1010 l 341 640 q 339 529 341 597 q 333 390 336 461 q 326 264 330 319 l 297 308 q 349 426 322 370 q 401 529 375 481 q 450 614 427 576 l 693 1010 l 985 1010 l 985 0 m 508 1088 q 372 1118 432 1088 q 277 1200 312 1148 q 242 1314 242 1251 l 389 1314 q 422 1246 389 1274 q 508 1219 456 1219 q 592 1246 559 1219 q 626 1314 626 1274 l 774 1314 q 739 1200 774 1251 q 644 1118 704 1148 q 508 1088 584 1088 z "},"Ӣ":{"ha":1044,"x_min":59,"x_max":985,"o":"m 985 0 l 703 0 l 703 369 q 705 461 703 404 q 710 588 707 518 q 719 728 713 657 l 763 719 q 697 584 729 647 q 637 469 666 522 q 579 369 608 416 l 351 0 l 59 0 l 59 1010 l 341 1010 l 341 640 q 339 529 341 597 q 333 390 336 461 q 326 264 330 319 l 297 308 q 349 426 322 370 q 401 529 375 481 q 450 614 427 576 l 693 1010 l 985 1010 l 985 0 m 711 1278 l 711 1121 l 304 1121 l 304 1278 l 711 1278 z "},"Ӥ":{"ha":1044,"x_min":59,"x_max":985,"o":"m 985 0 l 703 0 l 703 369 q 705 461 703 404 q 710 588 707 518 q 719 728 713 657 l 763 719 q 697 584 729 647 q 637 469 666 522 q 579 369 608 416 l 351 0 l 59 0 l 59 1010 l 341 1010 l 341 640 q 339 529 341 597 q 333 390 336 461 q 326 264 330 319 l 297 308 q 349 426 322 370 q 401 529 375 481 q 450 614 427 576 l 693 1010 l 985 1010 l 985 0 m 666 1078 q 574 1113 611 1078 q 537 1200 537 1148 q 574 1287 537 1253 q 666 1322 611 1322 q 758 1287 721 1322 q 795 1200 795 1253 q 758 1113 795 1147 q 666 1078 721 1078 m 350 1078 q 258 1113 295 1078 q 222 1200 222 1148 q 258 1287 222 1253 q 350 1322 295 1322 q 442 1287 406 1322 q 479 1200 479 1253 q 442 1113 479 1147 q 350 1078 406 1078 z "},"Ҋ":{"ha":1044,"x_min":59,"x_max":1083,"o":"m 985 0 l 703 0 l 703 369 q 705 461 703 404 q 710 588 707 518 q 719 728 713 657 l 763 719 q 697 584 729 647 q 637 469 666 522 q 579 369 608 416 l 351 0 l 59 0 l 59 1010 l 341 1010 l 341 640 q 339 529 341 597 q 333 390 336 461 q 326 264 330 319 l 297 308 q 349 426 322 370 q 401 529 375 481 q 450 614 427 576 l 693 1010 l 985 1010 l 985 0 m 508 1088 q 372 1118 432 1088 q 277 1200 312 1148 q 242 1314 242 1251 l 389 1314 q 422 1246 389 1274 q 508 1219 456 1219 q 592 1246 559 1219 q 626 1314 626 1274 l 774 1314 q 739 1200 774 1251 q 644 1118 704 1148 q 508 1088 584 1088 m 702 -217 l 772 0 l 707 0 l 707 203 l 1083 203 l 947 -217 l 702 -217 z "},"Ͷ":{"ha":1044,"x_min":59,"x_max":985,"o":"m 985 0 l 703 0 l 703 369 q 705 461 703 404 q 710 588 707 518 q 719 728 713 657 l 763 719 q 697 584 729 647 q 637 469 666 522 q 579 369 608 416 l 351 0 l 59 0 l 59 1010 l 341 1010 l 341 640 q 339 529 341 597 q 333 390 336 461 q 326 264 330 319 l 297 308 q 349 426 322 370 q 401 529 375 481 q 450 614 427 576 l 693 1010 l 985 1010 l 985 0 z "},"Ν":{"ha":1044,"x_min":59,"x_max":985,"o":"m 59 0 l 59 1010 l 351 1010 l 595 614 q 644 529 618 576 q 696 426 670 481 q 748 308 723 370 l 718 264 q 711 390 715 319 q 706 529 708 461 q 703 640 703 597 l 703 1010 l 985 1010 l 985 0 l 693 0 l 466 369 q 408 469 437 416 q 348 584 378 522 q 282 719 317 647 l 326 728 q 335 588 331 657 q 340 461 338 518 q 341 369 341 404 l 341 0 l 59 0 z "},"ǋ":{"ha":1444,"x_min":59,"x_max":1384,"o":"m 59 0 l 59 1010 l 351 1010 l 595 614 q 644 529 618 576 q 696 426 670 481 q 748 308 723 370 l 718 264 q 711 390 715 319 q 706 529 708 461 q 703 640 703 597 l 703 1010 l 985 1010 l 985 0 l 693 0 l 466 369 q 408 469 437 416 q 348 584 378 522 q 282 719 317 647 l 326 728 q 335 588 331 657 q 340 461 338 518 q 341 369 341 404 l 341 0 l 59 0 m 1108 735 l 1380 735 l 1380 -26 q 1344 -175 1380 -118 q 1240 -257 1308 -231 q 1074 -283 1171 -283 l 991 -283 l 991 -80 l 1033 -80 q 1092 -63 1075 -80 q 1108 -9 1108 -47 l 1108 735 m 1244 795 q 1144 832 1184 795 q 1104 924 1104 869 q 1144 1015 1104 979 q 1244 1051 1184 1051 q 1344 1015 1304 1051 q 1384 924 1384 979 q 1344 832 1384 869 q 1244 795 1304 795 z "},"O":{"ha":1055,"x_min":36,"x_max":1018,"o":"m 527 -15 q 278 45 389 -15 q 101 221 166 105 q 36 505 36 337 q 101 790 36 673 q 278 966 166 906 q 527 1025 389 1025 q 776 966 665 1025 q 952 790 887 906 q 1018 505 1018 673 q 952 220 1018 336 q 776 45 887 104 q 527 -15 665 -15 m 527 227 q 641 259 595 227 q 711 354 687 292 q 734 505 734 416 q 711 656 734 593 q 641 751 687 719 q 527 784 595 784 q 414 751 460 784 q 344 656 368 719 q 320 505 320 593 q 344 354 320 416 q 414 259 368 292 q 527 227 460 227 z "},"Ö":{"ha":1055,"x_min":36,"x_max":1018,"o":"m 527 -15 q 278 45 389 -15 q 101 221 166 105 q 36 505 36 337 q 101 790 36 673 q 278 966 166 906 q 527 1025 389 1025 q 776 966 665 1025 q 952 790 887 906 q 1018 505 1018 673 q 952 220 1018 336 q 776 45 887 104 q 527 -15 665 -15 m 527 227 q 641 259 595 227 q 711 354 687 292 q 734 505 734 416 q 711 656 734 593 q 641 751 687 719 q 527 784 595 784 q 414 751 460 784 q 344 656 368 719 q 320 505 320 593 q 344 354 320 416 q 414 259 368 292 q 527 227 460 227 m 685 1078 q 593 1113 630 1078 q 556 1200 556 1148 q 593 1287 556 1253 q 685 1322 630 1322 q 777 1287 740 1322 q 814 1200 814 1253 q 777 1113 814 1147 q 685 1078 740 1078 m 369 1078 q 277 1113 314 1078 q 241 1200 241 1148 q 277 1287 241 1253 q 369 1322 314 1322 q 461 1287 425 1322 q 498 1200 498 1253 q 461 1113 498 1147 q 369 1078 425 1078 z "},"Õ":{"ha":1055,"x_min":36,"x_max":1018,"o":"m 527 -15 q 278 45 389 -15 q 101 221 166 105 q 36 505 36 337 q 101 790 36 673 q 278 966 166 906 q 527 1025 389 1025 q 776 966 665 1025 q 952 790 887 906 q 1018 505 1018 673 q 952 220 1018 336 q 776 45 887 104 q 527 -15 665 -15 m 527 227 q 641 259 595 227 q 711 354 687 292 q 734 505 734 416 q 711 656 734 593 q 641 751 687 719 q 527 784 595 784 q 414 751 460 784 q 344 656 368 719 q 320 505 320 593 q 344 354 320 416 q 414 259 368 292 q 527 227 460 227 m 627 1100 q 562 1112 589 1100 q 516 1141 535 1124 q 480 1169 496 1157 q 444 1181 463 1181 q 407 1162 420 1181 q 393 1105 394 1143 l 258 1105 q 309 1265 260 1213 q 427 1317 357 1317 q 492 1305 465 1317 q 539 1278 519 1293 q 575 1250 559 1262 q 610 1238 592 1238 q 650 1258 638 1238 q 663 1313 662 1278 l 795 1313 q 745 1154 794 1208 q 627 1100 696 1100 z "},"Ø":{"ha":1055,"x_min":36,"x_max":1018,"o":"m 527 -15 q 278 45 389 -15 q 101 221 166 105 q 36 505 36 337 q 101 790 36 673 q 278 966 166 906 q 527 1025 389 1025 q 776 966 665 1025 q 952 790 887 906 q 1018 505 1018 673 q 952 220 1018 336 q 776 45 887 104 q 527 -15 665 -15 m 527 227 q 641 259 595 227 q 711 354 687 292 q 734 505 734 416 q 711 656 734 593 q 641 751 687 719 q 527 784 595 784 q 414 751 460 784 q 344 656 368 719 q 320 505 320 593 q 344 354 320 416 q 414 259 368 292 q 527 227 460 227 m 179 -57 l 54 43 l 876 1067 l 1002 966 l 179 -57 z "},"Ơ":{"ha":1066,"x_min":36,"x_max":1024,"o":"m 533 866 l 533 1025 q 587 1023 562 1025 q 636 1018 611 1021 q 693 1013 662 1015 q 766 1010 724 1010 q 788 1032 788 1010 l 788 1164 l 1024 1164 l 1024 1003 q 973 890 1024 924 q 849 856 922 856 q 770 857 810 856 q 691 861 730 859 q 612 864 652 863 q 533 866 572 866 m 527 -15 q 278 45 389 -15 q 101 221 166 105 q 36 505 36 337 q 101 790 36 673 q 278 966 166 906 q 527 1025 389 1025 q 776 966 665 1025 q 952 790 887 906 q 1018 505 1018 673 q 952 220 1018 336 q 776 45 887 104 q 527 -15 665 -15 m 527 227 q 641 259 595 227 q 711 354 687 292 q 734 505 734 416 q 711 656 734 593 q 641 751 687 719 q 527 784 595 784 q 414 751 460 784 q 344 656 368 719 q 320 505 320 593 q 344 354 320 416 q 414 259 368 292 q 527 227 460 227 z "},"Ò":{"ha":1055,"x_min":36,"x_max":1018,"o":"m 527 -15 q 278 45 389 -15 q 101 221 166 105 q 36 505 36 337 q 101 790 36 673 q 278 966 166 906 q 527 1025 389 1025 q 776 966 665 1025 q 952 790 887 906 q 1018 505 1018 673 q 952 220 1018 336 q 776 45 887 104 q 527 -15 665 -15 m 527 227 q 641 259 595 227 q 711 354 687 292 q 734 505 734 416 q 711 656 734 593 q 641 751 687 719 q 527 784 595 784 q 414 751 460 784 q 344 656 368 719 q 320 505 320 593 q 344 354 320 416 q 414 259 368 292 q 527 227 460 227 m 446 1099 l 265 1320 l 507 1320 l 625 1099 l 446 1099 z "},"Ó":{"ha":1055,"x_min":36,"x_max":1018,"o":"m 527 -15 q 278 45 389 -15 q 101 221 166 105 q 36 505 36 337 q 101 790 36 673 q 278 966 166 906 q 527 1025 389 1025 q 776 966 665 1025 q 952 790 887 906 q 1018 505 1018 673 q 952 220 1018 336 q 776 45 887 104 q 527 -15 665 -15 m 527 227 q 641 259 595 227 q 711 354 687 292 q 734 505 734 416 q 711 656 734 593 q 641 751 687 719 q 527 784 595 784 q 414 751 460 784 q 344 656 368 719 q 320 505 320 593 q 344 354 320 416 q 414 259 368 292 q 527 227 460 227 m 429 1099 l 547 1320 l 789 1320 l 608 1099 l 429 1099 z "},"Ô":{"ha":1055,"x_min":36,"x_max":1018,"o":"m 527 -15 q 278 45 389 -15 q 101 221 166 105 q 36 505 36 337 q 101 790 36 673 q 278 966 166 906 q 527 1025 389 1025 q 776 966 665 1025 q 952 790 887 906 q 1018 505 1018 673 q 952 220 1018 336 q 776 45 887 104 q 527 -15 665 -15 m 527 227 q 641 259 595 227 q 711 354 687 292 q 734 505 734 416 q 711 656 734 593 q 641 751 687 719 q 527 784 595 784 q 414 751 460 784 q 344 656 368 719 q 320 505 320 593 q 344 354 320 416 q 414 259 368 292 q 527 227 460 227 m 439 1099 l 231 1099 l 231 1101 l 428 1320 l 624 1320 l 823 1101 l 823 1099 l 616 1099 l 526 1209 l 439 1099 z "},"Ō":{"ha":1055,"x_min":36,"x_max":1018,"o":"m 527 -15 q 278 45 389 -15 q 101 221 166 105 q 36 505 36 337 q 101 790 36 673 q 278 966 166 906 q 527 1025 389 1025 q 776 966 665 1025 q 952 790 887 906 q 1018 505 1018 673 q 952 220 1018 336 q 776 45 887 104 q 527 -15 665 -15 m 527 227 q 641 259 595 227 q 711 354 687 292 q 734 505 734 416 q 711 656 734 593 q 641 751 687 719 q 527 784 595 784 q 414 751 460 784 q 344 656 368 719 q 320 505 320 593 q 344 354 320 416 q 414 259 368 292 q 527 227 460 227 m 730 1278 l 730 1121 l 323 1121 l 323 1278 l 730 1278 z "},"Ŏ":{"ha":1055,"x_min":36,"x_max":1018,"o":"m 527 -15 q 278 45 389 -15 q 101 221 166 105 q 36 505 36 337 q 101 790 36 673 q 278 966 166 906 q 527 1025 389 1025 q 776 966 665 1025 q 952 790 887 906 q 1018 505 1018 673 q 952 220 1018 336 q 776 45 887 104 q 527 -15 665 -15 m 527 227 q 641 259 595 227 q 711 354 687 292 q 734 505 734 416 q 711 656 734 593 q 641 751 687 719 q 527 784 595 784 q 414 751 460 784 q 344 656 368 719 q 320 505 320 593 q 344 354 320 416 q 414 259 368 292 q 527 227 460 227 m 527 1088 q 391 1118 451 1088 q 296 1200 331 1148 q 261 1314 261 1251 l 408 1314 q 441 1246 408 1274 q 527 1219 475 1219 q 611 1246 578 1219 q 645 1314 645 1274 l 793 1314 q 758 1200 793 1251 q 663 1118 723 1148 q 527 1088 603 1088 z "},"Ő":{"ha":1055,"x_min":36,"x_max":1018,"o":"m 527 -15 q 278 45 389 -15 q 101 221 166 105 q 36 505 36 337 q 101 790 36 673 q 278 966 166 906 q 527 1025 389 1025 q 776 966 665 1025 q 952 790 887 906 q 1018 505 1018 673 q 952 220 1018 336 q 776 45 887 104 q 527 -15 665 -15 m 527 227 q 641 259 595 227 q 711 354 687 292 q 734 505 734 416 q 711 656 734 593 q 641 751 687 719 q 527 784 595 784 q 414 751 460 784 q 344 656 368 719 q 320 505 320 593 q 344 354 320 416 q 414 259 368 292 q 527 227 460 227 m 442 1099 l 263 1099 l 348 1320 l 569 1320 l 442 1099 m 702 1099 l 517 1099 l 651 1320 l 895 1320 l 702 1099 z "},"Ǒ":{"ha":1055,"x_min":36,"x_max":1018,"o":"m 527 -15 q 278 45 389 -15 q 101 221 166 105 q 36 505 36 337 q 101 790 36 673 q 278 966 166 906 q 527 1025 389 1025 q 776 966 665 1025 q 952 790 887 906 q 1018 505 1018 673 q 952 220 1018 336 q 776 45 887 104 q 527 -15 665 -15 m 527 227 q 641 259 595 227 q 711 354 687 292 q 734 505 734 416 q 711 656 734 593 q 641 751 687 719 q 527 784 595 784 q 414 751 460 784 q 344 656 368 719 q 320 505 320 593 q 344 354 320 416 q 414 259 368 292 q 527 227 460 227 m 439 1320 l 526 1210 l 616 1320 l 823 1320 l 823 1318 l 624 1099 l 428 1099 l 231 1318 l 231 1320 l 439 1320 z "},"Ǫ":{"ha":1055,"x_min":36,"x_max":1018,"o":"m 527 -15 q 278 45 389 -15 q 101 221 166 105 q 36 505 36 337 q 101 790 36 673 q 278 966 166 906 q 527 1025 389 1025 q 776 966 665 1025 q 952 790 887 906 q 1018 505 1018 673 q 952 220 1018 336 q 776 45 887 104 q 527 -15 665 -15 m 527 227 q 641 259 595 227 q 711 354 687 292 q 734 505 734 416 q 711 656 734 593 q 641 751 687 719 q 527 784 595 784 q 414 751 460 784 q 344 656 368 719 q 320 505 320 593 q 344 354 320 416 q 414 259 368 292 q 527 227 460 227 m 577 -286 q 420 -247 476 -286 q 363 -136 363 -207 q 396 -46 363 -83 q 480 18 428 -9 q 596 71 533 45 q 722 131 659 98 q 837 212 785 163 q 922 331 890 260 q 954 505 954 402 l 1018 505 q 996 320 1018 397 q 937 189 974 243 q 857 99 901 135 q 769 39 813 63 q 689 -5 726 14 q 630 -45 652 -25 q 608 -94 608 -66 q 620 -126 608 -115 q 656 -137 633 -137 q 676 -135 667 -137 q 696 -131 686 -134 l 718 -271 q 650 -282 690 -278 q 577 -286 610 -286 z "},"Ǭ":{"ha":1055,"x_min":36,"x_max":1018,"o":"m 527 -15 q 278 45 389 -15 q 101 221 166 105 q 36 505 36 337 q 101 790 36 673 q 278 966 166 906 q 527 1025 389 1025 q 776 966 665 1025 q 952 790 887 906 q 1018 505 1018 673 q 952 220 1018 336 q 776 45 887 104 q 527 -15 665 -15 m 527 227 q 641 259 595 227 q 711 354 687 292 q 734 505 734 416 q 711 656 734 593 q 641 751 687 719 q 527 784 595 784 q 414 751 460 784 q 344 656 368 719 q 320 505 320 593 q 344 354 320 416 q 414 259 368 292 q 527 227 460 227 m 577 -286 q 420 -247 476 -286 q 363 -136 363 -207 q 396 -46 363 -83 q 480 18 428 -9 q 596 71 533 45 q 722 131 659 98 q 837 212 785 163 q 922 331 890 260 q 954 505 954 402 l 1018 505 q 996 320 1018 397 q 937 189 974 243 q 857 99 901 135 q 769 39 813 63 q 689 -5 726 14 q 630 -45 652 -25 q 608 -94 608 -66 q 620 -126 608 -115 q 656 -137 633 -137 q 676 -135 667 -137 q 696 -131 686 -134 l 718 -271 q 650 -282 690 -278 q 577 -286 610 -286 m 730 1278 l 730 1121 l 323 1121 l 323 1278 l 730 1278 z "},"Ȍ":{"ha":1055,"x_min":36,"x_max":1018,"o":"m 527 -15 q 278 45 389 -15 q 101 221 166 105 q 36 505 36 337 q 101 790 36 673 q 278 966 166 906 q 527 1025 389 1025 q 776 966 665 1025 q 952 790 887 906 q 1018 505 1018 673 q 952 220 1018 336 q 776 45 887 104 q 527 -15 665 -15 m 527 227 q 641 259 595 227 q 711 354 687 292 q 734 505 734 416 q 711 656 734 593 q 641 751 687 719 q 527 784 595 784 q 414 751 460 784 q 344 656 368 719 q 320 505 320 593 q 344 354 320 416 q 414 259 368 292 q 527 227 460 227 m 581 1099 l 454 1320 l 675 1320 l 760 1099 l 581 1099 m 321 1099 l 127 1320 l 372 1320 l 505 1099 l 321 1099 z "},"Ȏ":{"ha":1055,"x_min":36,"x_max":1018,"o":"m 527 -15 q 278 45 389 -15 q 101 221 166 105 q 36 505 36 337 q 101 790 36 673 q 278 966 166 906 q 527 1025 389 1025 q 776 966 665 1025 q 952 790 887 906 q 1018 505 1018 673 q 952 220 1018 336 q 776 45 887 104 q 527 -15 665 -15 m 527 227 q 641 259 595 227 q 711 354 687 292 q 734 505 734 416 q 711 656 734 593 q 641 751 687 719 q 527 784 595 784 q 414 751 460 784 q 344 656 368 719 q 320 505 320 593 q 344 354 320 416 q 414 259 368 292 q 527 227 460 227 m 528 1325 q 663 1295 604 1325 q 758 1214 723 1265 q 793 1099 793 1163 l 645 1099 q 612 1168 645 1141 q 527 1195 578 1195 q 442 1168 476 1195 q 408 1099 408 1141 l 262 1099 q 296 1214 262 1163 q 391 1295 331 1265 q 528 1325 452 1325 z "},"Ȫ":{"ha":1055,"x_min":36,"x_max":1018,"o":"m 527 -15 q 278 45 389 -15 q 101 221 166 105 q 36 505 36 337 q 101 790 36 673 q 278 966 166 906 q 527 1025 389 1025 q 776 966 665 1025 q 952 790 887 906 q 1018 505 1018 673 q 952 220 1018 336 q 776 45 887 104 q 527 -15 665 -15 m 527 227 q 641 259 595 227 q 711 354 687 292 q 734 505 734 416 q 711 656 734 593 q 641 751 687 719 q 527 784 595 784 q 414 751 460 784 q 344 656 368 719 q 320 505 320 593 q 344 354 320 416 q 414 259 368 292 q 527 227 460 227 m 679 1070 q 587 1105 624 1070 q 550 1193 550 1141 q 587 1280 550 1245 q 679 1315 624 1315 q 771 1280 734 1315 q 808 1193 808 1245 q 771 1105 808 1140 q 679 1070 734 1070 m 363 1070 q 271 1105 308 1070 q 235 1193 235 1141 q 271 1280 235 1245 q 363 1315 308 1315 q 455 1280 418 1315 q 492 1193 492 1245 q 455 1105 492 1140 q 363 1070 418 1070 m 730 1516 l 730 1382 l 323 1382 l 323 1516 l 730 1516 z "},"Ȭ":{"ha":1055,"x_min":36,"x_max":1018,"o":"m 527 -15 q 278 45 389 -15 q 101 221 166 105 q 36 505 36 337 q 101 790 36 673 q 278 966 166 906 q 527 1025 389 1025 q 776 966 665 1025 q 952 790 887 906 q 1018 505 1018 673 q 952 220 1018 336 q 776 45 887 104 q 527 -15 665 -15 m 527 227 q 641 259 595 227 q 711 354 687 292 q 734 505 734 416 q 711 656 734 593 q 641 751 687 719 q 527 784 595 784 q 414 751 460 784 q 344 656 368 719 q 320 505 320 593 q 344 354 320 416 q 414 259 368 292 q 527 227 460 227 m 627 1093 q 562 1105 589 1093 q 516 1133 535 1117 q 480 1162 496 1149 q 444 1174 463 1174 q 407 1155 420 1174 q 393 1098 394 1135 l 258 1098 q 309 1257 260 1205 q 427 1310 357 1310 q 492 1298 465 1310 q 539 1270 519 1286 q 575 1243 559 1255 q 610 1231 592 1231 q 650 1251 638 1231 q 663 1305 662 1270 l 795 1305 q 745 1147 794 1201 q 627 1093 696 1093 m 732 1516 l 732 1382 l 325 1382 l 325 1516 l 732 1516 z "},"Ȯ":{"ha":1055,"x_min":36,"x_max":1018,"o":"m 527 -15 q 278 45 389 -15 q 101 221 166 105 q 36 505 36 337 q 101 790 36 673 q 278 966 166 906 q 527 1025 389 1025 q 776 966 665 1025 q 952 790 887 906 q 1018 505 1018 673 q 952 220 1018 336 q 776 45 887 104 q 527 -15 665 -15 m 527 227 q 641 259 595 227 q 711 354 687 292 q 734 505 734 416 q 711 656 734 593 q 641 751 687 719 q 527 784 595 784 q 414 751 460 784 q 344 656 368 719 q 320 505 320 593 q 344 354 320 416 q 414 259 368 292 q 527 227 460 227 m 527 1071 q 427 1107 467 1071 q 387 1199 387 1144 q 427 1290 387 1254 q 526 1326 467 1326 q 627 1290 587 1326 q 667 1199 667 1254 q 627 1107 667 1144 q 527 1071 587 1071 z "},"Ȱ":{"ha":1055,"x_min":36,"x_max":1018,"o":"m 527 -15 q 278 45 389 -15 q 101 221 166 105 q 36 505 36 337 q 101 790 36 673 q 278 966 166 906 q 527 1025 389 1025 q 776 966 665 1025 q 952 790 887 906 q 1018 505 1018 673 q 952 220 1018 336 q 776 45 887 104 q 527 -15 665 -15 m 527 227 q 641 259 595 227 q 711 354 687 292 q 734 505 734 416 q 711 656 734 593 q 641 751 687 719 q 527 784 595 784 q 414 751 460 784 q 344 656 368 719 q 320 505 320 593 q 344 354 320 416 q 414 259 368 292 q 527 227 460 227 m 527 1063 q 427 1100 467 1063 q 387 1192 387 1137 q 427 1283 387 1246 q 526 1319 467 1319 q 627 1283 587 1319 q 667 1192 667 1247 q 627 1100 667 1137 q 527 1063 587 1063 m 730 1516 l 730 1382 l 323 1382 l 323 1516 l 730 1516 z "},"Ṍ":{"ha":1055,"x_min":36,"x_max":1018,"o":"m 527 -15 q 278 45 389 -15 q 101 221 166 105 q 36 505 36 337 q 101 790 36 673 q 278 966 166 906 q 527 1025 389 1025 q 776 966 665 1025 q 952 790 887 906 q 1018 505 1018 673 q 952 220 1018 336 q 776 45 887 104 q 527 -15 665 -15 m 527 227 q 641 259 595 227 q 711 354 687 292 q 734 505 734 416 q 711 656 734 593 q 641 751 687 719 q 527 784 595 784 q 414 751 460 784 q 344 656 368 719 q 320 505 320 593 q 344 354 320 416 q 414 259 368 292 q 527 227 460 227 m 627 1093 q 562 1105 589 1093 q 516 1133 535 1117 q 480 1162 496 1149 q 444 1174 463 1174 q 407 1155 420 1174 q 393 1098 394 1135 l 258 1098 q 309 1257 260 1205 q 427 1310 357 1310 q 492 1298 465 1310 q 539 1270 519 1286 q 575 1243 559 1255 q 610 1231 592 1231 q 650 1251 638 1231 q 663 1305 662 1270 l 795 1305 q 745 1147 794 1201 q 627 1093 696 1093 m 439 1352 l 541 1541 l 749 1541 l 593 1352 l 439 1352 z "},"Ṏ":{"ha":1055,"x_min":36,"x_max":1018,"o":"m 527 -15 q 278 45 389 -15 q 101 221 166 105 q 36 505 36 337 q 101 790 36 673 q 278 966 166 906 q 527 1025 389 1025 q 776 966 665 1025 q 952 790 887 906 q 1018 505 1018 673 q 952 220 1018 336 q 776 45 887 104 q 527 -15 665 -15 m 527 227 q 641 259 595 227 q 711 354 687 292 q 734 505 734 416 q 711 656 734 593 q 641 751 687 719 q 527 784 595 784 q 414 751 460 784 q 344 656 368 719 q 320 505 320 593 q 344 354 320 416 q 414 259 368 292 q 527 227 460 227 m 625 1093 q 559 1105 586 1093 q 513 1133 532 1117 q 477 1160 494 1148 q 441 1173 460 1173 q 405 1154 418 1173 q 390 1098 391 1135 l 256 1098 q 306 1254 258 1203 q 424 1305 354 1305 q 489 1293 462 1305 q 536 1266 516 1282 q 573 1239 556 1251 q 607 1227 589 1227 q 647 1246 635 1227 q 660 1301 659 1265 l 793 1301 q 743 1146 791 1199 q 625 1093 694 1093 m 669 1343 q 584 1373 618 1343 q 549 1447 549 1402 q 584 1522 549 1493 q 669 1552 618 1552 q 754 1522 720 1552 q 789 1447 789 1493 q 754 1373 789 1402 q 669 1343 720 1343 m 374 1343 q 289 1373 323 1343 q 255 1447 255 1402 q 289 1522 255 1493 q 374 1552 323 1552 q 460 1522 426 1552 q 494 1447 494 1493 q 460 1373 494 1402 q 374 1343 426 1343 z "},"Ṑ":{"ha":1055,"x_min":36,"x_max":1018,"o":"m 527 -15 q 278 45 389 -15 q 101 221 166 105 q 36 505 36 337 q 101 790 36 673 q 278 966 166 906 q 527 1025 389 1025 q 776 966 665 1025 q 952 790 887 906 q 1018 505 1018 673 q 952 220 1018 336 q 776 45 887 104 q 527 -15 665 -15 m 527 227 q 641 259 595 227 q 711 354 687 292 q 734 505 734 416 q 711 656 734 593 q 641 751 687 719 q 527 784 595 784 q 414 751 460 784 q 344 656 368 719 q 320 505 320 593 q 344 354 320 416 q 414 259 368 292 q 527 227 460 227 m 730 1270 l 730 1113 l 323 1113 l 323 1270 l 730 1270 m 456 1346 l 299 1541 l 507 1541 l 609 1346 l 456 1346 z "},"Ṓ":{"ha":1055,"x_min":36,"x_max":1018,"o":"m 527 -15 q 278 45 389 -15 q 101 221 166 105 q 36 505 36 337 q 101 790 36 673 q 278 966 166 906 q 527 1025 389 1025 q 776 966 665 1025 q 952 790 887 906 q 1018 505 1018 673 q 952 220 1018 336 q 776 45 887 104 q 527 -15 665 -15 m 527 227 q 641 259 595 227 q 711 354 687 292 q 734 505 734 416 q 711 656 734 593 q 641 751 687 719 q 527 784 595 784 q 414 751 460 784 q 344 656 368 719 q 320 505 320 593 q 344 354 320 416 q 414 259 368 292 q 527 227 460 227 m 730 1268 l 730 1111 l 323 1111 l 323 1268 l 730 1268 m 450 1346 l 551 1541 l 760 1541 l 603 1346 l 450 1346 z "},"Ọ":{"ha":1055,"x_min":36,"x_max":1018,"o":"m 527 -15 q 278 45 389 -15 q 101 221 166 105 q 36 505 36 337 q 101 790 36 673 q 278 966 166 906 q 527 1025 389 1025 q 776 966 665 1025 q 952 790 887 906 q 1018 505 1018 673 q 952 220 1018 336 q 776 45 887 104 q 527 -15 665 -15 m 527 227 q 641 259 595 227 q 711 354 687 292 q 734 505 734 416 q 711 656 734 593 q 641 751 687 719 q 527 784 595 784 q 414 751 460 784 q 344 656 368 719 q 320 505 320 593 q 344 354 320 416 q 414 259 368 292 q 527 227 460 227 m 527 -333 q 427 -296 467 -333 q 387 -205 387 -260 q 427 -114 387 -150 q 526 -77 467 -77 q 627 -114 587 -77 q 667 -205 667 -150 q 627 -296 667 -260 q 527 -333 587 -333 z "},"Ỏ":{"ha":1055,"x_min":36,"x_max":1018,"o":"m 527 -15 q 278 45 389 -15 q 101 221 166 105 q 36 505 36 337 q 101 790 36 673 q 278 966 166 906 q 527 1025 389 1025 q 776 966 665 1025 q 952 790 887 906 q 1018 505 1018 673 q 952 220 1018 336 q 776 45 887 104 q 527 -15 665 -15 m 527 227 q 641 259 595 227 q 711 354 687 292 q 734 505 734 416 q 711 656 734 593 q 641 751 687 719 q 527 784 595 784 q 414 751 460 784 q 344 656 368 719 q 320 505 320 593 q 344 354 320 416 q 414 259 368 292 q 527 227 460 227 m 597 1099 l 446 1099 l 498 1185 q 499 1188 500 1187 q 496 1190 498 1190 l 378 1190 l 378 1320 l 501 1320 q 609 1302 571 1320 q 658 1256 646 1284 q 662 1196 670 1227 q 631 1139 653 1164 l 597 1099 z "},"Ố":{"ha":1055,"x_min":36,"x_max":1018,"o":"m 527 -15 q 278 45 389 -15 q 101 221 166 105 q 36 505 36 337 q 101 790 36 673 q 278 966 166 906 q 527 1025 389 1025 q 776 966 665 1025 q 952 790 887 906 q 1018 505 1018 673 q 952 220 1018 336 q 776 45 887 104 q 527 -15 665 -15 m 527 227 q 641 259 595 227 q 711 354 687 292 q 734 505 734 416 q 711 656 734 593 q 641 751 687 719 q 527 784 595 784 q 414 751 460 784 q 344 656 368 719 q 320 505 320 593 q 344 354 320 416 q 414 259 368 292 q 527 227 460 227 m 439 1090 l 231 1090 l 231 1093 l 428 1312 l 624 1312 l 823 1093 l 823 1090 l 616 1090 l 526 1201 l 439 1090 m 625 1346 l 719 1535 l 913 1535 l 768 1346 l 625 1346 z "},"Ồ":{"ha":1055,"x_min":36,"x_max":1018,"o":"m 527 -15 q 278 45 389 -15 q 101 221 166 105 q 36 505 36 337 q 101 790 36 673 q 278 966 166 906 q 527 1025 389 1025 q 776 966 665 1025 q 952 790 887 906 q 1018 505 1018 673 q 952 220 1018 336 q 776 45 887 104 q 527 -15 665 -15 m 527 227 q 641 259 595 227 q 711 354 687 292 q 734 505 734 416 q 711 656 734 593 q 641 751 687 719 q 527 784 595 784 q 414 751 460 784 q 344 656 368 719 q 320 505 320 593 q 344 354 320 416 q 414 259 368 292 q 527 227 460 227 m 439 1090 l 231 1090 l 231 1093 l 428 1312 l 624 1312 l 823 1093 l 823 1090 l 616 1090 l 526 1201 l 439 1090 m 696 1346 l 551 1535 l 745 1535 l 840 1346 l 696 1346 z "},"Ổ":{"ha":1055,"x_min":36,"x_max":1018,"o":"m 527 -15 q 278 45 389 -15 q 101 221 166 105 q 36 505 36 337 q 101 790 36 673 q 278 966 166 906 q 527 1025 389 1025 q 776 966 665 1025 q 952 790 887 906 q 1018 505 1018 673 q 952 220 1018 336 q 776 45 887 104 q 527 -15 665 -15 m 527 227 q 641 259 595 227 q 711 354 687 292 q 734 505 734 416 q 711 656 734 593 q 641 751 687 719 q 527 784 595 784 q 414 751 460 784 q 344 656 368 719 q 320 505 320 593 q 344 354 320 416 q 414 259 368 292 q 527 227 460 227 m 439 1090 l 231 1090 l 231 1093 l 428 1312 l 624 1312 l 823 1093 l 823 1090 l 616 1090 l 526 1201 l 439 1090 m 749 1346 l 628 1346 l 670 1419 q 671 1422 671 1421 q 668 1423 670 1423 l 574 1423 l 574 1535 l 673 1535 q 777 1508 747 1535 q 803 1446 806 1482 q 777 1380 800 1409 l 749 1346 z "},"Ỗ":{"ha":1055,"x_min":36,"x_max":1018,"o":"m 527 -15 q 278 45 389 -15 q 101 221 166 105 q 36 505 36 337 q 101 790 36 673 q 278 966 166 906 q 527 1025 389 1025 q 776 966 665 1025 q 952 790 887 906 q 1018 505 1018 673 q 952 220 1018 336 q 776 45 887 104 q 527 -15 665 -15 m 527 227 q 641 259 595 227 q 711 354 687 292 q 734 505 734 416 q 711 656 734 593 q 641 751 687 719 q 527 784 595 784 q 414 751 460 784 q 344 656 368 719 q 320 505 320 593 q 344 354 320 416 q 414 259 368 292 q 527 227 460 227 m 439 1090 l 231 1090 l 231 1093 l 428 1312 l 624 1312 l 823 1093 l 823 1090 l 616 1090 l 526 1201 l 439 1090 m 628 1352 q 563 1363 589 1352 q 516 1388 536 1374 q 480 1413 497 1402 q 444 1423 464 1423 q 408 1407 421 1423 q 393 1357 395 1390 l 259 1357 q 309 1496 260 1451 q 427 1541 357 1541 q 492 1531 465 1541 q 539 1507 519 1520 q 576 1483 559 1493 q 610 1473 593 1473 q 651 1490 639 1473 q 663 1537 663 1507 l 796 1537 q 746 1399 795 1447 q 628 1352 697 1352 z "},"Ộ":{"ha":1055,"x_min":36,"x_max":1018,"o":"m 527 -15 q 278 45 389 -15 q 101 221 166 105 q 36 505 36 337 q 101 790 36 673 q 278 966 166 906 q 527 1025 389 1025 q 776 966 665 1025 q 952 790 887 906 q 1018 505 1018 673 q 952 220 1018 336 q 776 45 887 104 q 527 -15 665 -15 m 527 227 q 641 259 595 227 q 711 354 687 292 q 734 505 734 416 q 711 656 734 593 q 641 751 687 719 q 527 784 595 784 q 414 751 460 784 q 344 656 368 719 q 320 505 320 593 q 344 354 320 416 q 414 259 368 292 q 527 227 460 227 m 439 1099 l 231 1099 l 231 1101 l 428 1320 l 624 1320 l 823 1101 l 823 1099 l 616 1099 l 526 1209 l 439 1099 m 527 -333 q 427 -296 467 -333 q 387 -205 387 -260 q 427 -114 387 -150 q 526 -77 467 -77 q 627 -114 587 -77 q 667 -205 667 -150 q 627 -296 667 -260 q 527 -333 587 -333 z "},"Ớ":{"ha":1066,"x_min":36,"x_max":1024,"o":"m 533 866 l 533 1025 q 587 1023 562 1025 q 636 1018 611 1021 q 693 1013 662 1015 q 766 1010 724 1010 q 788 1032 788 1010 l 788 1164 l 1024 1164 l 1024 1003 q 973 890 1024 924 q 849 856 922 856 q 770 857 810 856 q 691 861 730 859 q 612 864 652 863 q 533 866 572 866 m 527 -15 q 278 45 389 -15 q 101 221 166 105 q 36 505 36 337 q 101 790 36 673 q 278 966 166 906 q 527 1025 389 1025 q 776 966 665 1025 q 952 790 887 906 q 1018 505 1018 673 q 952 220 1018 336 q 776 45 887 104 q 527 -15 665 -15 m 527 227 q 641 259 595 227 q 711 354 687 292 q 734 505 734 416 q 711 656 734 593 q 641 751 687 719 q 527 784 595 784 q 414 751 460 784 q 344 656 368 719 q 320 505 320 593 q 344 354 320 416 q 414 259 368 292 q 527 227 460 227 m 429 1099 l 547 1320 l 789 1320 l 608 1099 l 429 1099 z "},"Ờ":{"ha":1066,"x_min":36,"x_max":1024,"o":"m 533 866 l 533 1025 q 587 1023 562 1025 q 636 1018 611 1021 q 693 1013 662 1015 q 766 1010 724 1010 q 788 1032 788 1010 l 788 1164 l 1024 1164 l 1024 1003 q 973 890 1024 924 q 849 856 922 856 q 770 857 810 856 q 691 861 730 859 q 612 864 652 863 q 533 866 572 866 m 527 -15 q 278 45 389 -15 q 101 221 166 105 q 36 505 36 337 q 101 790 36 673 q 278 966 166 906 q 527 1025 389 1025 q 776 966 665 1025 q 952 790 887 906 q 1018 505 1018 673 q 952 220 1018 336 q 776 45 887 104 q 527 -15 665 -15 m 527 227 q 641 259 595 227 q 711 354 687 292 q 734 505 734 416 q 711 656 734 593 q 641 751 687 719 q 527 784 595 784 q 414 751 460 784 q 344 656 368 719 q 320 505 320 593 q 344 354 320 416 q 414 259 368 292 q 527 227 460 227 m 446 1099 l 265 1320 l 507 1320 l 625 1099 l 446 1099 z "},"Ở":{"ha":1066,"x_min":36,"x_max":1024,"o":"m 533 866 l 533 1025 q 587 1023 562 1025 q 636 1018 611 1021 q 693 1013 662 1015 q 766 1010 724 1010 q 788 1032 788 1010 l 788 1164 l 1024 1164 l 1024 1003 q 973 890 1024 924 q 849 856 922 856 q 770 857 810 856 q 691 861 730 859 q 612 864 652 863 q 533 866 572 866 m 527 -15 q 278 45 389 -15 q 101 221 166 105 q 36 505 36 337 q 101 790 36 673 q 278 966 166 906 q 527 1025 389 1025 q 776 966 665 1025 q 952 790 887 906 q 1018 505 1018 673 q 952 220 1018 336 q 776 45 887 104 q 527 -15 665 -15 m 527 227 q 641 259 595 227 q 711 354 687 292 q 734 505 734 416 q 711 656 734 593 q 641 751 687 719 q 527 784 595 784 q 414 751 460 784 q 344 656 368 719 q 320 505 320 593 q 344 354 320 416 q 414 259 368 292 q 527 227 460 227 m 597 1099 l 446 1099 l 498 1185 q 499 1188 500 1187 q 496 1190 498 1190 l 378 1190 l 378 1320 l 501 1320 q 609 1302 571 1320 q 658 1256 646 1284 q 662 1196 670 1227 q 631 1139 653 1164 l 597 1099 z "},"Ỡ":{"ha":1066,"x_min":36,"x_max":1024,"o":"m 533 866 l 533 1025 q 587 1023 562 1025 q 636 1018 611 1021 q 693 1013 662 1015 q 766 1010 724 1010 q 788 1032 788 1010 l 788 1164 l 1024 1164 l 1024 1003 q 973 890 1024 924 q 849 856 922 856 q 770 857 810 856 q 691 861 730 859 q 612 864 652 863 q 533 866 572 866 m 527 -15 q 278 45 389 -15 q 101 221 166 105 q 36 505 36 337 q 101 790 36 673 q 278 966 166 906 q 527 1025 389 1025 q 776 966 665 1025 q 952 790 887 906 q 1018 505 1018 673 q 952 220 1018 336 q 776 45 887 104 q 527 -15 665 -15 m 527 227 q 641 259 595 227 q 711 354 687 292 q 734 505 734 416 q 711 656 734 593 q 641 751 687 719 q 527 784 595 784 q 414 751 460 784 q 344 656 368 719 q 320 505 320 593 q 344 354 320 416 q 414 259 368 292 q 527 227 460 227 m 627 1100 q 562 1112 589 1100 q 516 1141 535 1124 q 480 1169 496 1157 q 444 1181 463 1181 q 407 1162 420 1181 q 393 1105 394 1143 l 258 1105 q 309 1265 260 1213 q 427 1317 357 1317 q 492 1305 465 1317 q 539 1278 519 1293 q 575 1250 559 1262 q 610 1238 592 1238 q 650 1258 638 1238 q 663 1313 662 1278 l 795 1313 q 745 1154 794 1208 q 627 1100 696 1100 z "},"Ợ":{"ha":1066,"x_min":36,"x_max":1024,"o":"m 533 866 l 533 1025 q 587 1023 562 1025 q 636 1018 611 1021 q 693 1013 662 1015 q 766 1010 724 1010 q 788 1032 788 1010 l 788 1164 l 1024 1164 l 1024 1003 q 973 890 1024 924 q 849 856 922 856 q 770 857 810 856 q 691 861 730 859 q 612 864 652 863 q 533 866 572 866 m 527 -15 q 278 45 389 -15 q 101 221 166 105 q 36 505 36 337 q 101 790 36 673 q 278 966 166 906 q 527 1025 389 1025 q 776 966 665 1025 q 952 790 887 906 q 1018 505 1018 673 q 952 220 1018 336 q 776 45 887 104 q 527 -15 665 -15 m 527 227 q 641 259 595 227 q 711 354 687 292 q 734 505 734 416 q 711 656 734 593 q 641 751 687 719 q 527 784 595 784 q 414 751 460 784 q 344 656 368 719 q 320 505 320 593 q 344 354 320 416 q 414 259 368 292 q 527 227 460 227 m 527 -333 q 427 -296 467 -333 q 387 -205 387 -260 q 427 -114 387 -150 q 526 -77 467 -77 q 627 -114 587 -77 q 667 -205 667 -150 q 627 -296 667 -260 q 527 -333 587 -333 z "},"Ǿ":{"ha":1055,"x_min":36,"x_max":1018,"o":"m 527 -15 q 278 45 389 -15 q 101 221 166 105 q 36 505 36 337 q 101 790 36 673 q 278 966 166 906 q 527 1025 389 1025 q 776 966 665 1025 q 952 790 887 906 q 1018 505 1018 673 q 952 220 1018 336 q 776 45 887 104 q 527 -15 665 -15 m 527 227 q 641 259 595 227 q 711 354 687 292 q 734 505 734 416 q 711 656 734 593 q 641 751 687 719 q 527 784 595 784 q 414 751 460 784 q 344 656 368 719 q 320 505 320 593 q 344 354 320 416 q 414 259 368 292 q 527 227 460 227 m 179 -57 l 54 43 l 876 1067 l 1002 966 l 179 -57 m 429 1099 l 547 1320 l 789 1320 l 608 1099 l 429 1099 z "},"Ο":{"ha":1055,"x_min":36,"x_max":1018,"o":"m 527 -15 q 278 45 389 -15 q 101 221 166 105 q 36 505 36 337 q 101 790 36 673 q 278 966 166 906 q 527 1025 389 1025 q 776 966 665 1025 q 952 790 887 906 q 1018 505 1018 673 q 952 220 1018 336 q 776 45 887 104 q 527 -15 665 -15 m 527 227 q 641 259 595 227 q 711 354 687 292 q 734 505 734 416 q 711 656 734 593 q 641 751 687 719 q 527 784 595 784 q 414 751 460 784 q 344 656 368 719 q 320 505 320 593 q 344 354 320 416 q 414 259 368 292 q 527 227 460 227 z "},"Ό":{"ha":1282,"x_min":32,"x_max":1234,"o":"m 743 -15 q 494 45 606 -15 q 317 221 382 105 q 252 505 252 337 q 317 790 252 673 q 494 966 382 906 q 743 1025 606 1025 q 992 966 881 1025 q 1169 790 1103 906 q 1234 505 1234 673 q 1169 220 1234 336 q 992 45 1103 104 q 743 -15 881 -15 m 743 227 q 857 259 811 227 q 927 354 903 292 q 951 505 951 416 q 927 656 951 593 q 857 751 903 719 q 743 784 811 784 q 631 751 677 784 q 561 656 585 719 q 536 505 536 593 q 561 354 536 416 q 631 259 585 292 q 743 227 677 227 m 32 789 l 54 1010 l 281 1010 l 184 789 l 32 789 z "},"Ὀ":{"ha":1263,"x_min":32,"x_max":1215,"o":"m 724 -15 q 474 45 586 -15 q 298 221 363 105 q 233 505 233 337 q 298 790 233 673 q 474 966 363 906 q 724 1025 586 1025 q 972 966 861 1025 q 1149 790 1084 906 q 1215 505 1215 673 q 1149 220 1215 336 q 972 45 1084 104 q 724 -15 861 -15 m 724 227 q 838 259 791 227 q 907 354 884 292 q 931 505 931 416 q 907 656 931 593 q 838 751 884 719 q 724 784 791 784 q 611 751 657 784 q 541 656 565 719 q 517 505 517 593 q 541 354 517 416 q 611 259 565 292 q 724 227 657 227 m 60 774 l 52 774 l 52 839 l 66 839 q 118 847 101 839 q 135 874 135 856 q 120 900 135 891 q 76 908 106 908 l 32 908 l 32 1021 l 60 1021 q 203 986 152 1021 q 255 894 255 951 q 203 806 255 838 q 60 774 151 774 z "},"Ὁ":{"ha":1279,"x_min":32,"x_max":1231,"o":"m 739 -15 q 490 45 602 -15 q 313 221 378 105 q 248 505 248 337 q 313 790 248 673 q 490 966 378 906 q 739 1025 602 1025 q 988 966 877 1025 q 1165 790 1099 906 q 1230 505 1230 673 q 1165 220 1230 336 q 988 45 1099 104 q 739 -15 877 -15 m 739 227 q 853 259 807 227 q 923 354 899 292 q 947 505 947 416 q 923 656 947 593 q 853 751 899 719 q 739 784 807 784 q 627 751 673 784 q 556 656 581 719 q 532 505 532 593 q 556 354 532 416 q 627 259 581 292 q 739 227 673 227 m 227 766 q 84 798 136 766 q 32 886 32 829 q 83 978 32 943 q 227 1013 135 1013 l 255 1013 l 255 900 l 211 900 q 167 891 182 900 q 152 866 152 883 q 169 839 152 848 q 220 831 186 831 l 235 831 l 235 766 l 227 766 z "},"Ὂ":{"ha":1520,"x_min":32,"x_max":1472,"o":"m 981 -15 q 731 45 843 -15 q 555 221 620 105 q 490 505 490 337 q 555 790 490 673 q 731 966 620 906 q 981 1025 843 1025 q 1230 966 1118 1025 q 1406 790 1341 906 q 1472 505 1472 673 q 1406 220 1472 336 q 1230 45 1341 104 q 981 -15 1118 -15 m 981 227 q 1095 259 1048 227 q 1164 354 1141 292 q 1188 505 1188 416 q 1164 656 1188 593 q 1095 751 1141 719 q 981 784 1048 784 q 868 751 914 784 q 798 656 822 719 q 774 505 774 593 q 798 354 774 416 q 868 259 822 292 q 981 227 914 227 m 60 766 l 52 766 l 52 831 l 66 831 q 118 839 101 831 q 135 866 135 848 q 120 891 135 883 q 76 900 106 900 l 32 900 l 32 1013 l 60 1013 q 203 978 152 1013 q 255 886 255 943 q 203 798 255 829 q 60 766 151 766 m 476 772 l 346 772 l 262 1010 l 457 1010 l 476 772 z "},"Ὃ":{"ha":1561,"x_min":32,"x_max":1513,"o":"m 1021 -15 q 772 45 884 -15 q 595 221 661 105 q 530 505 530 337 q 595 790 530 673 q 772 966 661 906 q 1021 1025 884 1025 q 1270 966 1159 1025 q 1447 790 1381 906 q 1512 505 1512 673 q 1447 220 1512 336 q 1270 45 1381 104 q 1021 -15 1159 -15 m 1021 227 q 1135 259 1089 227 q 1205 354 1181 292 q 1229 505 1229 416 q 1205 656 1229 593 q 1135 751 1181 719 q 1021 784 1089 784 q 909 751 955 784 q 839 656 863 719 q 814 505 814 593 q 839 354 814 416 q 909 259 863 292 q 1021 227 955 227 m 227 766 q 84 798 136 766 q 32 886 32 829 q 83 978 32 943 q 227 1013 135 1013 l 255 1013 l 255 900 l 211 900 q 167 891 182 900 q 152 866 152 883 q 169 839 152 848 q 220 831 186 831 l 235 831 l 235 766 l 227 766 m 505 772 l 375 772 l 292 1010 l 486 1010 l 505 772 z "},"Ὄ":{"ha":1531,"x_min":32,"x_max":1483,"o":"m 991 -15 q 742 45 854 -15 q 566 221 631 105 q 500 505 500 337 q 566 790 500 673 q 742 966 631 906 q 991 1025 854 1025 q 1240 966 1129 1025 q 1417 790 1352 906 q 1482 505 1482 673 q 1417 220 1482 336 q 1240 45 1352 104 q 991 -15 1129 -15 m 991 227 q 1105 259 1059 227 q 1175 354 1152 292 q 1199 505 1199 416 q 1175 656 1199 593 q 1105 751 1152 719 q 991 784 1059 784 q 879 751 925 784 q 809 656 833 719 q 785 505 785 593 q 809 354 785 416 q 879 259 833 292 q 991 227 925 227 m 60 766 l 52 766 l 52 831 l 66 831 q 118 839 101 831 q 135 866 135 848 q 120 891 135 883 q 76 900 106 900 l 32 900 l 32 1013 l 60 1013 q 203 978 152 1013 q 255 886 255 943 q 203 798 255 829 q 60 766 151 766 m 320 772 l 338 1010 l 534 1010 l 450 772 l 320 772 z "},"Ὅ":{"ha":1560,"x_min":32,"x_max":1512,"o":"m 1021 -15 q 772 45 884 -15 q 595 221 661 105 q 530 505 530 337 q 595 790 530 673 q 772 966 661 906 q 1021 1025 884 1025 q 1270 966 1159 1025 q 1447 790 1381 906 q 1512 505 1512 673 q 1447 220 1512 336 q 1270 45 1381 104 q 1021 -15 1159 -15 m 1021 227 q 1135 259 1089 227 q 1205 354 1181 292 q 1229 505 1229 416 q 1205 656 1229 593 q 1135 751 1181 719 q 1021 784 1089 784 q 909 751 955 784 q 839 656 863 719 q 814 505 814 593 q 839 354 814 416 q 909 259 863 292 q 1021 227 955 227 m 227 766 q 84 798 136 766 q 32 886 32 829 q 83 978 32 943 q 227 1013 135 1013 l 255 1013 l 255 900 l 211 900 q 167 891 182 900 q 152 866 152 883 q 169 839 152 848 q 220 831 186 831 l 235 831 l 235 766 l 227 766 m 345 772 l 363 1010 l 557 1010 l 474 772 l 345 772 z "},"Ὸ":{"ha":1055,"x_min":-264,"x_max":1018,"o":"m 527 -15 q 278 45 389 -15 q 101 221 166 105 q 36 505 36 337 q 101 790 36 673 q 278 966 166 906 q 527 1025 389 1025 q 776 966 665 1025 q 952 790 887 906 q 1018 505 1018 673 q 952 220 1018 336 q 776 45 887 104 q 527 -15 665 -15 m 527 227 q 641 259 595 227 q 711 354 687 292 q 734 505 734 416 q 711 656 734 593 q 641 751 687 719 q 527 784 595 784 q 414 751 460 784 q 344 656 368 719 q 320 505 320 593 q 344 354 320 416 q 414 259 368 292 q 527 227 460 227 m -15 823 l -167 823 l -264 1044 l -37 1044 l -15 823 z "},"ϴ":{"ha":1055,"x_min":36,"x_max":1018,"o":"m 857 585 l 857 426 l 237 426 l 237 585 l 857 585 m 527 -15 q 278 45 389 -15 q 101 221 166 105 q 36 505 36 337 q 101 790 36 673 q 278 966 166 906 q 527 1025 389 1025 q 776 966 665 1025 q 952 790 887 906 q 1018 505 1018 673 q 952 220 1018 336 q 776 45 887 104 q 527 -15 665 -15 m 527 227 q 641 259 595 227 q 711 354 687 292 q 734 505 734 416 q 711 656 734 593 q 641 751 687 719 q 527 784 595 784 q 414 751 460 784 q 344 656 368 719 q 320 505 320 593 q 344 354 320 416 q 414 259 368 292 q 527 227 460 227 z "},"Ό":{"ha":1282,"x_min":32,"x_max":1234,"o":"m 743 -15 q 494 45 606 -15 q 317 221 382 105 q 252 505 252 337 q 317 790 252 673 q 494 966 382 906 q 743 1025 606 1025 q 992 966 881 1025 q 1169 790 1103 906 q 1234 505 1234 673 q 1169 220 1234 336 q 992 45 1103 104 q 743 -15 881 -15 m 743 227 q 857 259 811 227 q 927 354 903 292 q 951 505 951 416 q 927 656 951 593 q 857 751 903 719 q 743 784 811 784 q 631 751 677 784 q 561 656 585 719 q 536 505 536 593 q 561 354 536 416 q 631 259 585 292 q 743 227 677 227 m 32 789 l 54 1010 l 281 1010 l 184 789 l 32 789 z "},"О":{"ha":1055,"x_min":36,"x_max":1018,"o":"m 527 -15 q 278 45 389 -15 q 101 221 166 105 q 36 505 36 337 q 101 790 36 673 q 278 966 166 906 q 527 1025 389 1025 q 776 966 665 1025 q 952 790 887 906 q 1018 505 1018 673 q 952 220 1018 336 q 776 45 887 104 q 527 -15 665 -15 m 527 227 q 641 259 595 227 q 711 354 687 292 q 734 505 734 416 q 711 656 734 593 q 641 751 687 719 q 527 784 595 784 q 414 751 460 784 q 344 656 368 719 q 320 505 320 593 q 344 354 320 416 q 414 259 368 292 q 527 227 460 227 z "},"Ӧ":{"ha":1055,"x_min":36,"x_max":1018,"o":"m 527 -15 q 278 45 389 -15 q 101 221 166 105 q 36 505 36 337 q 101 790 36 673 q 278 966 166 906 q 527 1025 389 1025 q 776 966 665 1025 q 952 790 887 906 q 1018 505 1018 673 q 952 220 1018 336 q 776 45 887 104 q 527 -15 665 -15 m 527 227 q 641 259 595 227 q 711 354 687 292 q 734 505 734 416 q 711 656 734 593 q 641 751 687 719 q 527 784 595 784 q 414 751 460 784 q 344 656 368 719 q 320 505 320 593 q 344 354 320 416 q 414 259 368 292 q 527 227 460 227 m 685 1078 q 593 1113 630 1078 q 556 1200 556 1148 q 593 1287 556 1253 q 685 1322 630 1322 q 777 1287 740 1322 q 814 1200 814 1253 q 777 1113 814 1147 q 685 1078 740 1078 m 369 1078 q 277 1113 314 1078 q 241 1200 241 1148 q 277 1287 241 1253 q 369 1322 314 1322 q 461 1287 425 1322 q 498 1200 498 1253 q 461 1113 498 1147 q 369 1078 425 1078 z "},"Ɵ":{"ha":1055,"x_min":36,"x_max":1018,"o":"m 857 585 l 857 426 l 237 426 l 237 585 l 857 585 m 527 -15 q 278 45 389 -15 q 101 221 166 105 q 36 505 36 337 q 101 790 36 673 q 278 966 166 906 q 527 1025 389 1025 q 776 966 665 1025 q 952 790 887 906 q 1018 505 1018 673 q 952 220 1018 336 q 776 45 887 104 q 527 -15 665 -15 m 527 227 q 641 259 595 227 q 711 354 687 292 q 734 505 734 416 q 711 656 734 593 q 641 751 687 719 q 527 784 595 784 q 414 751 460 784 q 344 656 368 719 q 320 505 320 593 q 344 354 320 416 q 414 259 368 292 q 527 227 460 227 z "},"Ө":{"ha":1055,"x_min":36,"x_max":1018,"o":"m 857 585 l 857 426 l 237 426 l 237 585 l 857 585 m 527 -15 q 278 45 389 -15 q 101 221 166 105 q 36 505 36 337 q 101 790 36 673 q 278 966 166 906 q 527 1025 389 1025 q 776 966 665 1025 q 952 790 887 906 q 1018 505 1018 673 q 952 220 1018 336 q 776 45 887 104 q 527 -15 665 -15 m 527 227 q 641 259 595 227 q 711 354 687 292 q 734 505 734 416 q 711 656 734 593 q 641 751 687 719 q 527 784 595 784 q 414 751 460 784 q 344 656 368 719 q 320 505 320 593 q 344 354 320 416 q 414 259 368 292 q 527 227 460 227 z "},"Ӫ":{"ha":1055,"x_min":36,"x_max":1018,"o":"m 857 585 l 857 426 l 237 426 l 237 585 l 857 585 m 527 -15 q 278 45 389 -15 q 101 221 166 105 q 36 505 36 337 q 101 790 36 673 q 278 966 166 906 q 527 1025 389 1025 q 776 966 665 1025 q 952 790 887 906 q 1018 505 1018 673 q 952 220 1018 336 q 776 45 887 104 q 527 -15 665 -15 m 527 227 q 641 259 595 227 q 711 354 687 292 q 734 505 734 416 q 711 656 734 593 q 641 751 687 719 q 527 784 595 784 q 414 751 460 784 q 344 656 368 719 q 320 505 320 593 q 344 354 320 416 q 414 259 368 292 q 527 227 460 227 m 685 1078 q 593 1113 630 1078 q 556 1200 556 1148 q 593 1287 556 1253 q 685 1322 630 1322 q 777 1287 740 1322 q 814 1200 814 1253 q 777 1113 814 1147 q 685 1078 740 1078 m 369 1078 q 277 1113 314 1078 q 241 1200 241 1148 q 277 1287 241 1253 q 369 1322 314 1322 q 461 1287 425 1322 q 498 1200 498 1253 q 461 1113 498 1147 q 369 1078 425 1078 z "},"Œ":{"ha":1454,"x_min":36,"x_max":1406,"o":"m 543 0 q 275 61 389 0 q 98 236 161 123 q 36 505 36 349 q 99 774 36 661 q 277 949 162 887 q 547 1010 392 1010 l 814 1010 l 814 777 l 564 777 q 427 750 481 777 q 344 663 372 723 q 317 505 317 603 q 343 347 317 407 q 424 260 370 287 q 555 233 477 233 l 810 233 l 810 0 l 543 0 m 648 0 l 648 1010 l 1406 1010 l 1406 780 l 926 780 l 926 619 l 1368 619 l 1368 395 l 926 395 l 926 231 l 1404 231 l 1404 0 l 648 0 z "},"P":{"ha":905,"x_min":59,"x_max":876,"o":"m 59 0 l 59 1010 l 491 1010 q 695 967 608 1010 q 829 843 781 923 q 876 655 876 764 q 828 468 876 547 q 693 346 781 389 q 487 302 605 302 l 222 302 l 222 526 l 450 526 q 528 542 496 526 q 578 587 561 558 q 596 655 596 616 q 578 724 596 696 q 528 768 561 753 q 450 784 496 784 l 338 784 l 338 0 l 59 0 z "},"Ṕ":{"ha":905,"x_min":59,"x_max":876,"o":"m 59 0 l 59 1010 l 491 1010 q 695 967 608 1010 q 829 843 781 923 q 876 655 876 764 q 828 468 876 547 q 693 346 781 389 q 487 302 605 302 l 222 302 l 222 526 l 450 526 q 528 542 496 526 q 578 587 561 558 q 596 655 596 616 q 578 724 596 696 q 528 768 561 753 q 450 784 496 784 l 338 784 l 338 0 l 59 0 m 347 1099 l 465 1320 l 707 1320 l 526 1099 l 347 1099 z "},"Ṗ":{"ha":905,"x_min":59,"x_max":876,"o":"m 59 0 l 59 1010 l 491 1010 q 695 967 608 1010 q 829 843 781 923 q 876 655 876 764 q 828 468 876 547 q 693 346 781 389 q 487 302 605 302 l 222 302 l 222 526 l 450 526 q 528 542 496 526 q 578 587 561 558 q 596 655 596 616 q 578 724 596 696 q 528 768 561 753 q 450 784 496 784 l 338 784 l 338 0 l 59 0 m 445 1071 q 345 1107 385 1071 q 304 1199 304 1144 q 345 1290 304 1254 q 444 1326 385 1326 q 545 1290 505 1326 q 585 1199 585 1254 q 545 1107 585 1144 q 445 1071 505 1071 z "},"Ҏ":{"ha":930,"x_min":67,"x_max":884,"o":"m 479 673 l 759 239 l 671 182 l 390 616 l 479 673 m 67 0 l 67 1010 l 499 1010 q 703 967 616 1010 q 837 843 789 923 q 884 655 884 764 q 837 468 884 547 q 701 346 789 389 q 495 302 613 302 l 231 302 l 231 526 l 458 526 q 536 542 504 526 q 587 587 569 558 q 604 655 604 616 q 587 724 604 696 q 536 768 569 753 q 458 784 504 784 l 346 784 l 346 0 l 67 0 z "},"Ƥ":{"ha":1231,"x_min":22,"x_max":1202,"o":"m 22 692 l 22 759 q 89 944 22 878 q 294 1010 157 1010 l 386 1010 l 386 784 l 346 784 q 295 769 313 784 q 278 726 278 754 l 278 692 l 22 692 m 385 0 l 385 1010 l 817 1010 q 1020 967 934 1010 q 1154 843 1107 923 q 1202 655 1202 764 q 1154 468 1202 547 q 1018 346 1106 389 q 812 302 930 302 l 548 302 l 548 526 l 776 526 q 854 542 821 526 q 904 587 886 558 q 922 655 922 616 q 904 724 922 696 q 854 768 886 753 q 776 784 821 784 l 663 784 l 663 0 l 385 0 z "},"Ρ":{"ha":905,"x_min":59,"x_max":876,"o":"m 59 0 l 59 1010 l 491 1010 q 695 967 608 1010 q 829 843 781 923 q 876 655 876 764 q 828 468 876 547 q 693 346 781 389 q 487 302 605 302 l 222 302 l 222 526 l 450 526 q 528 542 496 526 q 578 587 561 558 q 596 655 596 616 q 578 724 596 696 q 528 768 561 753 q 450 784 496 784 l 338 784 l 338 0 l 59 0 z "},"Ῥ":{"ha":1203,"x_min":32,"x_max":1175,"o":"m 357 0 l 357 1010 l 789 1010 q 993 967 907 1010 q 1127 843 1080 923 q 1175 655 1175 764 q 1127 468 1175 547 q 991 346 1079 389 q 785 302 903 302 l 521 302 l 521 526 l 749 526 q 827 542 794 526 q 877 587 859 558 q 895 655 895 616 q 877 724 895 696 q 827 768 859 753 q 749 784 794 784 l 636 784 l 636 0 l 357 0 m 227 766 q 84 798 136 766 q 32 886 32 829 q 83 978 32 943 q 227 1013 135 1013 l 255 1013 l 255 900 l 211 900 q 167 891 182 900 q 152 866 152 883 q 169 839 152 848 q 220 831 186 831 l 235 831 l 235 766 l 227 766 z "},"Q":{"ha":1061,"x_min":36,"x_max":1025,"o":"m 431 374 l 644 374 l 722 278 l 852 130 l 1025 -75 l 785 -75 l 667 65 l 578 182 l 431 374 m 527 -15 q 278 45 389 -15 q 101 221 166 105 q 36 505 36 337 q 101 790 36 673 q 278 966 166 906 q 527 1025 389 1025 q 776 966 665 1025 q 952 790 887 906 q 1018 505 1018 673 q 952 220 1018 336 q 776 45 887 104 q 527 -15 665 -15 m 527 227 q 641 259 595 227 q 711 354 687 292 q 734 505 734 416 q 711 656 734 593 q 641 751 687 719 q 527 784 595 784 q 414 751 460 784 q 344 656 368 719 q 320 505 320 593 q 344 354 320 416 q 414 259 368 292 q 527 227 460 227 z "},"Ɋ":{"ha":1065,"x_min":36,"x_max":1154,"o":"m 1006 1010 l 1006 0 l 734 0 l 734 140 l 730 140 q 621 28 690 71 q 456 -14 553 -14 q 288 25 365 -14 q 154 135 211 64 q 67 299 98 205 q 36 505 36 393 q 67 710 36 616 q 156 875 99 805 q 289 985 212 945 q 456 1024 366 1024 q 620 982 552 1024 q 730 871 688 939 l 734 871 l 734 1010 l 1006 1010 m 524 225 q 638 258 591 225 q 709 353 685 290 q 733 505 733 415 q 709 657 733 595 q 638 753 685 720 q 524 785 592 785 q 412 753 458 785 q 342 658 366 720 q 318 505 318 595 q 342 352 318 414 q 412 257 366 290 q 524 225 458 225 m 1013 -290 q 802 -227 870 -290 q 734 -37 734 -163 l 734 0 l 1006 0 l 1006 -28 q 1020 -72 1006 -58 q 1068 -85 1035 -85 q 1117 -85 1095 -85 q 1154 -83 1139 -84 l 1154 -283 q 1092 -289 1128 -287 q 1013 -290 1055 -290 z "},"R":{"ha":926,"x_min":59,"x_max":909,"o":"m 59 0 l 59 1010 l 491 1010 q 695 968 608 1010 q 829 848 781 926 q 876 662 876 770 q 827 480 876 555 q 689 364 778 404 q 479 324 600 324 l 229 324 l 229 540 l 450 540 q 528 554 496 540 q 578 595 561 568 q 596 662 596 623 q 578 729 596 702 q 528 771 561 757 q 450 785 496 785 l 338 785 l 338 0 l 59 0 m 613 0 l 381 461 l 671 461 l 909 0 l 613 0 z "},"Ŕ":{"ha":926,"x_min":59,"x_max":909,"o":"m 59 0 l 59 1010 l 491 1010 q 695 968 608 1010 q 829 848 781 926 q 876 662 876 770 q 827 480 876 555 q 689 364 778 404 q 479 324 600 324 l 229 324 l 229 540 l 450 540 q 528 554 496 540 q 578 595 561 568 q 596 662 596 623 q 578 729 596 702 q 528 771 561 757 q 450 785 496 785 l 338 785 l 338 0 l 59 0 m 613 0 l 381 461 l 671 461 l 909 0 l 613 0 m 361 1099 l 479 1320 l 721 1320 l 540 1099 l 361 1099 z "},"Ŗ":{"ha":926,"x_min":59,"x_max":909,"o":"m 59 0 l 59 1010 l 491 1010 q 695 968 608 1010 q 829 848 781 926 q 876 662 876 770 q 827 480 876 555 q 689 364 778 404 q 479 324 600 324 l 229 324 l 229 540 l 450 540 q 528 554 496 540 q 578 595 561 568 q 596 662 596 623 q 578 729 596 702 q 528 771 561 757 q 450 785 496 785 l 338 785 l 338 0 l 59 0 m 613 0 l 381 461 l 671 461 l 909 0 l 613 0 m 285 -316 l 350 -80 l 594 -80 l 469 -316 l 285 -316 z "},"Ř":{"ha":926,"x_min":59,"x_max":909,"o":"m 59 0 l 59 1010 l 491 1010 q 695 968 608 1010 q 829 848 781 926 q 876 662 876 770 q 827 480 876 555 q 689 364 778 404 q 479 324 600 324 l 229 324 l 229 540 l 450 540 q 528 554 496 540 q 578 595 561 568 q 596 662 596 623 q 578 729 596 702 q 528 771 561 757 q 450 785 496 785 l 338 785 l 338 0 l 59 0 m 613 0 l 381 461 l 671 461 l 909 0 l 613 0 m 371 1320 l 458 1210 l 548 1320 l 755 1320 l 755 1318 l 556 1099 l 360 1099 l 163 1318 l 163 1320 l 371 1320 z "},"Ȑ":{"ha":926,"x_min":59,"x_max":909,"o":"m 59 0 l 59 1010 l 491 1010 q 695 968 608 1010 q 829 848 781 926 q 876 662 876 770 q 827 480 876 555 q 689 364 778 404 q 479 324 600 324 l 229 324 l 229 540 l 450 540 q 528 554 496 540 q 578 595 561 568 q 596 662 596 623 q 578 729 596 702 q 528 771 561 757 q 450 785 496 785 l 338 785 l 338 0 l 59 0 m 613 0 l 381 461 l 671 461 l 909 0 l 613 0 m 513 1099 l 386 1320 l 607 1320 l 692 1099 l 513 1099 m 253 1099 l 60 1320 l 304 1320 l 437 1099 l 253 1099 z "},"Ȓ":{"ha":926,"x_min":59,"x_max":909,"o":"m 59 0 l 59 1010 l 491 1010 q 695 968 608 1010 q 829 848 781 926 q 876 662 876 770 q 827 480 876 555 q 689 364 778 404 q 479 324 600 324 l 229 324 l 229 540 l 450 540 q 528 554 496 540 q 578 595 561 568 q 596 662 596 623 q 578 729 596 702 q 528 771 561 757 q 450 785 496 785 l 338 785 l 338 0 l 59 0 m 613 0 l 381 461 l 671 461 l 909 0 l 613 0 m 460 1325 q 595 1295 536 1325 q 690 1214 655 1265 q 726 1099 726 1163 l 577 1099 q 544 1168 577 1141 q 459 1195 511 1195 q 374 1168 408 1195 q 340 1099 340 1141 l 194 1099 q 229 1214 194 1163 q 323 1295 263 1265 q 460 1325 384 1325 z "},"Ṙ":{"ha":926,"x_min":59,"x_max":909,"o":"m 59 0 l 59 1010 l 491 1010 q 695 968 608 1010 q 829 848 781 926 q 876 662 876 770 q 827 480 876 555 q 689 364 778 404 q 479 324 600 324 l 229 324 l 229 540 l 450 540 q 528 554 496 540 q 578 595 561 568 q 596 662 596 623 q 578 729 596 702 q 528 771 561 757 q 450 785 496 785 l 338 785 l 338 0 l 59 0 m 613 0 l 381 461 l 671 461 l 909 0 l 613 0 m 459 1071 q 359 1107 399 1071 q 319 1199 319 1144 q 359 1290 319 1254 q 458 1326 399 1326 q 559 1290 519 1326 q 599 1199 599 1254 q 559 1107 599 1144 q 459 1071 519 1071 z "},"Ṛ":{"ha":926,"x_min":59,"x_max":909,"o":"m 59 0 l 59 1010 l 491 1010 q 695 968 608 1010 q 829 848 781 926 q 876 662 876 770 q 827 480 876 555 q 689 364 778 404 q 479 324 600 324 l 229 324 l 229 540 l 450 540 q 528 554 496 540 q 578 595 561 568 q 596 662 596 623 q 578 729 596 702 q 528 771 561 757 q 450 785 496 785 l 338 785 l 338 0 l 59 0 m 613 0 l 381 461 l 671 461 l 909 0 l 613 0 m 469 -333 q 369 -296 409 -333 q 329 -205 329 -260 q 369 -114 329 -150 q 469 -77 409 -77 q 569 -114 529 -77 q 609 -205 609 -150 q 569 -296 609 -260 q 469 -333 529 -333 z "},"Ṝ":{"ha":926,"x_min":59,"x_max":909,"o":"m 59 0 l 59 1010 l 491 1010 q 695 968 608 1010 q 829 848 781 926 q 876 662 876 770 q 827 480 876 555 q 689 364 778 404 q 479 324 600 324 l 229 324 l 229 540 l 450 540 q 528 554 496 540 q 578 595 561 568 q 596 662 596 623 q 578 729 596 702 q 528 771 561 757 q 450 785 496 785 l 338 785 l 338 0 l 59 0 m 613 0 l 381 461 l 671 461 l 909 0 l 613 0 m 469 -333 q 369 -296 409 -333 q 329 -205 329 -260 q 369 -114 329 -150 q 469 -77 409 -77 q 569 -114 529 -77 q 609 -205 609 -150 q 569 -296 609 -260 q 469 -333 529 -333 m 663 1278 l 663 1121 l 256 1121 l 256 1278 l 663 1278 z "},"Ṟ":{"ha":926,"x_min":59,"x_max":909,"o":"m 59 0 l 59 1010 l 491 1010 q 695 968 608 1010 q 829 848 781 926 q 876 662 876 770 q 827 480 876 555 q 689 364 778 404 q 479 324 600 324 l 229 324 l 229 540 l 450 540 q 528 554 496 540 q 578 595 561 568 q 596 662 596 623 q 578 729 596 702 q 528 771 561 757 q 450 785 496 785 l 338 785 l 338 0 l 59 0 m 613 0 l 381 461 l 671 461 l 909 0 l 613 0 m 673 -106 l 673 -264 l 266 -264 l 266 -106 l 673 -106 z "},"℟":{"ha":929,"x_min":64,"x_max":914,"o":"m 627 1158 l 383 -255 l 302 -247 l 541 1103 l 321 1146 l 340 1219 l 627 1158 m 64 0 l 64 1010 l 496 1010 q 700 968 614 1010 q 834 848 787 926 q 882 662 882 770 q 832 480 882 555 q 694 364 783 404 q 484 324 605 324 l 235 324 l 235 540 l 456 540 q 534 554 501 540 q 584 595 566 568 q 602 662 602 623 q 584 729 602 702 q 534 771 566 757 q 456 785 501 785 l 343 785 l 343 0 l 64 0 m 618 0 l 387 461 l 676 461 l 914 0 l 618 0 z "},"℞":{"ha":1128,"x_min":59,"x_max":1061,"o":"m 59 1010 l 484 1010 q 694 975 608 1010 q 826 868 781 939 q 871 693 871 798 q 842 551 871 610 q 763 451 812 491 q 657 387 714 412 l 606 363 l 224 363 l 223 581 l 488 581 q 541 590 515 581 q 584 623 567 600 q 600 685 600 646 q 583 749 600 726 q 538 781 565 772 q 484 789 511 789 l 333 789 l 333 0 l 59 0 l 59 1010 m 848 0 l 513 465 l 722 465 l 1061 0 l 848 0 m 687 0 l 531 0 l 870 465 l 1019 465 l 687 0 z "},"Ɍ":{"ha":952,"x_min":2,"x_max":939,"o":"m 253 357 l 2 357 l 2 551 l 253 551 l 253 357 m 89 0 l 89 1010 l 521 1010 q 725 968 638 1010 q 859 848 811 926 q 906 662 906 770 q 857 480 906 555 q 719 364 808 404 q 509 324 629 324 l 259 324 l 259 540 l 480 540 q 558 554 526 540 q 608 595 591 568 q 626 662 626 623 q 608 729 626 702 q 558 771 591 757 q 480 785 526 785 l 368 785 l 368 0 l 89 0 m 643 0 l 411 461 l 701 461 l 939 0 l 643 0 z "},"S":{"ha":940,"x_min":41,"x_max":898,"o":"m 477 -14 q 243 25 340 -14 q 94 145 146 65 q 41 345 42 226 l 305 345 q 329 271 308 302 q 388 225 350 241 q 477 209 425 209 q 553 220 522 209 q 602 251 585 231 q 619 296 619 271 q 603 338 619 320 q 551 370 587 356 q 460 395 516 384 l 359 415 q 141 516 218 444 q 64 703 64 588 q 116 872 64 800 q 260 985 168 945 q 475 1025 353 1025 q 689 985 599 1025 q 829 870 779 945 q 880 692 878 795 l 620 692 q 578 772 615 743 q 477 802 542 802 q 408 791 437 802 q 364 762 379 781 q 349 720 349 743 q 363 678 349 695 q 410 648 378 661 q 492 625 442 635 l 574 609 q 721 565 659 592 q 822 500 783 538 q 880 415 861 463 q 898 308 898 368 q 848 133 898 205 q 704 23 798 61 q 477 -14 610 -14 z "},"Ś":{"ha":940,"x_min":41,"x_max":898,"o":"m 477 -14 q 243 25 340 -14 q 94 145 146 65 q 41 345 42 226 l 305 345 q 329 271 308 302 q 388 225 350 241 q 477 209 425 209 q 553 220 522 209 q 602 251 585 231 q 619 296 619 271 q 603 338 619 320 q 551 370 587 356 q 460 395 516 384 l 359 415 q 141 516 218 444 q 64 703 64 588 q 116 872 64 800 q 260 985 168 945 q 475 1025 353 1025 q 689 985 599 1025 q 829 870 779 945 q 880 692 878 795 l 620 692 q 578 772 615 743 q 477 802 542 802 q 408 791 437 802 q 364 762 379 781 q 349 720 349 743 q 363 678 349 695 q 410 648 378 661 q 492 625 442 635 l 574 609 q 721 565 659 592 q 822 500 783 538 q 880 415 861 463 q 898 308 898 368 q 848 133 898 205 q 704 23 798 61 q 477 -14 610 -14 m 372 1099 l 490 1320 l 732 1320 l 551 1099 l 372 1099 z "}}}
